SolveigText-Italic.ufo
<glyph name="exclam" format="1">
  <advance width="205"/>
  <unicode hex="0021"/>
  <outline>
    <contour>
      <point x="110" y="147" type="curve"/>
      <point x="80" y="143" type="line"/>
      <point x="98" y="283"/>
      <point x="121" y="530"/>
      <point x="122" y="578" type="curve"/>
      <point x="148" y="580"/>
      <point x="175" y="583"/>
      <point x="205" y="588" type="curve"/>
      <point x="182" y="505"/>
      <point x="123" y="218"/>
    </contour>
    <contour>
      <point x="84" y="63" type="curve" smooth="yes"/>
      <point x="112" y="63"/>
      <point x="125" y="51"/>
      <point x="121" y="32" type="curve"/>
      <point x="118" y="7"/>
      <point x="87" y="-7"/>
      <point x="60" y="-7" type="curve" smooth="yes"/>
      <point x="40" y="-7"/>
      <point x="25" y="4"/>
      <point x="27" y="22" type="curve"/>
      <point x="31" y="43"/>
      <point x="58" y="63"/>
    </contour>
  </outline>
</glyph>
<glyph name="numbersign" format="1">
  <advance width="385"/>
  <unicode hex="0023"/>
  <outline>
    <contour>
      <point x="338" y="582" type="curve"/>
      <point x="329" y="524"/>
      <point x="320" y="473"/>
      <point x="312" y="424" type="curve"/>
      <point x="337" y="424"/>
      <point x="365" y="425"/>
      <point x="384" y="425" type="curve"/>
      <point x="383" y="414"/>
      <point x="378" y="399"/>
      <point x="372" y="389" type="curve"/>
      <point x="350" y="389"/>
      <point x="329" y="390"/>
      <point x="308" y="390" type="curve"/>
      <point x="297" y="327"/>
      <point x="288" y="270"/>
      <point x="278" y="207" type="curve"/>
      <point x="303" y="207"/>
      <point x="331" y="208"/>
      <point x="350" y="208" type="curve"/>
      <point x="349" y="197"/>
      <point x="345" y="181"/>
      <point x="339" y="171" type="curve"/>
      <point x="316" y="171"/>
      <point x="295" y="172"/>
      <point x="273" y="173" type="curve"/>
      <point x="248" y="2" type="line"/>
      <point x="236" y="-2"/>
      <point x="221" y="-6"/>
      <point x="210" y="-3" type="curve"/>
      <point x="238" y="173" type="line"/>
      <point x="200" y="174"/>
      <point x="170" y="174"/>
      <point x="127" y="174" type="curve"/>
      <point x="119" y="120"/>
      <point x="112" y="67"/>
      <point x="102" y="2" type="curve"/>
      <point x="91" y="-2"/>
      <point x="76" y="-6"/>
      <point x="65" y="-3" type="curve"/>
      <point x="93" y="174" type="line"/>
      <point x="26" y="174" type="line"/>
      <point x="24" y="182"/>
      <point x="31" y="204"/>
      <point x="35" y="210" type="curve"/>
      <point x="99" y="208" type="line"/>
      <point x="128" y="391" type="line"/>
      <point x="60" y="391" type="line"/>
      <point x="57" y="400"/>
      <point x="65" y="421"/>
      <point x="68" y="427" type="curve"/>
      <point x="133" y="425" type="line"/>
      <point x="156" y="581" type="line"/>
      <point x="166" y="584"/>
      <point x="187" y="584"/>
      <point x="192" y="582" type="curve"/>
      <point x="167" y="425" type="line"/>
      <point x="209" y="424"/>
      <point x="238" y="424"/>
      <point x="277" y="424" type="curve"/>
      <point x="301" y="581" type="line"/>
      <point x="310" y="584"/>
      <point x="333" y="584"/>
    </contour>
    <contour>
      <point x="133" y="208" type="curve"/>
      <point x="175" y="207"/>
      <point x="203" y="207"/>
      <point x="243" y="207" type="curve"/>
      <point x="273" y="390" type="line"/>
      <point x="235" y="391"/>
      <point x="204" y="391"/>
      <point x="162" y="391" type="curve"/>
      <point x="151" y="328"/>
      <point x="143" y="270"/>
    </contour>
  </outline>
</glyph>
<glyph name="dollar" format="1">
  <advance width="416"/>
  <unicode hex="0024"/>
  <outline>
    <contour>
      <point x="171" y="-16" type="curve"/>
      <point x="176" y="20"/>
      <point x="184" y="74"/>
      <point x="184" y="85" type="curve"/>
      <point x="151" y="86"/>
      <point x="80" y="102"/>
      <point x="57" y="109" type="curve"/>
      <point x="58" y="119"/>
      <point x="62" y="133"/>
      <point x="67" y="141" type="curve"/>
      <point x="127" y="126"/>
      <point x="168" y="120"/>
      <point x="205" y="120" type="curve" smooth="yes"/>
      <point x="271" y="120"/>
      <point x="302" y="161"/>
      <point x="302" y="196" type="curve"/>
      <point x="299" y="235"/>
      <point x="245" y="275"/>
      <point x="208" y="298" type="curve" smooth="yes"/>
      <point x="151" y="335"/>
      <point x="115" y="369"/>
      <point x="115" y="400" type="curve"/>
      <point x="123" y="458"/>
      <point x="180" y="493"/>
      <point x="258" y="509" type="curve"/>
      <point x="264" y="534"/>
      <point x="273" y="574"/>
      <point x="276" y="593" type="curve"/>
      <point x="287" y="597"/>
      <point x="299" y="595"/>
      <point x="306" y="594" type="curve"/>
      <point x="302" y="573"/>
      <point x="296" y="525"/>
      <point x="295" y="510" type="curve"/>
      <point x="304" y="511"/>
      <point x="346" y="508"/>
      <point x="380" y="501" type="curve"/>
      <point x="380" y="492"/>
      <point x="377" y="476"/>
      <point x="374" y="470" type="curve"/>
      <point x="285" y="491"/>
      <point x="186" y="474"/>
      <point x="187" y="414" type="curve" smooth="yes"/>
      <point x="187" y="395"/>
      <point x="222" y="364"/>
      <point x="267" y="337" type="curve" smooth="yes"/>
      <point x="317" y="307"/>
      <point x="373" y="269"/>
      <point x="373" y="220" type="curve" smooth="yes"/>
      <point x="373" y="168"/>
      <point x="323" y="97"/>
      <point x="225" y="86" type="curve"/>
      <point x="220" y="69"/>
      <point x="204" y="3"/>
      <point x="201" y="-16" type="curve"/>
      <point x="193" y="-18"/>
      <point x="179" y="-18"/>
    </contour>
  </outline>
</glyph>
<glyph name="ampersand" format="1">
  <advance width="645"/>
  <unicode hex="0026"/>
  <outline>
    <contour>
      <point x="370" y="596" type="curve"/>
      <point x="377" y="592"/>
      <point x="387" y="583"/>
      <point x="390" y="577" type="curve"/>
      <point x="341" y="535"/>
      <point x="299" y="484"/>
      <point x="299" y="419" type="curve" smooth="yes"/>
      <point x="299" y="343"/>
      <point x="358" y="218"/>
      <point x="403" y="156" type="curve"/>
      <point x="446" y="189"/>
      <point x="492" y="231"/>
      <point x="507" y="251" type="curve"/>
      <point x="543" y="258"/>
      <point x="588" y="267"/>
      <point x="633" y="278" type="curve"/>
      <point x="630" y="272" type="line"/>
      <point x="576" y="236"/>
      <point x="499" y="178"/>
      <point x="422" y="127" type="curve"/>
      <point x="449" y="87"/>
      <point x="494" y="40"/>
      <point x="568" y="4" type="curve"/>
      <point x="570" y="0" type="line"/>
      <point x="527" y="2"/>
      <point x="471" y="2"/>
      <point x="429" y="0" type="curve"/>
      <point x="404" y="23"/>
      <point x="373" y="66"/>
      <point x="359" y="89" type="curve"/>
      <point x="287" y="45"/>
      <point x="191" y="-6"/>
      <point x="130" y="-6" type="curve" smooth="yes"/>
      <point x="77" y="-6"/>
      <point x="7" y="63"/>
      <point x="30" y="170" type="curve"/>
      <point x="53" y="282"/>
      <point x="185" y="329"/>
      <point x="238" y="362" type="curve"/>
      <point x="231" y="390"/>
      <point x="231" y="403"/>
      <point x="231" y="431" type="curve" smooth="yes"/>
      <point x="231" y="484"/>
      <point x="331" y="571"/>
    </contour>
    <contour>
      <point x="248" y="329" type="curve"/>
      <point x="185" y="296"/>
      <point x="117" y="261"/>
      <point x="97" y="191" type="curve" smooth="yes"/>
      <point x="77" y="124"/>
      <point x="122" y="52"/>
      <point x="183" y="52" type="curve" smooth="yes"/>
      <point x="215" y="52"/>
      <point x="272" y="76"/>
      <point x="342" y="118" type="curve"/>
      <point x="325" y="143"/>
      <point x="270" y="246"/>
    </contour>
  </outline>
</glyph>
<glyph name="quotesingle" format="1">
  <advance width="157"/>
  <unicode hex="0027"/>
  <outline>
    <contour>
      <point x="112" y="350" type="curve"/>
      <point x="84" y="348" type="line"/>
      <point x="94" y="424"/>
      <point x="100" y="551"/>
      <point x="97" y="578" type="curve"/>
      <point x="123" y="578"/>
      <point x="150" y="583"/>
      <point x="180" y="588" type="curve"/>
      <point x="163" y="543"/>
      <point x="120" y="389"/>
    </contour>
  </outline>
</glyph>
<glyph name="parenright" format="1">
  <advance width="230"/>
  <unicode hex="0029"/>
  <outline>
    <contour>
      <point x="22" y="-97" type="curve"/>
      <point x="12" y="-97"/>
      <point x="0" y="-93"/>
      <point x="-7" y="-88" type="curve"/>
      <point x="57" y="50"/>
      <point x="93" y="158"/>
      <point x="117" y="299" type="curve" smooth="yes"/>
      <point x="134" y="396"/>
      <point x="124" y="504"/>
      <point x="103" y="608" type="curve"/>
      <point x="111" y="613"/>
      <point x="120" y="616"/>
      <point x="132" y="616" type="curve"/>
      <point x="162" y="525"/>
      <point x="201" y="408"/>
      <point x="186" y="297" type="curve"/>
      <point x="173" y="191"/>
      <point x="105" y="44"/>
    </contour>
  </outline>
</glyph>
<glyph name="asterisk" format="1">
  <advance width="416"/>
  <unicode hex="002A"/>
  <outline>
    <contour>
      <point x="332" y="494" type="curve"/>
      <point x="337" y="485"/>
      <point x="337" y="469"/>
      <point x="336" y="462" type="curve"/>
      <point x="320" y="461"/>
      <point x="256" y="452"/>
      <point x="231" y="447" type="curve"/>
      <point x="242" y="417"/>
      <point x="271" y="351"/>
      <point x="279" y="335" type="curve"/>
      <point x="272" y="328"/>
      <point x="256" y="324"/>
      <point x="248" y="324" type="curve"/>
      <point x="243" y="338"/>
      <point x="209" y="406"/>
      <point x="197" y="428" type="curve"/>
      <point x="174" y="409"/>
      <point x="118" y="360"/>
      <point x="106" y="349" type="curve"/>
      <point x="97" y="354"/>
      <point x="88" y="365"/>
      <point x="85" y="371" type="curve"/>
      <point x="97" y="381"/>
      <point x="151" y="438"/>
      <point x="168" y="456" type="curve"/>
      <point x="143" y="474"/>
      <point x="94" y="504"/>
      <point x="80" y="512" type="curve"/>
      <point x="82" y="522"/>
      <point x="89" y="536"/>
      <point x="94" y="540" type="curve"/>
      <point x="107" y="531"/>
      <point x="166" y="502"/>
      <point x="188" y="491" type="curve"/>
      <point x="195" y="521"/>
      <point x="210" y="585"/>
      <point x="213" y="602" type="curve"/>
      <point x="223" y="603"/>
      <point x="238" y="598"/>
      <point x="244" y="597" type="curve"/>
      <point x="240" y="581"/>
      <point x="230" y="507"/>
      <point x="226" y="484" type="curve"/>
      <point x="256" y="486"/>
      <point x="315" y="491"/>
    </contour>
  </outline>
</glyph>
<glyph name="plus" format="1">
  <advance width="416"/>
  <unicode hex="002B"/>
  <outline>
    <contour>
      <point x="232" y="365" type="curve"/>
      <point x="231" y="315"/>
      <point x="231" y="269"/>
      <point x="231" y="219" type="curve"/>
      <point x="283" y="218"/>
      <point x="333" y="218"/>
      <point x="368" y="220" type="curve"/>
      <point x="369" y="209"/>
      <point x="367" y="192"/>
      <point x="362" y="182" type="curve"/>
      <point x="317" y="184"/>
      <point x="277" y="184"/>
      <point x="231" y="184" type="curve"/>
      <point x="231" y="35" type="line"/>
      <point x="221" y="33"/>
      <point x="204" y="32"/>
      <point x="192" y="32" type="curve"/>
      <point x="193" y="83"/>
      <point x="194" y="133"/>
      <point x="194" y="184" type="curve"/>
      <point x="148" y="185"/>
      <point x="104" y="185"/>
      <point x="49" y="184" type="curve"/>
      <point x="46" y="193"/>
      <point x="50" y="216"/>
      <point x="52" y="221" type="curve"/>
      <point x="97" y="220"/>
      <point x="144" y="219"/>
      <point x="194" y="219" type="curve"/>
      <point x="195" y="269"/>
      <point x="195" y="315"/>
      <point x="194" y="364" type="curve"/>
      <point x="202" y="365"/>
      <point x="226" y="365"/>
    </contour>
  </outline>
</glyph>
<glyph name="comma" format="1">
  <advance width="209"/>
  <unicode hex="002C"/>
  <outline>
    <contour>
      <point x="84" y="87" type="curve" smooth="yes"/>
      <point x="108" y="87"/>
      <point x="120" y="63"/>
      <point x="120" y="41" type="curve" smooth="yes"/>
      <point x="120" y="0"/>
      <point x="47" y="-121"/>
      <point x="5" y="-176" type="curve"/>
      <point x="-3" y="-174"/>
      <point x="-15" y="-166"/>
      <point x="-19" y="-160" type="curve"/>
      <point x="25" y="-102"/>
      <point x="49" y="-53"/>
      <point x="45" y="4" type="curve" smooth="yes"/>
      <point x="44" y="15"/>
      <point x="39" y="34"/>
      <point x="39" y="42" type="curve" smooth="yes"/>
      <point x="39" y="69"/>
      <point x="62" y="87"/>
    </contour>
  </outline>
</glyph>
<glyph name="period" format="1">
  <advance width="211"/>
  <unicode hex="002E"/>
  <outline>
    <contour>
      <point x="82" y="63" type="curve" smooth="yes"/>
      <point x="109" y="63"/>
      <point x="123" y="51"/>
      <point x="123" y="32" type="curve" smooth="yes"/>
      <point x="123" y="7"/>
      <point x="93" y="-7"/>
      <point x="67" y="-7" type="curve" smooth="yes"/>
      <point x="47" y="-7"/>
      <point x="31" y="4"/>
      <point x="31" y="22" type="curve" smooth="yes"/>
      <point x="31" y="43"/>
      <point x="56" y="63"/>
    </contour>
  </outline>
</glyph>
<glyph name="one" format="1">
  <advance width="345"/>
  <unicode hex="0031"/>
  <outline>
    <contour>
      <point x="110" y="-7" type="curve"/>
      <point x="161" y="147"/>
      <point x="203" y="392"/>
      <point x="221" y="509" type="curve"/>
      <point x="172" y="506"/>
      <point x="132" y="498"/>
      <point x="85" y="485" type="curve"/>
      <point x="81" y="489"/>
      <point x="77" y="511"/>
      <point x="77" y="519" type="curve"/>
      <point x="122" y="530"/>
      <point x="232" y="568"/>
      <point x="294" y="593" type="curve"/>
      <point x="304" y="589"/>
      <point x="303" y="592"/>
      <point x="310" y="584" type="curve"/>
      <point x="275" y="480"/>
      <point x="226" y="210"/>
      <point x="213" y="3" type="curve"/>
      <point x="174" y="2"/>
      <point x="149" y="1"/>
    </contour>
  </outline>
</glyph>
<glyph name="two" format="1">
  <advance width="414"/>
  <unicode hex="0032"/>
  <outline>
    <contour>
      <point x="93" y="552" type="curve"/>
      <point x="155" y="573"/>
      <point x="228" y="591"/>
      <point x="278" y="591" type="curve"/>
      <point x="339" y="593"/>
      <point x="395" y="560"/>
      <point x="395" y="492" type="curve" smooth="yes"/>
      <point x="395" y="400"/>
      <point x="250" y="216"/>
      <point x="115" y="91" type="curve"/>
      <point x="180" y="68"/>
      <point x="312" y="57"/>
      <point x="375" y="68" type="curve"/>
      <point x="360" y="37"/>
      <point x="355" y="10"/>
      <point x="354" y="-9" type="curve"/>
      <point x="256" y="-12"/>
      <point x="142" y="7"/>
      <point x="71" y="38" type="curve"/>
      <point x="38" y="19"/>
      <point x="19" y="4"/>
      <point x="-8" y="-17" type="curve"/>
      <point x="-17" y="-15"/>
      <point x="-30" y="-5"/>
      <point x="-36" y="2" type="curve"/>
      <point x="89" y="112"/>
      <point x="321" y="317"/>
      <point x="321" y="483" type="curve" smooth="yes"/>
      <point x="321" y="533"/>
      <point x="276" y="538"/>
      <point x="223" y="538" type="curve" smooth="yes"/>
      <point x="189" y="538"/>
      <point x="135" y="529"/>
      <point x="100" y="519" type="curve"/>
      <point x="94" y="525"/>
      <point x="93" y="543"/>
    </contour>
  </outline>
</glyph>
<glyph name="three" format="1">
  <advance width="386"/>
  <unicode hex="0033"/>
  <outline>
    <contour>
      <point x="80" y="560" type="curve"/>
      <point x="126" y="578"/>
      <point x="199" y="590"/>
      <point x="238" y="590" type="curve" smooth="yes"/>
      <point x="301" y="590"/>
      <point x="356" y="570"/>
      <point x="356" y="505" type="curve" smooth="yes"/>
      <point x="356" y="447"/>
      <point x="314" y="407"/>
      <point x="228" y="369" type="curve"/>
      <point x="318" y="369"/>
      <point x="355" y="328"/>
      <point x="355" y="257" type="curve" smooth="yes"/>
      <point x="355" y="145"/>
      <point x="164" y="11"/>
      <point x="5" y="-26" type="curve"/>
      <point x="-5" y="-17"/>
      <point x="-12" y="-8"/>
      <point x="-19" y="3" type="curve"/>
      <point x="120" y="40"/>
      <point x="283" y="158"/>
      <point x="283" y="248" type="curve" smooth="yes"/>
      <point x="283" y="304"/>
      <point x="243" y="335"/>
      <point x="175" y="335" type="curve" smooth="yes"/>
      <point x="149" y="335"/>
      <point x="139" y="333"/>
      <point x="125" y="331" type="curve"/>
      <point x="121" y="337"/>
      <point x="118" y="359"/>
      <point x="119" y="365" type="curve"/>
      <point x="212" y="385"/>
      <point x="283" y="424"/>
      <point x="283" y="492" type="curve" smooth="yes"/>
      <point x="283" y="531"/>
      <point x="249" y="547"/>
      <point x="203" y="547" type="curve" smooth="yes"/>
      <point x="172" y="547"/>
      <point x="122" y="535"/>
      <point x="92" y="526" type="curve"/>
      <point x="87" y="533"/>
      <point x="81" y="552"/>
    </contour>
  </outline>
</glyph>
<glyph name="four" format="1">
  <advance width="422"/>
  <unicode hex="0034"/>
  <outline>
    <contour>
      <point x="231" y="-2" type="curve"/>
      <point x="250" y="43"/>
      <point x="264" y="121"/>
      <point x="277" y="192" type="curve"/>
      <point x="199" y="195"/>
      <point x="82" y="196"/>
      <point x="24" y="194" type="curve"/>
      <point x="18" y="198"/>
      <point x="15" y="212"/>
      <point x="13" y="220" type="curve"/>
      <point x="105" y="324"/>
      <point x="266" y="523"/>
      <point x="335" y="605" type="curve"/>
      <point x="345" y="602"/>
      <point x="359" y="590"/>
      <point x="364" y="581" type="curve"/>
      <point x="275" y="477"/>
      <point x="169" y="344"/>
      <point x="89" y="236" type="curve"/>
      <point x="151" y="233"/>
      <point x="232" y="234"/>
      <point x="283" y="233" type="curve"/>
      <point x="289" y="261"/>
      <point x="302" y="322"/>
      <point x="303" y="374" type="curve"/>
      <point x="330" y="380"/>
      <point x="360" y="385"/>
      <point x="388" y="398" type="curve"/>
      <point x="373" y="360"/>
      <point x="365" y="334"/>
      <point x="347" y="234" type="curve"/>
      <point x="361" y="234"/>
      <point x="375" y="235"/>
      <point x="393" y="236" type="curve"/>
      <point x="391" y="221"/>
      <point x="387" y="202"/>
      <point x="381" y="190" type="curve"/>
      <point x="357" y="190"/>
      <point x="349" y="191"/>
      <point x="340" y="191" type="curve"/>
      <point x="333" y="156"/>
      <point x="316" y="50"/>
      <point x="315" y="-1" type="curve"/>
      <point x="291" y="2"/>
      <point x="262" y="6"/>
    </contour>
  </outline>
</glyph>
<glyph name="five" format="1">
  <advance width="356"/>
  <unicode hex="0035"/>
  <outline>
    <contour>
      <point x="126" y="585" type="curve"/>
      <point x="131" y="588"/>
      <point x="157" y="588"/>
      <point x="166" y="586" type="curve"/>
      <point x="162" y="578"/>
      <point x="159" y="568"/>
      <point x="157" y="560" type="curve"/>
      <point x="243" y="554"/>
      <point x="305" y="574"/>
      <point x="362" y="591" type="curve"/>
      <point x="342" y="562"/>
      <point x="316" y="517"/>
      <point x="310" y="504" type="curve"/>
      <point x="277" y="497"/>
      <point x="189" y="495"/>
      <point x="141" y="502" type="curve"/>
      <point x="133" y="482"/>
      <point x="120" y="442"/>
      <point x="115" y="424" type="curve"/>
      <point x="222" y="410"/>
      <point x="322" y="366"/>
      <point x="322" y="268" type="curve" smooth="yes"/>
      <point x="322" y="132"/>
      <point x="167" y="20"/>
      <point x="58" y="-25" type="curve"/>
      <point x="51" y="-20"/>
      <point x="40" y="-7"/>
      <point x="36" y="5" type="curve"/>
      <point x="114" y="35"/>
      <point x="258" y="134"/>
      <point x="258" y="253" type="curve" smooth="yes"/>
      <point x="258" y="347"/>
      <point x="96" y="370"/>
      <point x="54" y="370" type="curve"/>
      <point x="82" y="425"/>
      <point x="117" y="539"/>
    </contour>
  </outline>
</glyph>
<glyph name="six" format="1">
  <advance width="438"/>
  <unicode hex="0036"/>
  <outline>
    <contour>
      <point x="349" y="594" type="curve"/>
      <point x="356" y="591"/>
      <point x="374" y="576"/>
      <point x="377" y="570" type="curve"/>
      <point x="296" y="511"/>
      <point x="102" y="340"/>
      <point x="102" y="156" type="curve" smooth="yes"/>
      <point x="102" y="54"/>
      <point x="156" y="32"/>
      <point x="207" y="32" type="curve" smooth="yes"/>
      <point x="282" y="32"/>
      <point x="332" y="91"/>
      <point x="332" y="157" type="curve" smooth="yes"/>
      <point x="332" y="216"/>
      <point x="293" y="239"/>
      <point x="252" y="239" type="curve" smooth="yes"/>
      <point x="223" y="239"/>
      <point x="205" y="236"/>
      <point x="178" y="228" type="curve"/>
      <point x="172" y="236"/>
      <point x="169" y="253"/>
      <point x="167" y="262" type="curve"/>
      <point x="208" y="277"/>
      <point x="248" y="283"/>
      <point x="276" y="283" type="curve" smooth="yes"/>
      <point x="362" y="283"/>
      <point x="399" y="231"/>
      <point x="399" y="176" type="curve" smooth="yes"/>
      <point x="399" y="62"/>
      <point x="280" y="-17"/>
      <point x="185" y="-17" type="curve" smooth="yes"/>
      <point x="84" y="-17"/>
      <point x="28" y="36"/>
      <point x="28" y="149" type="curve" smooth="yes"/>
      <point x="28" y="311"/>
      <point x="241" y="519"/>
    </contour>
  </outline>
</glyph>
<glyph name="seven" format="1">
  <advance width="416"/>
  <unicode hex="0037"/>
  <outline>
    <contour>
      <point x="53" y="-27" type="curve"/>
      <point x="150" y="175"/>
      <point x="236" y="326"/>
      <point x="360" y="493" type="curve"/>
      <point x="289" y="492"/>
      <point x="148" y="494"/>
      <point x="66" y="499" type="curve"/>
      <point x="77" y="518"/>
      <point x="92" y="561"/>
      <point x="95" y="593" type="curve"/>
      <point x="186" y="571"/>
      <point x="263" y="555"/>
      <point x="391" y="545" type="curve"/>
      <point x="419" y="568"/>
      <point x="427" y="579"/>
      <point x="444" y="597" type="curve"/>
      <point x="451" y="597"/>
      <point x="465" y="590"/>
      <point x="472" y="586" type="curve"/>
      <point x="370" y="462"/>
      <point x="195" y="196"/>
      <point x="146" y="12" type="curve"/>
      <point x="129" y="7"/>
      <point x="67" y="-12"/>
    </contour>
  </outline>
</glyph>
<glyph name="eight" format="1">
  <advance width="454"/>
  <unicode hex="0038"/>
  <outline>
    <contour>
      <point x="348" y="578" type="curve"/>
      <point x="346" y="570"/>
      <point x="342" y="553"/>
      <point x="338" y="545" type="curve"/>
      <point x="263" y="566"/>
      <point x="181" y="533"/>
      <point x="181" y="469" type="curve" smooth="yes"/>
      <point x="181" y="439"/>
      <point x="195" y="422"/>
      <point x="266" y="392" type="curve"/>
      <point x="350" y="454"/>
      <point x="396" y="520"/>
      <point x="427" y="604" type="curve"/>
      <point x="436" y="607"/>
      <point x="454" y="606"/>
      <point x="460" y="604" type="curve"/>
      <point x="433" y="481"/>
      <point x="394" y="448"/>
      <point x="300" y="374" type="curve"/>
      <point x="347" y="353"/>
      <point x="413" y="313"/>
      <point x="413" y="231" type="curve" smooth="yes"/>
      <point x="413" y="114"/>
      <point x="305" y="-11"/>
      <point x="182" y="-11" type="curve" smooth="yes"/>
      <point x="78" y="-11"/>
      <point x="27" y="56"/>
      <point x="27" y="125" type="curve" smooth="yes"/>
      <point x="27" y="219"/>
      <point x="102" y="302"/>
      <point x="197" y="352" type="curve"/>
      <point x="165" y="367"/>
      <point x="119" y="396"/>
      <point x="119" y="451" type="curve" smooth="yes"/>
      <point x="119" y="526"/>
      <point x="208" y="588"/>
      <point x="287" y="588" type="curve" smooth="yes"/>
      <point x="305" y="588"/>
      <point x="332" y="581"/>
    </contour>
    <contour>
      <point x="233" y="333" type="curve"/>
      <point x="136" y="278"/>
      <point x="94" y="215"/>
      <point x="94" y="146" type="curve" smooth="yes"/>
      <point x="94" y="67"/>
      <point x="142" y="35"/>
      <point x="200" y="35" type="curve" smooth="yes"/>
      <point x="285" y="35"/>
      <point x="354" y="116"/>
      <point x="354" y="201" type="curve" smooth="yes"/>
      <point x="354" y="270"/>
      <point x="306" y="297"/>
    </contour>
  </outline>
</glyph>
<glyph name="nine" format="1">
  <advance width="438"/>
  <unicode hex="0039"/>
  <outline>
    <contour>
      <point x="107" y="-20" type="curve"/>
      <point x="100" y="-17"/>
      <point x="86" y="0"/>
      <point x="82" y="5" type="curve"/>
      <point x="151" y="55"/>
      <point x="355" y="234"/>
      <point x="355" y="418" type="curve" smooth="yes"/>
      <point x="355" y="524"/>
      <point x="307" y="546"/>
      <point x="251" y="546" type="curve" smooth="yes"/>
      <point x="181" y="546"/>
      <point x="126" y="485"/>
      <point x="126" y="417" type="curve" smooth="yes"/>
      <point x="126" y="359"/>
      <point x="165" y="335"/>
      <point x="206" y="335" type="curve" smooth="yes"/>
      <point x="232" y="335"/>
      <point x="252" y="339"/>
      <point x="280" y="347" type="curve"/>
      <point x="285" y="339"/>
      <point x="290" y="321"/>
      <point x="290" y="312" type="curve"/>
      <point x="250" y="297"/>
      <point x="210" y="290"/>
      <point x="181" y="290" type="curve" smooth="yes"/>
      <point x="96" y="290"/>
      <point x="59" y="344"/>
      <point x="59" y="399" type="curve" smooth="yes"/>
      <point x="59" y="512"/>
      <point x="177" y="592"/>
      <point x="273" y="592" type="curve" smooth="yes"/>
      <point x="374" y="592"/>
      <point x="429" y="538"/>
      <point x="429" y="425" type="curve" smooth="yes"/>
      <point x="429" y="265"/>
      <point x="226" y="62"/>
    </contour>
  </outline>
</glyph>
<glyph name="semicolon" format="1">
  <advance width="221"/>
  <unicode hex="003B"/>
  <outline>
    <contour>
      <point x="138" y="338" type="curve" smooth="yes"/>
      <point x="166" y="338"/>
      <point x="180" y="325"/>
      <point x="180" y="306" type="curve" smooth="yes"/>
      <point x="180" y="282"/>
      <point x="150" y="268"/>
      <point x="123" y="268" type="curve" smooth="yes"/>
      <point x="103" y="268"/>
      <point x="87" y="279"/>
      <point x="87" y="296" type="curve" smooth="yes"/>
      <point x="87" y="318"/>
      <point x="112" y="338"/>
    </contour>
    <contour>
      <point x="97" y="87" type="curve" smooth="yes"/>
      <point x="121" y="87"/>
      <point x="133" y="63"/>
      <point x="133" y="41" type="curve" smooth="yes"/>
      <point x="133" y="0"/>
      <point x="60" y="-121"/>
      <point x="17" y="-176" type="curve"/>
      <point x="9" y="-174"/>
      <point x="-2" y="-166"/>
      <point x="-7" y="-160" type="curve"/>
      <point x="37" y="-102"/>
      <point x="61" y="-53"/>
      <point x="57" y="4" type="curve" smooth="yes"/>
      <point x="57" y="15"/>
      <point x="52" y="34"/>
      <point x="52" y="42" type="curve" smooth="yes"/>
      <point x="52" y="69"/>
      <point x="74" y="87"/>
    </contour>
  </outline>
</glyph>
<glyph name="less" format="1">
  <advance width="388"/>
  <unicode hex="003C"/>
  <outline>
    <contour>
      <point x="26" y="210" type="curve"/>
      <point x="133" y="266"/>
      <point x="277" y="347"/>
      <point x="321" y="375" type="curve"/>
      <point x="331" y="366"/>
      <point x="335" y="350"/>
      <point x="338" y="340" type="curve"/>
      <point x="277" y="306"/>
      <point x="149" y="238"/>
      <point x="88" y="202" type="curve"/>
      <point x="152" y="164"/>
      <point x="267" y="92"/>
      <point x="334" y="54" type="curve"/>
      <point x="329" y="42"/>
      <point x="325" y="27"/>
      <point x="313" y="20" type="curve"/>
      <point x="253" y="58"/>
      <point x="127" y="136"/>
      <point x="26" y="193" type="curve"/>
      <point x="24" y="199"/>
      <point x="24" y="205"/>
    </contour>
  </outline>
</glyph>
<glyph name="equal" format="1">
  <advance width="388"/>
  <unicode hex="003D"/>
  <outline>
    <contour>
      <point x="35" y="301" type="curve"/>
      <point x="136" y="299"/>
      <point x="275" y="299"/>
      <point x="350" y="300" type="curve"/>
      <point x="351" y="289"/>
      <point x="350" y="269"/>
      <point x="345" y="259" type="curve"/>
      <point x="248" y="262"/>
      <point x="156" y="263"/>
      <point x="32" y="262" type="curve"/>
      <point x="28" y="270"/>
      <point x="32" y="295"/>
    </contour>
    <contour>
      <point x="35" y="185" type="curve"/>
      <point x="136" y="183"/>
      <point x="275" y="183"/>
      <point x="350" y="184" type="curve"/>
      <point x="351" y="173"/>
      <point x="350" y="153"/>
      <point x="345" y="143" type="curve"/>
      <point x="248" y="146"/>
      <point x="156" y="146"/>
      <point x="32" y="146" type="curve"/>
      <point x="28" y="154"/>
      <point x="32" y="179"/>
    </contour>
  </outline>
</glyph>
<glyph name="greater" format="1">
  <advance width="388"/>
  <unicode hex="003E"/>
  <outline>
    <contour>
      <point x="354" y="185" type="curve"/>
      <point x="247" y="129"/>
      <point x="103" y="48"/>
      <point x="59" y="20" type="curve"/>
      <point x="49" y="29"/>
      <point x="45" y="45"/>
      <point x="42" y="56" type="curve"/>
      <point x="103" y="89"/>
      <point x="231" y="157"/>
      <point x="292" y="193" type="curve"/>
      <point x="228" y="232"/>
      <point x="113" y="303"/>
      <point x="46" y="342" type="curve"/>
      <point x="51" y="353"/>
      <point x="55" y="368"/>
      <point x="67" y="375" type="curve"/>
      <point x="127" y="337"/>
      <point x="253" y="259"/>
      <point x="354" y="203" type="curve"/>
      <point x="356" y="197"/>
      <point x="356" y="191"/>
    </contour>
  </outline>
</glyph>
<glyph name="question" format="1">
  <advance width="240"/>
  <unicode hex="003F"/>
  <outline>
    <contour>
      <point x="94" y="63" type="curve" smooth="yes"/>
      <point x="122" y="63"/>
      <point x="136" y="51"/>
      <point x="136" y="32" type="curve" smooth="yes"/>
      <point x="135" y="7"/>
      <point x="105" y="-7"/>
      <point x="78" y="-7" type="curve" smooth="yes"/>
      <point x="58" y="-7"/>
      <point x="42" y="4"/>
      <point x="43" y="22" type="curve"/>
      <point x="43" y="43"/>
      <point x="68" y="63"/>
    </contour>
    <contour>
      <point x="102" y="144" type="curve"/>
      <point x="93" y="165"/>
      <point x="72" y="223"/>
      <point x="73" y="261" type="curve" smooth="yes"/>
      <point x="75" y="316"/>
      <point x="156" y="357"/>
      <point x="158" y="418" type="curve" smooth="yes"/>
      <point x="160" y="473"/>
      <point x="133" y="538"/>
      <point x="115" y="580" type="curve"/>
      <point x="123" y="587"/>
      <point x="138" y="594"/>
      <point x="146" y="595" type="curve"/>
      <point x="161" y="563"/>
      <point x="214" y="439"/>
      <point x="212" y="399" type="curve"/>
      <point x="210" y="306"/>
      <point x="125" y="297"/>
      <point x="122" y="203" type="curve" smooth="yes"/>
      <point x="122" y="183"/>
      <point x="127" y="169"/>
      <point x="131" y="156" type="curve"/>
      <point x="123" y="151"/>
      <point x="112" y="144"/>
    </contour>
  </outline>
</glyph>
<glyph name="at" format="1">
  <advance width="712"/>
  <unicode hex="0040"/>
  <outline>
    <contour>
      <point x="436" y="-113" type="curve"/>
      <point x="447" y="-146" type="line"/>
      <point x="412" y="-158"/>
      <point x="333" y="-180"/>
      <point x="296" y="-180" type="curve" smooth="yes"/>
      <point x="114" y="-180"/>
      <point x="28" y="-63"/>
      <point x="28" y="113" type="curve" smooth="yes"/>
      <point x="28" y="382"/>
      <point x="262" y="558"/>
      <point x="470" y="558" type="curve" smooth="yes"/>
      <point x="577" y="558"/>
      <point x="694" y="505"/>
      <point x="694" y="344" type="curve" smooth="yes"/>
      <point x="694" y="206"/>
      <point x="613" y="106"/>
      <point x="444" y="-12" type="curve"/>
      <point x="423" y="2"/>
      <point x="406" y="47"/>
      <point x="406" y="95" type="curve" smooth="yes"/>
      <point x="406" y="113"/>
      <point x="406" y="131"/>
      <point x="409" y="149" type="curve"/>
      <point x="355" y="104"/>
      <point x="280" y="39"/>
      <point x="219" y="-12" type="curve"/>
      <point x="199" y="2"/>
      <point x="183" y="47"/>
      <point x="183" y="95" type="curve" smooth="yes"/>
      <point x="183" y="185"/>
      <point x="234" y="286"/>
      <point x="298" y="337" type="curve" smooth="yes"/>
      <point x="344" y="373"/>
      <point x="402" y="384"/>
      <point x="427" y="385" type="curve"/>
      <point x="470" y="385"/>
      <point x="505" y="385"/>
      <point x="539" y="384" type="curve"/>
      <point x="519" y="357"/>
      <point x="491" y="262"/>
      <point x="476" y="168" type="curve" smooth="yes"/>
      <point x="471" y="133"/>
      <point x="470" y="97"/>
      <point x="487" y="68" type="curve"/>
      <point x="573" y="130"/>
      <point x="650" y="209"/>
      <point x="650" y="341" type="curve" smooth="yes"/>
      <point x="650" y="474"/>
      <point x="561" y="522"/>
      <point x="464" y="522" type="curve" smooth="yes"/>
      <point x="271" y="522"/>
      <point x="74" y="358"/>
      <point x="74" y="117" type="curve" smooth="yes"/>
      <point x="74" y="-49"/>
      <point x="152" y="-140"/>
      <point x="303" y="-140" type="curve" smooth="yes"/>
      <point x="341" y="-140"/>
      <point x="412" y="-121"/>
    </contour>
    <contour>
      <point x="452" y="347" type="curve"/>
      <point x="409" y="352"/>
      <point x="366" y="341"/>
      <point x="331" y="312" type="curve"/>
      <point x="277" y="265"/>
      <point x="253" y="199"/>
      <point x="252" y="147" type="curve" smooth="yes"/>
      <point x="251" y="120"/>
      <point x="252" y="101"/>
      <point x="265" y="76" type="curve"/>
      <point x="295" y="97"/>
      <point x="400" y="183"/>
      <point x="419" y="202" type="curve"/>
      <point x="427" y="228"/>
      <point x="449" y="316"/>
    </contour>
  </outline>
</glyph>
<glyph name="B" format="1">
  <advance width="513"/>
  <unicode hex="0042"/>
  <outline>
    <contour>
      <point x="127" y="583" type="curve"/>
      <point x="194" y="578"/>
      <point x="286" y="588"/>
      <point x="359" y="583" type="curve"/>
      <point x="422" y="580"/>
      <point x="478" y="553"/>
      <point x="468" y="496" type="curve" smooth="yes"/>
      <point x="461" y="458"/>
      <point x="429" y="391"/>
      <point x="345" y="338" type="curve"/>
      <point x="345" y="335" type="line"/>
      <point x="442" y="338"/>
      <point x="488" y="310"/>
      <point x="488" y="240" type="curve" smooth="yes"/>
      <point x="488" y="141"/>
      <point x="353" y="7"/>
      <point x="171" y="-2" type="curve"/>
      <point x="136" y="-2"/>
      <point x="70" y="-4"/>
      <point x="32" y="-1" type="curve"/>
      <point x="57" y="75"/>
      <point x="127" y="502"/>
    </contour>
    <contour>
      <point x="196" y="543" type="curve"/>
      <point x="158" y="337"/>
      <point x="141" y="226"/>
      <point x="118" y="39" type="curve"/>
      <point x="128" y="37"/>
      <point x="170" y="37"/>
      <point x="182" y="37" type="curve" smooth="yes"/>
      <point x="234" y="37"/>
      <point x="387" y="79"/>
      <point x="406" y="222" type="curve"/>
      <point x="417" y="290"/>
      <point x="367" y="304"/>
      <point x="323" y="304" type="curve" smooth="yes"/>
      <point x="306" y="304"/>
      <point x="271" y="297"/>
      <point x="255" y="292" type="curve"/>
      <point x="252" y="298"/>
      <point x="248" y="314"/>
      <point x="248" y="322" type="curve"/>
      <point x="310" y="345"/>
      <point x="379" y="395"/>
      <point x="390" y="462" type="curve" smooth="yes"/>
      <point x="398" y="514"/>
      <point x="373" y="540"/>
      <point x="273" y="546" type="curve"/>
      <point x="252" y="546"/>
      <point x="222" y="546"/>
    </contour>
  </outline>
</glyph>
<glyph name="C" format="1">
  <advance width="552"/>
  <unicode hex="0043"/>
  <outline>
    <contour>
      <point x="527" y="569" type="curve"/>
      <point x="526" y="562"/>
      <point x="520" y="542"/>
      <point x="516" y="534" type="curve"/>
      <point x="481" y="546"/>
      <point x="440" y="555"/>
      <point x="406" y="555" type="curve" smooth="yes"/>
      <point x="260" y="555"/>
      <point x="124" y="400"/>
      <point x="124" y="246" type="curve" smooth="yes"/>
      <point x="124" y="141"/>
      <point x="176" y="43"/>
      <point x="313" y="43" type="curve" smooth="yes"/>
      <point x="358" y="43"/>
      <point x="460" y="85"/>
      <point x="501" y="110" type="curve"/>
      <point x="509" y="105"/>
      <point x="515" y="86"/>
      <point x="516" y="78" type="curve"/>
      <point x="441" y="38"/>
      <point x="344" y="-10"/>
      <point x="260" y="-10" type="curve" smooth="yes"/>
      <point x="133" y="-10"/>
      <point x="50" y="102"/>
      <point x="50" y="221" type="curve" smooth="yes"/>
      <point x="50" y="429"/>
      <point x="239" y="594"/>
      <point x="392" y="594" type="curve"/>
      <point x="407" y="595"/>
      <point x="471" y="588"/>
    </contour>
  </outline>
</glyph>
<glyph name="F" format="1">
  <advance width="439"/>
  <unicode hex="0046"/>
  <outline>
    <contour>
      <point x="481" y="584" type="curve"/>
      <point x="470" y="551" type="line"/>
      <point x="370" y="549"/>
      <point x="280" y="543"/>
      <point x="187" y="536" type="curve"/>
      <point x="181" y="512"/>
      <point x="167" y="424"/>
      <point x="158" y="350" type="curve"/>
      <point x="238" y="352"/>
      <point x="322" y="357"/>
      <point x="398" y="362" type="curve"/>
      <point x="392" y="329" type="line"/>
      <point x="367" y="328"/>
      <point x="218" y="315"/>
      <point x="150" y="306" type="curve"/>
      <point x="140" y="248"/>
      <point x="118" y="53"/>
      <point x="123" y="-2" type="curve"/>
      <point x="98" y="2"/>
      <point x="52" y="3"/>
      <point x="29" y="0" type="curve"/>
      <point x="52" y="57"/>
      <point x="119" y="494"/>
      <point x="114" y="583" type="curve"/>
      <point x="198" y="579"/>
      <point x="252" y="577"/>
    </contour>
  </outline>
</glyph>
<glyph name="I" format="1">
  <advance width="215"/>
  <unicode hex="0049"/>
  <outline>
    <contour>
      <point x="212" y="583" type="curve"/>
      <point x="171" y="465"/>
      <point x="118" y="100"/>
      <point x="117" y="-2" type="curve"/>
      <point x="99" y="-1"/>
      <point x="51" y="1"/>
      <point x="29" y="-2" type="curve"/>
      <point x="60" y="138"/>
      <point x="115" y="414"/>
      <point x="120" y="583" type="curve"/>
      <point x="146" y="580"/>
      <point x="187" y="579"/>
    </contour>
  </outline>
</glyph>
<glyph name="J" format="1">
  <advance width="216"/>
  <unicode hex="004A"/>
  <outline>
    <contour>
      <point x="121" y="583" type="curve"/>
      <point x="146" y="580"/>
      <point x="188" y="579"/>
      <point x="213" y="583" type="curve"/>
      <point x="181" y="494"/>
      <point x="151" y="269"/>
      <point x="127" y="122" type="curve"/>
      <point x="108" y="-1"/>
      <point x="62" y="-154"/>
      <point x="-104" y="-237" type="curve" smooth="yes"/>
      <point x="-163" y="-266"/>
      <point x="-206" y="-256"/>
      <point x="-242" y="-228" type="curve"/>
      <point x="-240" y="-221"/>
      <point x="-233" y="-208"/>
      <point x="-222" y="-198" type="curve"/>
      <point x="-218" y="-202"/>
      <point x="-197" y="-213"/>
      <point x="-164" y="-213" type="curve" smooth="yes"/>
      <point x="-107" y="-212"/>
      <point x="13" y="-146"/>
      <point x="54" y="81" type="curve" smooth="yes"/>
      <point x="86" y="256"/>
      <point x="117" y="451"/>
    </contour>
  </outline>
</glyph>
<glyph name="K" format="1">
  <advance width="584"/>
  <unicode hex="004B"/>
  <outline>
    <contour>
      <point x="32" y="-2" type="curve"/>
      <point x="81" y="118"/>
      <point x="136" y="525"/>
      <point x="127" y="585" type="curve"/>
      <point x="141" y="579"/>
      <point x="186" y="579"/>
      <point x="217" y="583" type="curve"/>
      <point x="200" y="530"/>
      <point x="183" y="430"/>
      <point x="177" y="385" type="curve"/>
      <point x="276" y="424"/>
      <point x="484" y="535"/>
      <point x="587" y="597" type="curve"/>
      <point x="579" y="580"/>
      <point x="566" y="528"/>
      <point x="561" y="509" type="curve"/>
      <point x="516" y="492"/>
      <point x="348" y="422"/>
      <point x="307" y="402" type="curve"/>
      <point x="335" y="338"/>
      <point x="459" y="100"/>
      <point x="543" y="-2" type="curve"/>
      <point x="509" y="2"/>
      <point x="468" y="2"/>
      <point x="429" y="-2" type="curve"/>
      <point x="395" y="84"/>
      <point x="298" y="288"/>
      <point x="248" y="378" type="curve"/>
      <point x="217" y="367"/>
      <point x="190" y="355"/>
      <point x="171" y="347" type="curve"/>
      <point x="164" y="316"/>
      <point x="131" y="88"/>
      <point x="135" y="-3" type="curve"/>
      <point x="104" y="3"/>
      <point x="61" y="3"/>
    </contour>
  </outline>
</glyph>
<glyph name="M" format="1">
  <advance width="816"/>
  <unicode hex="004D"/>
  <outline>
    <contour>
      <point x="-41" y="-3" type="curve"/>
      <point x="50" y="138"/>
      <point x="137" y="310"/>
      <point x="208" y="452" type="curve" smooth="yes"/>
      <point x="223" y="483"/>
      <point x="252" y="554"/>
      <point x="257" y="583" type="curve"/>
      <point x="268" y="586"/>
      <point x="280" y="586"/>
      <point x="295" y="592" type="curve"/>
      <point x="303" y="507"/>
      <point x="356" y="232"/>
      <point x="382" y="121" type="curve"/>
      <point x="444" y="221"/>
      <point x="553" y="407"/>
      <point x="578" y="454" type="curve" smooth="yes"/>
      <point x="605" y="506"/>
      <point x="629" y="555"/>
      <point x="636" y="582" type="curve"/>
      <point x="648" y="583"/>
      <point x="662" y="586"/>
      <point x="673" y="589" type="curve"/>
      <point x="680" y="439"/>
      <point x="730" y="166"/>
      <point x="766" y="-2" type="curve"/>
      <point x="740" y="3"/>
      <point x="694" y="1"/>
      <point x="673" y="-2" type="curve"/>
      <point x="656" y="176"/>
      <point x="634" y="313"/>
      <point x="614" y="439" type="curve"/>
      <point x="526" y="291"/>
      <point x="433" y="132"/>
      <point x="365" y="5" type="curve"/>
      <point x="355" y="-1"/>
      <point x="337" y="-9"/>
      <point x="320" y="-17" type="curve"/>
      <point x="288" y="205"/>
      <point x="274" y="288"/>
      <point x="248" y="439" type="curve"/>
      <point x="176" y="292"/>
      <point x="111" y="156"/>
      <point x="43" y="2" type="curve"/>
      <point x="16" y="0"/>
      <point x="-10" y="0"/>
    </contour>
  </outline>
</glyph>
<glyph name="O" format="1">
  <advance width="659"/>
  <unicode hex="004F"/>
  <outline>
    <contour>
      <point x="411" y="593" type="curve" smooth="yes"/>
      <point x="509" y="593"/>
      <point x="633" y="509"/>
      <point x="633" y="361" type="curve" smooth="yes"/>
      <point x="633" y="256"/>
      <point x="598" y="154"/>
      <point x="540" y="93" type="curve" smooth="yes"/>
      <point x="490" y="41"/>
      <point x="380" y="-11"/>
      <point x="292" y="-11" type="curve" smooth="yes"/>
      <point x="122" y="-11"/>
      <point x="43" y="108"/>
      <point x="43" y="236" type="curve"/>
      <point x="45" y="335"/>
      <point x="92" y="454"/>
      <point x="182" y="519" type="curve" smooth="yes"/>
      <point x="223" y="548"/>
      <point x="322" y="593"/>
    </contour>
    <contour>
      <point x="315" y="34" type="curve" smooth="yes"/>
      <point x="408" y="34"/>
      <point x="561" y="100"/>
      <point x="561" y="349" type="curve" smooth="yes"/>
      <point x="561" y="455"/>
      <point x="487" y="546"/>
      <point x="371" y="546" type="curve" smooth="yes"/>
      <point x="219" y="546"/>
      <point x="116" y="402"/>
      <point x="116" y="241" type="curve" smooth="yes"/>
      <point x="116" y="132"/>
      <point x="192" y="34"/>
    </contour>
  </outline>
</glyph>
<glyph name="P" format="1">
  <advance width="501"/>
  <unicode hex="0050"/>
  <outline>
    <contour>
      <point x="26" y="-1" type="curve"/>
      <point x="53" y="83"/>
      <point x="130" y="505"/>
      <point x="125" y="583" type="curve"/>
      <point x="162" y="579"/>
      <point x="216" y="583"/>
      <point x="295" y="583" type="curve" smooth="yes"/>
      <point x="400" y="583"/>
      <point x="517" y="596"/>
      <point x="515" y="490" type="curve" smooth="yes"/>
      <point x="514" y="393"/>
      <point x="429" y="314"/>
      <point x="239" y="261" type="curve"/>
      <point x="233" y="269"/>
      <point x="233" y="290"/>
      <point x="234" y="294" type="curve"/>
      <point x="375" y="343"/>
      <point x="437" y="391"/>
      <point x="437" y="476" type="curve" smooth="yes"/>
      <point x="437" y="526"/>
      <point x="377" y="543"/>
      <point x="307" y="546" type="curve" smooth="yes"/>
      <point x="260" y="548"/>
      <point x="213" y="541"/>
      <point x="195" y="538" type="curve"/>
      <point x="169" y="428"/>
      <point x="112" y="52"/>
      <point x="126" y="-1" type="curve"/>
      <point x="107" y="2"/>
      <point x="50" y="2"/>
    </contour>
  </outline>
</glyph>
<glyph name="S" format="1">
  <advance width="297"/>
  <unicode hex="0053"/>
  <outline>
    <contour>
      <point x="250" y="568" type="curve"/>
      <point x="203" y="547"/>
      <point x="161" y="501"/>
      <point x="161" y="454" type="curve" smooth="yes"/>
      <point x="161" y="413"/>
      <point x="172" y="390"/>
      <point x="201" y="343" type="curve" smooth="yes"/>
      <point x="230" y="297"/>
      <point x="258" y="240"/>
      <point x="258" y="191" type="curve" smooth="yes"/>
      <point x="258" y="93"/>
      <point x="200" y="-4"/>
      <point x="48" y="-3" type="curve" smooth="yes"/>
      <point x="33" y="-3"/>
      <point x="12" y="-2"/>
      <point x="-2" y="1" type="curve"/>
      <point x="-3" y="7"/>
      <point x="3" y="34"/>
      <point x="5" y="38" type="curve"/>
      <point x="134" y="19"/>
      <point x="186" y="92"/>
      <point x="186" y="169" type="curve" smooth="yes"/>
      <point x="186" y="215"/>
      <point x="166" y="261"/>
      <point x="142" y="302" type="curve"/>
      <point x="117" y="347"/>
      <point x="98" y="381"/>
      <point x="98" y="425" type="curve" smooth="yes"/>
      <point x="98" y="499"/>
      <point x="162" y="562"/>
      <point x="231" y="598" type="curve"/>
      <point x="240" y="592"/>
      <point x="247" y="576"/>
    </contour>
  </outline>
</glyph>
<glyph name="T" format="1">
  <advance width="415"/>
  <unicode hex="0054"/>
  <outline>
    <contour>
      <point x="52" y="583" type="curve"/>
      <point x="243" y="575"/>
      <point x="309" y="578"/>
      <point x="481" y="583" type="curve"/>
      <point x="483" y="576"/>
      <point x="479" y="563"/>
      <point x="476" y="552" type="curve"/>
      <point x="407" y="545"/>
      <point x="342" y="542"/>
      <point x="293" y="534" type="curve"/>
      <point x="274" y="441"/>
      <point x="214" y="97"/>
      <point x="219" y="-2" type="curve"/>
      <point x="192" y="2"/>
      <point x="163" y="2"/>
      <point x="127" y="-1" type="curve"/>
      <point x="141" y="46"/>
      <point x="219" y="481"/>
      <point x="221" y="533" type="curve"/>
      <point x="175" y="541"/>
      <point x="126" y="544"/>
      <point x="45" y="550" type="curve"/>
      <point x="45" y="558"/>
      <point x="47" y="571"/>
    </contour>
  </outline>
</glyph>
<glyph name="V" format="1">
  <advance width="543"/>
  <unicode hex="0056"/>
  <outline>
    <contour>
      <point x="66" y="584" type="curve"/>
      <point x="103" y="579"/>
      <point x="130" y="580"/>
      <point x="170" y="585" type="curve"/>
      <point x="157" y="477"/>
      <point x="192" y="279"/>
      <point x="219" y="112" type="curve"/>
      <point x="244" y="152" type="line"/>
      <point x="363" y="332"/>
      <point x="452" y="486"/>
      <point x="474" y="575" type="curve"/>
      <point x="500" y="578"/>
      <point x="563" y="583"/>
      <point x="591" y="594" type="curve"/>
      <point x="521" y="512"/>
      <point x="349" y="250"/>
      <point x="295" y="168" type="curve" smooth="yes"/>
      <point x="269" y="127"/>
      <point x="221" y="47"/>
      <point x="208" y="7" type="curve"/>
      <point x="187" y="-7"/>
      <point x="181" y="-10"/>
      <point x="156" y="-17" type="curve"/>
      <point x="137" y="186"/>
      <point x="92" y="514"/>
    </contour>
  </outline>
</glyph>
<glyph name="W" format="1">
  <advance width="859"/>
  <unicode hex="0057"/>
  <outline>
    <contour>
      <point x="68" y="584" type="curve"/>
      <point x="106" y="579"/>
      <point x="136" y="580"/>
      <point x="176" y="585" type="curve"/>
      <point x="162" y="481"/>
      <point x="189" y="287"/>
      <point x="221" y="124" type="curve"/>
      <point x="227" y="136"/>
      <point x="235" y="148"/>
      <point x="242" y="158" type="curve" smooth="yes"/>
      <point x="373" y="357"/>
      <point x="444" y="457"/>
      <point x="496" y="587" type="curve"/>
      <point x="507" y="593"/>
      <point x="523" y="596"/>
      <point x="531" y="598" type="curve"/>
      <point x="541" y="455"/>
      <point x="568" y="284"/>
      <point x="595" y="121" type="curve"/>
      <point x="602" y="134"/>
      <point x="608" y="147"/>
      <point x="616" y="161" type="curve" smooth="yes"/>
      <point x="690" y="287"/>
      <point x="795" y="460"/>
      <point x="820" y="579" type="curve"/>
      <point x="846" y="581"/>
      <point x="901" y="583"/>
      <point x="928" y="593" type="curve"/>
      <point x="879" y="538"/>
      <point x="688" y="210"/>
      <point x="665" y="170" type="curve" smooth="yes"/>
      <point x="620" y="89"/>
      <point x="613" y="81"/>
      <point x="583" y="2" type="curve"/>
      <point x="572" y="-7"/>
      <point x="549" y="-17"/>
      <point x="531" y="-24" type="curve"/>
      <point x="513" y="171"/>
      <point x="493" y="294"/>
      <point x="469" y="434" type="curve"/>
      <point x="390" y="316"/>
      <point x="292" y="164"/>
      <point x="274" y="136" type="curve" smooth="yes"/>
      <point x="248" y="97"/>
      <point x="221" y="46"/>
      <point x="205" y="3" type="curve"/>
      <point x="187" y="-11"/>
      <point x="181" y="-16"/>
      <point x="163" y="-23" type="curve"/>
      <point x="144" y="184"/>
      <point x="106" y="471"/>
    </contour>
  </outline>
</glyph>
<glyph name="X" format="1">
  <advance width="571"/>
  <unicode hex="0058"/>
  <outline>
    <contour>
      <point x="238" y="581" type="curve"/>
      <point x="270" y="499"/>
      <point x="297" y="429"/>
      <point x="326" y="371" type="curve"/>
      <point x="398" y="446"/>
      <point x="452" y="520"/>
      <point x="484" y="581" type="curve"/>
      <point x="508" y="582"/>
      <point x="553" y="585"/>
      <point x="593" y="595" type="curve"/>
      <point x="526" y="543"/>
      <point x="402" y="401"/>
      <point x="346" y="337" type="curve"/>
      <point x="402" y="228"/>
      <point x="463" y="109"/>
      <point x="536" y="-1" type="curve"/>
      <point x="511" y="2"/>
      <point x="446" y="2"/>
      <point x="419" y="-1" type="curve"/>
      <point x="389" y="97"/>
      <point x="324" y="239"/>
      <point x="298" y="291" type="curve"/>
      <point x="234" y="226"/>
      <point x="128" y="88"/>
      <point x="87" y="8" type="curve"/>
      <point x="47" y="2"/>
      <point x="4" y="1"/>
      <point x="-45" y="-17" type="curve"/>
      <point x="51" y="61"/>
      <point x="208" y="246"/>
      <point x="279" y="327" type="curve"/>
      <point x="247" y="396"/>
      <point x="133" y="571"/>
      <point x="119" y="581" type="curve"/>
      <point x="142" y="578"/>
      <point x="198" y="575"/>
    </contour>
  </outline>
</glyph>
<glyph name="Z" format="1">
  <advance width="615"/>
  <unicode hex="005A"/>
  <outline>
    <contour>
      <point x="144" y="584" type="curve"/>
      <point x="211" y="573"/>
      <point x="533" y="569"/>
      <point x="579" y="588" type="curve"/>
      <point x="591" y="586"/>
      <point x="595" y="583"/>
      <point x="600" y="578" type="curve"/>
      <point x="548" y="526"/>
      <point x="224" y="184"/>
      <point x="151" y="106" type="curve"/>
      <point x="253" y="74"/>
      <point x="443" y="50"/>
      <point x="554" y="107" type="curve"/>
      <point x="543" y="82"/>
      <point x="534" y="35"/>
      <point x="528" y="-1" type="curve"/>
      <point x="444" y="-2"/>
      <point x="260" y="-12"/>
      <point x="96" y="47" type="curve"/>
      <point x="72" y="33"/>
      <point x="30" y="4"/>
      <point x="-1" y="-17" type="curve"/>
      <point x="-11" y="-14"/>
      <point x="-21" y="-7"/>
      <point x="-26" y="1" type="curve"/>
      <point x="90" y="96"/>
      <point x="387" y="404"/>
      <point x="476" y="506" type="curve"/>
      <point x="404" y="519"/>
      <point x="216" y="523"/>
      <point x="118" y="484" type="curve"/>
      <point x="127" y="499"/>
      <point x="147" y="567"/>
    </contour>
  </outline>
</glyph>
<glyph name="bracketleft" format="1">
  <advance width="244"/>
  <unicode hex="005B"/>
  <outline>
    <contour>
      <point x="179" y="-45" type="curve"/>
      <point x="183" y="-53"/>
      <point x="180" y="-67"/>
      <point x="177" y="-76" type="curve"/>
      <point x="110" y="-84"/>
      <point x="73" y="-87"/>
      <point x="12" y="-100" type="curve"/>
      <point x="43" y="19"/>
      <point x="111" y="470"/>
      <point x="120" y="583" type="curve"/>
      <point x="158" y="580"/>
      <point x="231" y="583"/>
      <point x="271" y="583" type="curve"/>
      <point x="272" y="576"/>
      <point x="270" y="558"/>
      <point x="266" y="552" type="curve"/>
      <point x="244" y="551"/>
      <point x="211" y="548"/>
      <point x="190" y="544" type="curve"/>
      <point x="157" y="390"/>
      <point x="123" y="160"/>
      <point x="98" y="-46" type="curve"/>
      <point x="134" y="-48"/>
      <point x="153" y="-47"/>
    </contour>
  </outline>
</glyph>
<glyph name="backslash" format="1">
  <advance width="293"/>
  <unicode hex="005C"/>
  <outline>
    <contour>
      <point x="71" y="605" type="curve"/>
      <point x="76" y="608"/>
      <point x="99" y="608"/>
      <point x="108" y="606" type="curve"/>
      <point x="150" y="385"/>
      <point x="191" y="179"/>
      <point x="235" y="-42" type="curve"/>
      <point x="223" y="-47"/>
      <point x="206" y="-44"/>
      <point x="196" y="-42" type="curve"/>
      <point x="155" y="179"/>
      <point x="115" y="383"/>
    </contour>
  </outline>
</glyph>
<glyph name="bracketright" format="1">
  <advance width="244"/>
  <unicode hex="005D"/>
  <outline>
    <contour>
      <point x="236" y="583" type="curve"/>
      <point x="205" y="459"/>
      <point x="138" y="27"/>
      <point x="131" y="-81" type="curve"/>
      <point x="86" y="-84"/>
      <point x="22" y="-94"/>
      <point x="-27" y="-103" type="curve"/>
      <point x="-29" y="-96"/>
      <point x="-29" y="-81"/>
      <point x="-26" y="-71" type="curve"/>
      <point x="6" y="-64"/>
      <point x="28" y="-61"/>
      <point x="60" y="-47" type="curve"/>
      <point x="93" y="112"/>
      <point x="129" y="383"/>
      <point x="154" y="547" type="curve"/>
      <point x="134" y="548"/>
      <point x="99" y="550"/>
      <point x="79" y="550" type="curve"/>
      <point x="80" y="560"/>
      <point x="80" y="572"/>
      <point x="83" y="582" type="curve"/>
      <point x="136" y="579"/>
      <point x="180" y="579"/>
    </contour>
  </outline>
</glyph>
<glyph name="underscore" format="1">
  <advance width="529"/>
  <unicode hex="005F"/>
  <outline>
    <contour>
      <point x="-45" y="-89" type="curve"/>
      <point x="181" y="-92"/>
      <point x="253" y="-92"/>
      <point x="478" y="-91" type="curve"/>
      <point x="479" y="-102"/>
      <point x="477" y="-120"/>
      <point x="472" y="-130" type="curve"/>
      <point x="246" y="-128"/>
      <point x="176" y="-127"/>
      <point x="-48" y="-127" type="curve"/>
      <point x="-52" y="-119"/>
      <point x="-47" y="-95"/>
    </contour>
  </outline>
</glyph>
<glyph name="grave" format="1">
  <advance width="416"/>
  <unicode hex="0060"/>
  <outline>
    <contour>
      <point x="180" y="562" type="curve"/>
      <point x="214" y="540"/>
      <point x="282" y="505"/>
      <point x="337" y="477" type="curve"/>
      <point x="327" y="454" type="line"/>
      <point x="266" y="474"/>
      <point x="220" y="485"/>
      <point x="153" y="499" type="curve"/>
      <point x="164" y="517"/>
      <point x="175" y="544"/>
    </contour>
  </outline>
</glyph>
<glyph name="a" format="1">
  <advance width="386"/>
  <unicode hex="0061"/>
  <outline>
    <contour>
      <point x="378" y="383" type="curve"/>
      <point x="342" y="344"/>
      <point x="291" y="67"/>
      <point x="300" y="-1" type="curve"/>
      <point x="278" y="1"/>
      <point x="252" y="3"/>
      <point x="221" y="-2" type="curve"/>
      <point x="221" y="18"/>
      <point x="243" y="113"/>
      <point x="251" y="151" type="curve"/>
      <point x="188" y="99"/>
      <point x="132" y="53"/>
      <point x="59" y="-12" type="curve"/>
      <point x="38" y="2"/>
      <point x="22" y="47"/>
      <point x="22" y="95" type="curve" smooth="yes"/>
      <point x="22" y="214"/>
      <point x="115" y="380"/>
      <point x="266" y="385" type="curve"/>
      <point x="310" y="385"/>
      <point x="343" y="385"/>
    </contour>
    <contour>
      <point x="292" y="350" type="curve"/>
      <point x="285" y="351"/>
      <point x="278" y="352"/>
      <point x="270" y="352" type="curve" smooth="yes"/>
      <point x="150" y="350"/>
      <point x="89" y="226"/>
      <point x="89" y="147" type="curve" smooth="yes"/>
      <point x="89" y="117"/>
      <point x="91" y="101"/>
      <point x="102" y="76" type="curve"/>
      <point x="133" y="97"/>
      <point x="239" y="181"/>
      <point x="261" y="202" type="curve"/>
      <point x="270" y="228"/>
      <point x="291" y="319"/>
    </contour>
  </outline>
</glyph>
<glyph name="b" format="1">
  <advance width="407"/>
  <unicode hex="0062"/>
  <outline>
    <contour>
      <point x="9" y="0" type="curve"/>
      <point x="29" y="32"/>
      <point x="47" y="103"/>
      <point x="57" y="146" type="curve" smooth="yes"/>
      <point x="88" y="294"/>
      <point x="146" y="593"/>
      <point x="139" y="680" type="curve"/>
      <point x="166" y="682"/>
      <point x="207" y="690"/>
      <point x="234" y="696" type="curve"/>
      <point x="205" y="606"/>
      <point x="172" y="403"/>
      <point x="143" y="243" type="curve"/>
      <point x="213" y="299"/>
      <point x="277" y="345"/>
      <point x="354" y="397" type="curve"/>
      <point x="366" y="390"/>
      <point x="380" y="341"/>
      <point x="380" y="295" type="curve" smooth="yes"/>
      <point x="380" y="128"/>
      <point x="222" y="-3"/>
      <point x="110" y="-3" type="curve" smooth="yes"/>
      <point x="79" y="-3"/>
      <point x="63" y="-3"/>
    </contour>
    <contour>
      <point x="136" y="199" type="curve"/>
      <point x="123" y="144"/>
      <point x="111" y="91"/>
      <point x="102" y="38" type="curve"/>
      <point x="110" y="34"/>
      <point x="118" y="34"/>
      <point x="130" y="34" type="curve" smooth="yes"/>
      <point x="191" y="34"/>
      <point x="310" y="131"/>
      <point x="312" y="254" type="curve" smooth="yes"/>
      <point x="313" y="286"/>
      <point x="304" y="304"/>
      <point x="296" y="314" type="curve"/>
      <point x="238" y="275"/>
      <point x="176" y="231"/>
    </contour>
  </outline>
</glyph>
<glyph name="c" format="1">
  <advance width="305"/>
  <unicode hex="0063"/>
  <outline>
    <contour>
      <point x="306" y="381" type="curve"/>
      <point x="305" y="370"/>
      <point x="302" y="361"/>
      <point x="297" y="350" type="curve"/>
      <point x="281" y="352"/>
      <point x="260" y="353"/>
      <point x="248" y="353" type="curve" smooth="yes"/>
      <point x="122" y="353"/>
      <point x="87" y="226"/>
      <point x="87" y="157" type="curve" smooth="yes"/>
      <point x="87" y="96"/>
      <point x="110" y="68"/>
      <point x="126" y="55" type="curve"/>
      <point x="144" y="65"/>
      <point x="211" y="112"/>
      <point x="243" y="139" type="curve"/>
      <point x="249" y="136"/>
      <point x="261" y="122"/>
      <point x="266" y="117" type="curve"/>
      <point x="224" y="83"/>
      <point x="150" y="25"/>
      <point x="95" y="-14" type="curve"/>
      <point x="56" y="8"/>
      <point x="27" y="60"/>
      <point x="27" y="123" type="curve" smooth="yes"/>
      <point x="27" y="290"/>
      <point x="124" y="386"/>
      <point x="257" y="386" type="curve" smooth="yes"/>
      <point x="276" y="386"/>
      <point x="300" y="384"/>
    </contour>
  </outline>
</glyph>
<glyph name="d" format="1">
  <advance width="397"/>
  <unicode hex="0064"/>
  <outline>
    <contour>
      <point x="300" y="-1" type="curve"/>
      <point x="278" y="1"/>
      <point x="252" y="3"/>
      <point x="221" y="-2" type="curve"/>
      <point x="221" y="18"/>
      <point x="243" y="113"/>
      <point x="251" y="151" type="curve"/>
      <point x="188" y="99"/>
      <point x="132" y="53"/>
      <point x="59" y="-12" type="curve"/>
      <point x="38" y="2"/>
      <point x="22" y="47"/>
      <point x="22" y="95" type="curve" smooth="yes"/>
      <point x="22" y="214"/>
      <point x="115" y="380"/>
      <point x="266" y="385" type="curve" smooth="yes"/>
      <point x="280" y="385"/>
      <point x="291" y="385"/>
      <point x="300" y="384" type="curve"/>
      <point x="328" y="507"/>
      <point x="348" y="629"/>
      <point x="344" y="680" type="curve"/>
      <point x="371" y="682"/>
      <point x="409" y="690"/>
      <point x="436" y="696" type="curve"/>
      <point x="424" y="662"/>
      <point x="411" y="611"/>
      <point x="398" y="553" type="curve" smooth="yes"/>
      <point x="365" y="402"/>
      <point x="330" y="240"/>
      <point x="304" y="80" type="curve" smooth="yes"/>
      <point x="299" y="46"/>
      <point x="298" y="17"/>
    </contour>
    <contour>
      <point x="295" y="350" type="curve"/>
      <point x="288" y="351"/>
      <point x="278" y="352"/>
      <point x="270" y="352" type="curve" smooth="yes"/>
      <point x="150" y="350"/>
      <point x="89" y="226"/>
      <point x="89" y="147" type="curve" smooth="yes"/>
      <point x="89" y="117"/>
      <point x="91" y="101"/>
      <point x="102" y="76" type="curve"/>
      <point x="133" y="97"/>
      <point x="239" y="181"/>
      <point x="261" y="202" type="curve"/>
      <point x="270" y="228"/>
      <point x="290" y="319"/>
    </contour>
  </outline>
</glyph>
<glyph name="f" format="1">
  <advance width="243"/>
  <unicode hex="0066"/>
  <outline>
    <contour>
      <point x="57" y="346" type="curve"/>
      <point x="66" y="385" type="line"/>
      <point x="75" y="385"/>
      <point x="91" y="384"/>
      <point x="105" y="384" type="curve"/>
      <point x="126" y="461"/>
      <point x="158" y="561"/>
      <point x="216" y="623" type="curve" smooth="yes"/>
      <point x="257" y="667"/>
      <point x="302" y="696"/>
      <point x="335" y="696" type="curve" smooth="yes"/>
      <point x="353" y="696"/>
      <point x="382" y="682"/>
      <point x="397" y="661" type="curve"/>
      <point x="393" y="654"/>
      <point x="385" y="641"/>
      <point x="376" y="638" type="curve"/>
      <point x="300" y="689"/>
      <point x="229" y="605"/>
      <point x="201" y="504" type="curve" smooth="yes"/>
      <point x="186" y="452"/>
      <point x="184" y="430"/>
      <point x="175" y="383" type="curve"/>
      <point x="210" y="382"/>
      <point x="244" y="383"/>
      <point x="279" y="385" type="curve"/>
      <point x="279" y="381"/>
      <point x="272" y="350"/>
      <point x="269" y="344" type="curve"/>
      <point x="248" y="346"/>
      <point x="214" y="347"/>
      <point x="169" y="347" type="curve"/>
      <point x="154" y="273"/>
      <point x="123" y="107"/>
      <point x="112" y="58" type="curve" smooth="yes"/>
      <point x="62" y="-176"/>
      <point x="-65" y="-279"/>
      <point x="-147" y="-279" type="curve" smooth="yes"/>
      <point x="-162" y="-279"/>
      <point x="-179" y="-268"/>
      <point x="-189" y="-258" type="curve"/>
      <point x="-189" y="-252"/>
      <point x="-182" y="-238"/>
      <point x="-178" y="-229" type="curve"/>
      <point x="-119" y="-264"/>
      <point x="-60" y="-206"/>
      <point x="-35" y="-172" type="curve" smooth="yes"/>
      <point x="5" y="-119"/>
      <point x="34" y="-42"/>
      <point x="52" y="57" type="curve" smooth="yes"/>
      <point x="67" y="141"/>
      <point x="94" y="307"/>
      <point x="99" y="345" type="curve"/>
      <point x="88" y="346"/>
      <point x="62" y="346"/>
    </contour>
  </outline>
</glyph>
<glyph name="h" format="1">
  <advance width="408"/>
  <unicode hex="0068"/>
  <outline>
    <contour>
      <point x="149" y="682" type="curve"/>
      <point x="176" y="684"/>
      <point x="204" y="688"/>
      <point x="234" y="696" type="curve"/>
      <point x="188" y="534"/>
      <point x="169" y="400"/>
      <point x="140" y="240" type="curve"/>
      <point x="203" y="293"/>
      <point x="276" y="354"/>
      <point x="333" y="399" type="curve"/>
      <point x="359" y="375"/>
      <point x="376" y="318"/>
      <point x="374" y="276" type="curve" smooth="yes"/>
      <point x="371" y="214"/>
      <point x="354" y="136"/>
      <point x="337" y="96" type="curve" smooth="yes"/>
      <point x="318" y="50"/>
      <point x="283" y="17"/>
      <point x="233" y="-13" type="curve"/>
      <point x="228" y="-11"/>
      <point x="218" y="0"/>
      <point x="214" y="7" type="curve"/>
      <point x="237" y="30"/>
      <point x="266" y="60"/>
      <point x="281" y="106" type="curve" smooth="yes"/>
      <point x="296" y="152"/>
      <point x="309" y="209"/>
      <point x="309" y="260" type="curve" smooth="yes"/>
      <point x="309" y="290"/>
      <point x="301" y="306"/>
      <point x="292" y="319" type="curve"/>
      <point x="231" y="272"/>
      <point x="194" y="247"/>
      <point x="132" y="186" type="curve"/>
      <point x="117" y="131"/>
      <point x="97" y="43"/>
      <point x="99" y="-1" type="curve"/>
      <point x="68" y="2"/>
      <point x="40" y="4"/>
      <point x="13" y="-2" type="curve"/>
      <point x="52" y="69"/>
      <point x="142" y="577"/>
    </contour>
  </outline>
</glyph>
<glyph name="i" format="1">
  <advance width="176"/>
  <unicode hex="0069"/>
  <outline>
    <contour>
      <point x="9" y="0" type="curve"/>
      <point x="42" y="93"/>
      <point x="82" y="308"/>
      <point x="86" y="385" type="curve"/>
      <point x="110" y="382"/>
      <point x="139" y="381"/>
      <point x="167" y="387" type="curve"/>
      <point x="137" y="321"/>
      <point x="96" y="62"/>
      <point x="99" y="-2" type="curve"/>
      <point x="75" y="6"/>
      <point x="22" y="1"/>
    </contour>
    <contour>
      <point x="170" y="577" type="curve" smooth="yes"/>
      <point x="199" y="577"/>
      <point x="203" y="558"/>
      <point x="201" y="548" type="curve" smooth="yes"/>
      <point x="199" y="531"/>
      <point x="177" y="514"/>
      <point x="148" y="514" type="curve" smooth="yes"/>
      <point x="128" y="514"/>
      <point x="112" y="522"/>
      <point x="117" y="542" type="curve"/>
      <point x="119" y="557"/>
      <point x="138" y="577"/>
    </contour>
  </outline>
</glyph>
<glyph name="j" format="1">
  <advance width="187"/>
  <unicode hex="006A"/>
  <outline>
    <contour>
      <point x="90" y="383" type="curve"/>
      <point x="107" y="380"/>
      <point x="144" y="380"/>
      <point x="171" y="385" type="curve"/>
      <point x="151" y="330"/>
      <point x="124" y="181"/>
      <point x="108" y="94" type="curve" smooth="yes"/>
      <point x="64" y="-149"/>
      <point x="-74" y="-280"/>
      <point x="-145" y="-280" type="curve" smooth="yes"/>
      <point x="-156" y="-280"/>
      <point x="-173" y="-271"/>
      <point x="-180" y="-264" type="curve"/>
      <point x="-179" y="-256"/>
      <point x="-169" y="-240"/>
      <point x="-164" y="-234" type="curve"/>
      <point x="-122" y="-265"/>
      <point x="-66" y="-198"/>
      <point x="-46" y="-169" type="curve" smooth="yes"/>
      <point x="-6" y="-112"/>
      <point x="26" y="-18"/>
      <point x="42" y="64" type="curve" smooth="yes"/>
      <point x="67" y="193"/>
      <point x="88" y="308"/>
    </contour>
    <contour>
      <point x="176" y="577" type="curve" smooth="yes"/>
      <point x="204" y="577"/>
      <point x="209" y="558"/>
      <point x="207" y="548" type="curve" smooth="yes"/>
      <point x="204" y="531"/>
      <point x="182" y="514"/>
      <point x="153" y="514" type="curve" smooth="yes"/>
      <point x="133" y="514"/>
      <point x="117" y="522"/>
      <point x="122" y="542" type="curve"/>
      <point x="124" y="557"/>
      <point x="143" y="577"/>
    </contour>
  </outline>
</glyph>
<glyph name="l" format="1">
  <advance width="218"/>
  <unicode hex="006C"/>
  <outline>
    <contour>
      <point x="144" y="682" type="curve"/>
      <point x="164" y="685"/>
      <point x="195" y="687"/>
      <point x="228" y="694" type="curve"/>
      <point x="194" y="593"/>
      <point x="141" y="322"/>
      <point x="110" y="130" type="curve" smooth="yes"/>
      <point x="105" y="97"/>
      <point x="102" y="50"/>
      <point x="122" y="49" type="curve" smooth="yes"/>
      <point x="138" y="49"/>
      <point x="165" y="52"/>
      <point x="188" y="59" type="curve"/>
      <point x="193" y="52"/>
      <point x="196" y="41"/>
      <point x="197" y="32" type="curve"/>
      <point x="158" y="15"/>
      <point x="90" y="-8"/>
      <point x="62" y="-8" type="curve" smooth="yes"/>
      <point x="35" y="-8"/>
      <point x="28" y="41"/>
      <point x="39" y="97" type="curve" smooth="yes"/>
      <point x="77" y="286"/>
      <point x="138" y="593"/>
    </contour>
  </outline>
</glyph>
<glyph name="m" format="1">
  <advance width="618"/>
  <unicode hex="006D"/>
  <outline>
    <contour>
      <point x="93" y="380" type="curve"/>
      <point x="109" y="379"/>
      <point x="145" y="382"/>
      <point x="176" y="388" type="curve"/>
      <point x="161" y="355"/>
      <point x="150" y="297"/>
      <point x="139" y="221" type="curve"/>
      <point x="191" y="271"/>
      <point x="273" y="341"/>
      <point x="338" y="393" type="curve"/>
      <point x="359" y="373"/>
      <point x="373" y="302"/>
      <point x="355" y="220" type="curve"/>
      <point x="414" y="278"/>
      <point x="481" y="338"/>
      <point x="546" y="395" type="curve"/>
      <point x="579" y="356"/>
      <point x="586" y="288"/>
      <point x="570" y="212" type="curve" smooth="yes"/>
      <point x="556" y="142"/>
      <point x="538" y="72"/>
      <point x="533" y="-2" type="curve"/>
      <point x="512" y="1"/>
      <point x="475" y="2"/>
      <point x="453" y="-2" type="curve"/>
      <point x="473" y="51"/>
      <point x="500" y="164"/>
      <point x="507" y="218" type="curve" smooth="yes"/>
      <point x="513" y="268"/>
      <point x="508" y="292"/>
      <point x="499" y="305" type="curve"/>
      <point x="459" y="275"/>
      <point x="373" y="196"/>
      <point x="348" y="170" type="curve"/>
      <point x="333" y="96"/>
      <point x="322" y="48"/>
      <point x="318" y="-2" type="curve"/>
      <point x="296" y="2"/>
      <point x="266" y="1"/>
      <point x="233" y="-2" type="curve"/>
      <point x="261" y="74"/>
      <point x="282" y="159"/>
      <point x="292" y="222" type="curve" smooth="yes"/>
      <point x="296" y="248"/>
      <point x="298" y="291"/>
      <point x="285" y="305" type="curve"/>
      <point x="232" y="263"/>
      <point x="177" y="217"/>
      <point x="129" y="168" type="curve"/>
      <point x="119" y="124"/>
      <point x="107" y="57"/>
      <point x="101" y="-3" type="curve"/>
      <point x="82" y="1"/>
      <point x="42" y="3"/>
      <point x="13" y="-2" type="curve"/>
      <point x="46" y="55"/>
      <point x="92" y="301"/>
    </contour>
  </outline>
</glyph>
<glyph name="o" format="1">
  <advance width="315"/>
  <unicode hex="006F"/>
  <outline>
    <contour>
      <point x="109" y="-16" type="curve"/>
      <point x="60" y="10"/>
      <point x="29" y="82"/>
      <point x="31" y="136" type="curve" smooth="yes"/>
      <point x="35" y="259"/>
      <point x="120" y="342"/>
      <point x="219" y="400" type="curve"/>
      <point x="270" y="366"/>
      <point x="288" y="305"/>
      <point x="287" y="250" type="curve" smooth="yes"/>
      <point x="285" y="139"/>
      <point x="200" y="43"/>
    </contour>
    <contour>
      <point x="87" y="174" type="curve" smooth="yes"/>
      <point x="87" y="136"/>
      <point x="90" y="84"/>
      <point x="135" y="47" type="curve"/>
      <point x="197" y="93"/>
      <point x="227" y="140"/>
      <point x="229" y="216" type="curve" smooth="yes"/>
      <point x="230" y="268"/>
      <point x="216" y="311"/>
      <point x="186" y="338" type="curve"/>
      <point x="149" y="315"/>
      <point x="89" y="256"/>
    </contour>
  </outline>
</glyph>
<glyph name="p" format="1">
  <advance width="395"/>
  <unicode hex="0070"/>
  <outline>
    <contour>
      <point x="-32" y="-281" type="curve"/>
      <point x="6" y="-187"/>
      <point x="89" y="300"/>
      <point x="95" y="385" type="curve"/>
      <point x="121" y="381"/>
      <point x="154" y="381"/>
      <point x="177" y="386" type="curve"/>
      <point x="168" y="356"/>
      <point x="153" y="293"/>
      <point x="144" y="248" type="curve"/>
      <point x="200" y="295"/>
      <point x="284" y="357"/>
      <point x="340" y="399" type="curve"/>
      <point x="360" y="370"/>
      <point x="368" y="314"/>
      <point x="367" y="264" type="curve" smooth="yes"/>
      <point x="362" y="132"/>
      <point x="261" y="-11"/>
      <point x="132" y="-11" type="curve" smooth="yes"/>
      <point x="116" y="-11"/>
      <point x="107" y="-9"/>
      <point x="97" y="-5" type="curve"/>
      <point x="85" y="-59"/>
      <point x="62" y="-231"/>
      <point x="64" y="-261" type="curve"/>
      <point x="39" y="-264"/>
      <point x="1" y="-270"/>
    </contour>
    <contour>
      <point x="137" y="204" type="curve"/>
      <point x="129" y="169"/>
      <point x="113" y="92"/>
      <point x="102" y="28" type="curve"/>
      <point x="112" y="24"/>
      <point x="117" y="23"/>
      <point x="137" y="23" type="curve" smooth="yes"/>
      <point x="204" y="23"/>
      <point x="296" y="96"/>
      <point x="301" y="246" type="curve" smooth="yes"/>
      <point x="302" y="275"/>
      <point x="297" y="296"/>
      <point x="288" y="317" type="curve"/>
      <point x="248" y="288"/>
      <point x="197" y="251"/>
    </contour>
  </outline>
</glyph>
<glyph name="q" format="1">
  <advance width="394"/>
  <unicode hex="0071"/>
  <outline>
    <contour>
      <point x="265" y="385" type="curve" smooth="yes"/>
      <point x="308" y="387"/>
      <point x="347" y="386"/>
      <point x="385" y="384" type="curve"/>
      <point x="332" y="293"/>
      <point x="264" y="-158"/>
      <point x="267" y="-261" type="curve"/>
      <point x="236" y="-263"/>
      <point x="193" y="-270"/>
      <point x="155" y="-278" type="curve"/>
      <point x="184" y="-235"/>
      <point x="216" y="-71"/>
      <point x="256" y="151" type="curve"/>
      <point x="201" y="98"/>
      <point x="131" y="39"/>
      <point x="76" y="-12" type="curve"/>
      <point x="56" y="2"/>
      <point x="33" y="45"/>
      <point x="33" y="106" type="curve" smooth="yes"/>
      <point x="33" y="263"/>
      <point x="151" y="379"/>
    </contour>
    <contour>
      <point x="297" y="350" type="curve"/>
      <point x="289" y="352"/>
      <point x="278" y="352"/>
      <point x="268" y="352" type="curve" smooth="yes"/>
      <point x="161" y="352"/>
      <point x="99" y="237"/>
      <point x="99" y="144" type="curve" smooth="yes"/>
      <point x="99" y="113"/>
      <point x="104" y="90"/>
      <point x="117" y="74" type="curve"/>
      <point x="147" y="96"/>
      <point x="248" y="183"/>
      <point x="268" y="202" type="curve"/>
      <point x="274" y="228"/>
      <point x="296" y="319"/>
    </contour>
  </outline>
</glyph>
<glyph name="t" format="1">
  <advance width="265"/>
  <unicode hex="0074"/>
  <outline>
    <contour>
      <point x="191" y="514" type="curve"/>
      <point x="176" y="467"/>
      <point x="168" y="448"/>
      <point x="153" y="384" type="curve"/>
      <point x="199" y="384"/>
      <point x="232" y="384"/>
      <point x="264" y="385" type="curve"/>
      <point x="261" y="373"/>
      <point x="255" y="355"/>
      <point x="249" y="345" type="curve"/>
      <point x="211" y="349"/>
      <point x="170" y="350"/>
      <point x="146" y="349" type="curve"/>
      <point x="133" y="297"/>
      <point x="112" y="168"/>
      <point x="107" y="130" type="curve"/>
      <point x="101" y="68"/>
      <point x="112" y="37"/>
      <point x="129" y="37" type="curve" smooth="yes"/>
      <point x="159" y="37"/>
      <point x="183" y="40"/>
      <point x="215" y="47" type="curve"/>
      <point x="220" y="39"/>
      <point x="221" y="25"/>
      <point x="221" y="15" type="curve"/>
      <point x="185" y="5"/>
      <point x="109" y="-12"/>
      <point x="82" y="-12" type="curve" smooth="yes"/>
      <point x="35" y="-12"/>
      <point x="34" y="47"/>
      <point x="41" y="98" type="curve" smooth="yes"/>
      <point x="49" y="165"/>
      <point x="70" y="283"/>
      <point x="86" y="350" type="curve"/>
      <point x="49" y="350" type="line"/>
      <point x="50" y="363"/>
      <point x="53" y="375"/>
      <point x="58" y="385" type="curve"/>
      <point x="70" y="384"/>
      <point x="88" y="384"/>
      <point x="96" y="384" type="curve"/>
      <point x="114" y="406"/>
      <point x="149" y="491"/>
      <point x="160" y="516" type="curve"/>
      <point x="169" y="519"/>
      <point x="181" y="516"/>
    </contour>
  </outline>
</glyph>
<glyph name="v" format="1">
  <advance width="370"/>
  <unicode hex="0076"/>
  <outline>
    <contour>
      <point x="167" y="385" type="curve"/>
      <point x="149" y="355"/>
      <point x="132" y="279"/>
      <point x="123" y="235" type="curve" smooth="yes"/>
      <point x="112" y="179"/>
      <point x="117" y="92"/>
      <point x="150" y="56" type="curve"/>
      <point x="210" y="99"/>
      <point x="255" y="177"/>
      <point x="270" y="247" type="curve" smooth="yes"/>
      <point x="278" y="280"/>
      <point x="290" y="331"/>
      <point x="290" y="385" type="curve"/>
      <point x="315" y="381"/>
      <point x="341" y="382"/>
      <point x="368" y="385" type="curve"/>
      <point x="360" y="366"/>
      <point x="348" y="329"/>
      <point x="341" y="297" type="curve" smooth="yes"/>
      <point x="303" y="122"/>
      <point x="171" y="24"/>
      <point x="109" y="-15" type="curve"/>
      <point x="69" y="27"/>
      <point x="36" y="108"/>
      <point x="59" y="230" type="curve" smooth="yes"/>
      <point x="77" y="322"/>
      <point x="85" y="360"/>
      <point x="84" y="385" type="curve"/>
      <point x="113" y="382"/>
      <point x="138" y="382"/>
    </contour>
  </outline>
</glyph>
<glyph name="x" format="1">
  <advance width="355"/>
  <unicode hex="0078"/>
  <outline>
    <contour>
      <point x="-19" y="-12" type="curve"/>
      <point x="15" y="18"/>
      <point x="121" y="158"/>
      <point x="149" y="199" type="curve"/>
      <point x="136" y="248"/>
      <point x="108" y="355"/>
      <point x="81" y="385" type="curve"/>
      <point x="112" y="382"/>
      <point x="150" y="382"/>
      <point x="175" y="385" type="curve"/>
      <point x="178" y="340"/>
      <point x="183" y="304"/>
      <point x="196" y="249" type="curve"/>
      <point x="240" y="305"/>
      <point x="273" y="350"/>
      <point x="288" y="380" type="curve"/>
      <point x="314" y="384"/>
      <point x="340" y="386"/>
      <point x="364" y="392" type="curve"/>
      <point x="308" y="340"/>
      <point x="266" y="292"/>
      <point x="206" y="208" type="curve"/>
      <point x="225" y="125"/>
      <point x="261" y="27"/>
      <point x="288" y="-2" type="curve" smooth="yes"/>
      <point x="289" y="-2"/>
      <point x="253" y="2"/>
      <point x="189" y="-1" type="curve"/>
      <point x="184" y="53"/>
      <point x="170" y="123"/>
      <point x="160" y="159" type="curve"/>
      <point x="117" y="95"/>
      <point x="86" y="48"/>
      <point x="66" y="2" type="curve"/>
      <point x="42" y="1"/>
      <point x="19" y="-2"/>
    </contour>
  </outline>
</glyph>
<glyph name="y" format="1">
  <advance width="406"/>
  <unicode hex="0079"/>
  <outline>
    <contour>
      <point x="-57" y="-279" type="curve"/>
      <point x="-62" y="-272"/>
      <point x="-70" y="-260"/>
      <point x="-71" y="-251" type="curve"/>
      <point x="10" y="-192"/>
      <point x="78" y="-127"/>
      <point x="132" y="-32" type="curve"/>
      <point x="124" y="39"/>
      <point x="81" y="310"/>
      <point x="51" y="385" type="curve"/>
      <point x="75" y="380"/>
      <point x="129" y="383"/>
      <point x="148" y="388" type="curve"/>
      <point x="141" y="330"/>
      <point x="159" y="164"/>
      <point x="186" y="61" type="curve"/>
      <point x="259" y="184"/>
      <point x="336" y="350"/>
      <point x="340" y="380" type="curve"/>
      <point x="355" y="379"/>
      <point x="396" y="385"/>
      <point x="422" y="393" type="curve"/>
      <point x="335" y="259"/>
      <point x="271" y="147"/>
      <point x="194" y="5" type="curve" smooth="yes"/>
      <point x="106" y="-155"/>
      <point x="77" y="-206"/>
    </contour>
  </outline>
</glyph>
<glyph name="braceleft" format="1">
  <advance width="244"/>
  <unicode hex="007B"/>
  <outline>
    <contour>
      <point x="271" y="601" type="curve"/>
      <point x="275" y="596"/>
      <point x="282" y="585"/>
      <point x="282" y="573" type="curve"/>
      <point x="244" y="546"/>
      <point x="210" y="524"/>
      <point x="196" y="474" type="curve" smooth="yes"/>
      <point x="190" y="454"/>
      <point x="183" y="424"/>
      <point x="177" y="410" type="curve" smooth="yes"/>
      <point x="152" y="349"/>
      <point x="131" y="324"/>
      <point x="67" y="284" type="curve"/>
      <point x="99" y="263"/>
      <point x="137" y="220"/>
      <point x="140" y="175" type="curve" smooth="yes"/>
      <point x="141" y="158"/>
      <point x="138" y="98"/>
      <point x="139" y="40" type="curve" smooth="yes"/>
      <point x="141" y="-21"/>
      <point x="153" y="-44"/>
      <point x="183" y="-78" type="curve"/>
      <point x="179" y="-86"/>
      <point x="171" y="-97"/>
      <point x="161" y="-102" type="curve"/>
      <point x="131" y="-81"/>
      <point x="69" y="-29"/>
      <point x="71" y="32" type="curve" smooth="yes"/>
      <point x="72" y="87"/>
      <point x="82" y="148"/>
      <point x="82" y="173" type="curve" smooth="yes"/>
      <point x="82" y="227"/>
      <point x="73" y="245"/>
      <point x="28" y="271" type="curve"/>
      <point x="27" y="280"/>
      <point x="31" y="290"/>
      <point x="34" y="296" type="curve"/>
      <point x="77" y="318"/>
      <point x="97" y="350"/>
      <point x="116" y="410" type="curve" smooth="yes"/>
      <point x="121" y="429"/>
      <point x="127" y="464"/>
      <point x="133" y="482" type="curve" smooth="yes"/>
      <point x="148" y="533"/>
      <point x="203" y="567"/>
    </contour>
  </outline>
</glyph>
<glyph name="bar" format="1">
  <advance width="243"/>
  <unicode hex="007C"/>
  <outline>
    <contour>
      <point x="142" y="602" type="curve"/>
      <point x="140" y="376"/>
      <point x="140" y="140"/>
      <point x="141" y="-85" type="curve"/>
      <point x="130" y="-88"/>
      <point x="112" y="-92"/>
      <point x="101" y="-90" type="curve"/>
      <point x="102" y="136"/>
      <point x="104" y="376"/>
      <point x="103" y="601" type="curve"/>
      <point x="112" y="604"/>
      <point x="136" y="604"/>
    </contour>
  </outline>
</glyph>
<glyph name="braceright" format="1">
  <advance width="244"/>
  <unicode hex="007D"/>
  <outline>
    <contour>
      <point x="92" y="601" type="curve"/>
      <point x="124" y="573"/>
      <point x="181" y="532"/>
      <point x="181" y="493" type="curve"/>
      <point x="182" y="472"/>
      <point x="180" y="410"/>
      <point x="180" y="387" type="curve" smooth="yes"/>
      <point x="179" y="345"/>
      <point x="198" y="320"/>
      <point x="234" y="293" type="curve"/>
      <point x="236" y="284"/>
      <point x="233" y="276"/>
      <point x="230" y="270" type="curve"/>
      <point x="181" y="253"/>
      <point x="168" y="211"/>
      <point x="161" y="186" type="curve" smooth="yes"/>
      <point x="153" y="161"/>
      <point x="148" y="132"/>
      <point x="141" y="97" type="curve" smooth="yes"/>
      <point x="122" y="-10"/>
      <point x="92" y="-36"/>
      <point x="-23" y="-104" type="curve"/>
      <point x="-29" y="-97"/>
      <point x="-35" y="-86"/>
      <point x="-35" y="-74" type="curve"/>
      <point x="3" y="-50"/>
      <point x="40" y="-29"/>
      <point x="62" y="36" type="curve" smooth="yes"/>
      <point x="74" y="70"/>
      <point x="90" y="134"/>
      <point x="101" y="173" type="curve"/>
      <point x="113" y="221"/>
      <point x="148" y="251"/>
      <point x="198" y="285" type="curve"/>
      <point x="146" y="325"/>
      <point x="127" y="347"/>
      <point x="121" y="395" type="curve" smooth="yes"/>
      <point x="117" y="425"/>
      <point x="117" y="464"/>
      <point x="117" y="494" type="curve" smooth="yes"/>
      <point x="117" y="534"/>
      <point x="100" y="544"/>
      <point x="72" y="576" type="curve"/>
      <point x="76" y="584"/>
      <point x="82" y="596"/>
    </contour>
  </outline>
</glyph>
<glyph name="asciitilde" format="1">
  <advance width="416"/>
  <unicode hex="007E"/>
  <outline>
    <contour>
      <point x="246" y="216" type="curve"/>
      <point x="222" y="216"/>
      <point x="172" y="243"/>
      <point x="148" y="243" type="curve" smooth="yes"/>
      <point x="113" y="243"/>
      <point x="87" y="227"/>
      <point x="51" y="206" type="curve"/>
      <point x="43" y="214"/>
      <point x="39" y="222"/>
      <point x="36" y="233" type="curve"/>
      <point x="80" y="268"/>
      <point x="151" y="301"/>
      <point x="181" y="300" type="curve" smooth="yes"/>
      <point x="209" y="300"/>
      <point x="255" y="276"/>
      <point x="283" y="276" type="curve" smooth="yes"/>
      <point x="317" y="276"/>
      <point x="345" y="289"/>
      <point x="380" y="309" type="curve"/>
      <point x="387" y="302"/>
      <point x="392" y="293"/>
      <point x="396" y="283" type="curve"/>
      <point x="343" y="240"/>
      <point x="276" y="214"/>
    </contour>
  </outline>
</glyph>
<glyph name="exclamdown" format="1">
  <advance width="205"/>
  <unicode hex="00A1"/>
  <outline>
    <contour>
      <point x="89" y="235" type="curve"/>
      <point x="119" y="239" type="line"/>
      <point x="101" y="99"/>
      <point x="78" y="-148"/>
      <point x="77" y="-196" type="curve"/>
      <point x="51" y="-198"/>
      <point x="24" y="-201"/>
      <point x="-6" y="-206" type="curve"/>
      <point x="17" y="-123"/>
      <point x="76" y="164"/>
    </contour>
    <contour>
      <point x="115" y="319" type="curve" smooth="yes"/>
      <point x="87" y="319"/>
      <point x="74" y="331"/>
      <point x="78" y="350" type="curve"/>
      <point x="81" y="375"/>
      <point x="112" y="389"/>
      <point x="139" y="389" type="curve" smooth="yes"/>
      <point x="159" y="389"/>
      <point x="174" y="378"/>
      <point x="172" y="360" type="curve"/>
      <point x="168" y="339"/>
      <point x="141" y="319"/>
    </contour>
  </outline>
</glyph>
<glyph name="cent" format="1">
  <advance width="416"/>
  <unicode hex="00A2"/>
  <outline>
    <contour>
      <point x="251" y="460" type="curve"/>
      <point x="260" y="462"/>
      <point x="278" y="459"/>
      <point x="282" y="454" type="curve"/>
      <point x="273" y="430"/>
      <point x="267" y="408"/>
      <point x="262" y="386" type="curve"/>
      <point x="281" y="386"/>
      <point x="300" y="384"/>
      <point x="306" y="381" type="curve"/>
      <point x="305" y="370"/>
      <point x="302" y="361"/>
      <point x="297" y="350" type="curve"/>
      <point x="281" y="352"/>
      <point x="260" y="353"/>
      <point x="248" y="353" type="curve" smooth="yes"/>
      <point x="122" y="353"/>
      <point x="87" y="226"/>
      <point x="87" y="157" type="curve" smooth="yes"/>
      <point x="87" y="96"/>
      <point x="110" y="68"/>
      <point x="126" y="55" type="curve"/>
      <point x="144" y="65"/>
      <point x="211" y="112"/>
      <point x="243" y="139" type="curve"/>
      <point x="249" y="136"/>
      <point x="261" y="122"/>
      <point x="266" y="117" type="curve"/>
      <point x="228" y="87"/>
      <point x="165" y="37"/>
      <point x="113" y="-1" type="curve"/>
      <point x="103" y="-27"/>
      <point x="92" y="-54"/>
      <point x="82" y="-82" type="curve"/>
      <point x="71" y="-83"/>
      <point x="63" y="-82"/>
      <point x="53" y="-76" type="curve"/>
      <point x="61" y="-54"/>
      <point x="70" y="-19"/>
      <point x="75" y="0" type="curve"/>
      <point x="44" y="25"/>
      <point x="27" y="68"/>
      <point x="27" y="123" type="curve" smooth="yes"/>
      <point x="27" y="276"/>
      <point x="108" y="371"/>
      <point x="223" y="385" type="curve"/>
      <point x="233" y="410"/>
      <point x="241" y="432"/>
    </contour>
  </outline>
</glyph>
<glyph name="sterling" format="1">
  <advance width="403"/>
  <unicode hex="00A3"/>
  <outline>
    <contour>
      <point x="89" y="332" type="curve"/>
      <point x="102" y="331"/>
      <point x="116" y="331"/>
      <point x="129" y="331" type="curve"/>
      <point x="121" y="359"/>
      <point x="111" y="385"/>
      <point x="111" y="410" type="curve" smooth="yes"/>
      <point x="111" y="499"/>
      <point x="203" y="587"/>
      <point x="308" y="587" type="curve" smooth="yes"/>
      <point x="328" y="587"/>
      <point x="350" y="578"/>
      <point x="365" y="573" type="curve"/>
      <point x="363" y="562"/>
      <point x="356" y="547"/>
      <point x="349" y="540" type="curve"/>
      <point x="294" y="556"/>
      <point x="248" y="550"/>
      <point x="210" y="511" type="curve" smooth="yes"/>
      <point x="189" y="489"/>
      <point x="177" y="460"/>
      <point x="177" y="423" type="curve" smooth="yes"/>
      <point x="177" y="392"/>
      <point x="186" y="366"/>
      <point x="191" y="329" type="curve"/>
      <point x="246" y="329"/>
      <point x="294" y="329"/>
      <point x="341" y="330" type="curve"/>
      <point x="342" y="319"/>
      <point x="341" y="300"/>
      <point x="336" y="290" type="curve"/>
      <point x="275" y="292"/>
      <point x="242" y="293"/>
      <point x="195" y="293" type="curve"/>
      <point x="195" y="243"/>
      <point x="157" y="146"/>
      <point x="114" y="96" type="curve"/>
      <point x="194" y="63"/>
      <point x="276" y="57"/>
      <point x="383" y="72" type="curve"/>
      <point x="373" y="55"/>
      <point x="360" y="18"/>
      <point x="358" y="-12" type="curve"/>
      <point x="242" y="-9"/>
      <point x="150" y="5"/>
      <point x="73" y="40" type="curve"/>
      <point x="37" y="17"/>
      <point x="24" y="10"/>
      <point x="-10" y="-17" type="curve"/>
      <point x="-20" y="-14"/>
      <point x="-31" y="-2"/>
      <point x="-36" y="7" type="curve"/>
      <point x="75" y="94"/>
      <point x="146" y="175"/>
      <point x="137" y="293" type="curve"/>
      <point x="86" y="293" type="line"/>
      <point x="83" y="301"/>
      <point x="87" y="326"/>
    </contour>
  </outline>
</glyph>
<glyph name="yen" format="1">
  <advance width="454"/>
  <unicode hex="00A5"/>
  <outline>
    <contour>
      <point x="77" y="191" type="curve"/>
      <point x="109" y="190"/>
      <point x="146" y="189"/>
      <point x="183" y="189" type="curve"/>
      <point x="192" y="241" type="line"/>
      <point x="87" y="241" type="line"/>
      <point x="85" y="249"/>
      <point x="90" y="273"/>
      <point x="92" y="279" type="curve"/>
      <point x="124" y="278"/>
      <point x="159" y="277"/>
      <point x="195" y="277" type="curve"/>
      <point x="171" y="358"/>
      <point x="91" y="533"/>
      <point x="48" y="583" type="curve"/>
      <point x="97" y="579"/>
      <point x="120" y="579"/>
      <point x="161" y="583" type="curve"/>
      <point x="172" y="501"/>
      <point x="219" y="377"/>
      <point x="254" y="318" type="curve"/>
      <point x="330" y="402"/>
      <point x="391" y="497"/>
      <point x="423" y="578" type="curve"/>
      <point x="449" y="578"/>
      <point x="490" y="583"/>
      <point x="527" y="592" type="curve"/>
      <point x="424" y="482"/>
      <point x="355" y="390"/>
      <point x="267" y="277" type="curve"/>
      <point x="372" y="277" type="line"/>
      <point x="373" y="266"/>
      <point x="369" y="248"/>
      <point x="365" y="238" type="curve"/>
      <point x="258" y="241" type="line"/>
      <point x="254" y="223"/>
      <point x="251" y="205"/>
      <point x="248" y="189" type="curve"/>
      <point x="356" y="189" type="line"/>
      <point x="357" y="178"/>
      <point x="352" y="160"/>
      <point x="348" y="150" type="curve"/>
      <point x="312" y="151"/>
      <point x="279" y="152"/>
      <point x="243" y="152" type="curve"/>
      <point x="235" y="92"/>
      <point x="235" y="41"/>
      <point x="241" y="-1" type="curve"/>
      <point x="205" y="2"/>
      <point x="166" y="3"/>
      <point x="135" y="-1" type="curve"/>
      <point x="151" y="36"/>
      <point x="165" y="94"/>
      <point x="176" y="153" type="curve"/>
      <point x="71" y="153" type="line"/>
      <point x="69" y="161"/>
      <point x="74" y="185"/>
    </contour>
  </outline>
</glyph>
<glyph name="section" format="1">
  <advance width="359"/>
  <unicode hex="00A7"/>
  <outline>
    <contour>
      <point x="293" y="598" type="curve"/>
      <point x="302" y="593"/>
      <point x="312" y="579"/>
      <point x="315" y="572" type="curve"/>
      <point x="253" y="531"/>
      <point x="218" y="487"/>
      <point x="219" y="452" type="curve" smooth="yes"/>
      <point x="221" y="405"/>
      <point x="235" y="390"/>
      <point x="266" y="343" type="curve" smooth="yes"/>
      <point x="295" y="298"/>
      <point x="317" y="256"/>
      <point x="317" y="207" type="curve" smooth="yes"/>
      <point x="317" y="138"/>
      <point x="283" y="82"/>
      <point x="210" y="33" type="curve"/>
      <point x="218" y="-92"/>
      <point x="74" y="-165"/>
      <point x="-46" y="-149" type="curve"/>
      <point x="-47" y="-143"/>
      <point x="-44" y="-117"/>
      <point x="-42" y="-113" type="curve"/>
      <point x="65" y="-124"/>
      <point x="142" y="-72"/>
      <point x="142" y="2" type="curve" smooth="yes"/>
      <point x="142" y="58"/>
      <point x="117" y="110"/>
      <point x="91" y="152" type="curve" smooth="yes"/>
      <point x="65" y="195"/>
      <point x="44" y="231"/>
      <point x="44" y="275" type="curve" smooth="yes"/>
      <point x="44" y="372"/>
      <point x="193" y="523"/>
    </contour>
    <contour>
      <point x="251" y="170" type="curve" smooth="yes"/>
      <point x="251" y="216"/>
      <point x="235" y="262"/>
      <point x="208" y="302" type="curve" smooth="yes"/>
      <point x="177" y="349"/>
      <point x="156" y="378"/>
      <point x="161" y="428" type="curve"/>
      <point x="125" y="389"/>
      <point x="103" y="338"/>
      <point x="104" y="305" type="curve" smooth="yes"/>
      <point x="106" y="258"/>
      <point x="119" y="241"/>
      <point x="149" y="193" type="curve" smooth="yes"/>
      <point x="169" y="161"/>
      <point x="196" y="121"/>
      <point x="205" y="71" type="curve"/>
      <point x="241" y="103"/>
      <point x="251" y="132"/>
    </contour>
  </outline>
</glyph>
<glyph name="dieresis" format="1">
  <advance width="416"/>
  <unicode hex="00A8"/>
  <outline>
    <contour>
      <point x="144" y="518" type="curve" smooth="yes"/>
      <point x="169" y="518"/>
      <point x="181" y="507"/>
      <point x="181" y="490" type="curve" smooth="yes"/>
      <point x="181" y="469"/>
      <point x="155" y="457"/>
      <point x="132" y="457" type="curve" smooth="yes"/>
      <point x="113" y="457"/>
      <point x="100" y="467"/>
      <point x="100" y="482" type="curve" smooth="yes"/>
      <point x="100" y="501"/>
      <point x="122" y="518"/>
    </contour>
    <contour>
      <point x="282" y="518" type="curve" smooth="yes"/>
      <point x="306" y="518"/>
      <point x="318" y="507"/>
      <point x="318" y="490" type="curve" smooth="yes"/>
      <point x="318" y="469"/>
      <point x="292" y="457"/>
      <point x="269" y="457" type="curve" smooth="yes"/>
      <point x="251" y="457"/>
      <point x="237" y="467"/>
      <point x="237" y="482" type="curve" smooth="yes"/>
      <point x="237" y="501"/>
      <point x="259" y="518"/>
    </contour>
  </outline>
</glyph>
<glyph name="copyright" format="1">
  <advance width="416"/>
  <unicode hex="00A9"/>
  <outline>
    <contour>
      <point x="7" y="269" type="curve" smooth="yes"/>
      <point x="7" y="453"/>
      <point x="156" y="602"/>
      <point x="340" y="602" type="curve" smooth="yes"/>
      <point x="524" y="602"/>
      <point x="672" y="453"/>
      <point x="672" y="269" type="curve" smooth="yes"/>
      <point x="672" y="85"/>
      <point x="524" y="-64"/>
      <point x="340" y="-64" type="curve" smooth="yes"/>
      <point x="156" y="-64"/>
      <point x="7" y="85"/>
    </contour>
    <contour>
      <point x="45" y="268" type="curve" smooth="yes"/>
      <point x="45" y="107"/>
      <point x="179" y="-28"/>
      <point x="339" y="-28" type="curve" smooth="yes"/>
      <point x="502" y="-28"/>
      <point x="635" y="107"/>
      <point x="635" y="268" type="curve" smooth="yes"/>
      <point x="635" y="431"/>
      <point x="502" y="567"/>
      <point x="339" y="567" type="curve" smooth="yes"/>
      <point x="179" y="567"/>
      <point x="45" y="431"/>
    </contour>
    <contour>
      <point x="331" y="37" type="curve"/>
      <point x="188" y="40"/>
      <point x="132" y="143"/>
      <point x="132" y="236" type="curve" smooth="yes"/>
      <point x="132" y="363"/>
      <point x="222" y="504"/>
      <point x="390" y="504" type="curve" smooth="yes"/>
      <point x="412" y="504"/>
      <point x="453" y="492"/>
      <point x="477" y="475" type="curve" smooth="yes"/>
      <point x="477" y="474"/>
      <point x="469" y="445"/>
      <point x="465" y="444" type="curve"/>
      <point x="445" y="455"/>
      <point x="411" y="462"/>
      <point x="385" y="462" type="curve" smooth="yes"/>
      <point x="272" y="462"/>
      <point x="193" y="377"/>
      <point x="193" y="239" type="curve" smooth="yes"/>
      <point x="193" y="167"/>
      <point x="241" y="85"/>
      <point x="352" y="84" type="curve" smooth="yes"/>
      <point x="392" y="84"/>
      <point x="437" y="99"/>
      <point x="483" y="122" type="curve"/>
      <point x="488" y="118"/>
      <point x="492" y="101"/>
      <point x="494" y="90" type="curve"/>
      <point x="452" y="67"/>
      <point x="382" y="37"/>
    </contour>
  </outline>
</glyph>
<glyph name="ordfeminine" format="1">
  <advance width="400"/>
  <unicode hex="00AA"/>
  <outline>
    <contour>
      <point x="399" y="585" type="curve"/>
      <point x="366" y="549"/>
      <point x="320" y="298"/>
      <point x="328" y="236" type="curve"/>
      <point x="308" y="238"/>
      <point x="275" y="241"/>
      <point x="246" y="236" type="curve"/>
      <point x="246" y="254"/>
      <point x="263" y="329"/>
      <point x="271" y="365" type="curve"/>
      <point x="220" y="320"/>
      <point x="158" y="272"/>
      <point x="100" y="226" type="curve"/>
      <point x="81" y="239"/>
      <point x="64" y="280"/>
      <point x="64" y="324" type="curve" smooth="yes"/>
      <point x="64" y="404"/>
      <point x="97" y="491"/>
      <point x="171" y="544" type="curve" smooth="yes"/>
      <point x="215" y="576"/>
      <point x="256" y="585"/>
      <point x="288" y="586" type="curve" smooth="yes"/>
      <point x="327" y="587"/>
      <point x="367" y="587"/>
    </contour>
    <contour>
      <point x="310" y="546" type="curve"/>
      <point x="272" y="550"/>
      <point x="231" y="541"/>
      <point x="199" y="514" type="curve" smooth="yes"/>
      <point x="150" y="473"/>
      <point x="132" y="418"/>
      <point x="132" y="371" type="curve" smooth="yes"/>
      <point x="132" y="349"/>
      <point x="135" y="333"/>
      <point x="146" y="314" type="curve"/>
      <point x="174" y="333"/>
      <point x="265" y="403"/>
      <point x="283" y="421" type="curve"/>
      <point x="291" y="444"/>
      <point x="310" y="516"/>
    </contour>
  </outline>
</glyph>
<glyph name="guillemotleft" format="1">
  <advance width="336"/>
  <unicode hex="00AB"/>
  <outline>
    <contour>
      <point x="133" y="57" type="curve"/>
      <point x="127" y="52"/>
      <point x="114" y="47"/>
      <point x="104" y="44" type="curve"/>
      <point x="89" y="86"/>
      <point x="65" y="135"/>
      <point x="35" y="188" type="curve"/>
      <point x="71" y="228"/>
      <point x="124" y="291"/>
      <point x="154" y="334" type="curve"/>
      <point x="163" y="332"/>
      <point x="175" y="327"/>
      <point x="181" y="320" type="curve"/>
      <point x="151" y="271"/>
      <point x="127" y="231"/>
      <point x="111" y="189" type="curve"/>
      <point x="113" y="148"/>
      <point x="121" y="108"/>
    </contour>
    <contour>
      <point x="268" y="57" type="curve"/>
      <point x="261" y="52"/>
      <point x="249" y="47"/>
      <point x="239" y="44" type="curve"/>
      <point x="224" y="86"/>
      <point x="199" y="135"/>
      <point x="170" y="188" type="curve"/>
      <point x="205" y="228"/>
      <point x="258" y="291"/>
      <point x="289" y="334" type="curve"/>
      <point x="297" y="332"/>
      <point x="309" y="327"/>
      <point x="315" y="320" type="curve"/>
      <point x="286" y="271"/>
      <point x="261" y="231"/>
      <point x="245" y="189" type="curve"/>
      <point x="248" y="148"/>
      <point x="255" y="108"/>
    </contour>
  </outline>
</glyph>
<glyph name="logicalnot" format="1">
  <advance width="416"/>
  <unicode hex="00AC"/>
  <outline>
    <contour>
      <point x="38" y="274" type="curve"/>
      <point x="139" y="272"/>
      <point x="280" y="273"/>
      <point x="355" y="273" type="curve"/>
      <point x="353" y="222"/>
      <point x="353" y="172"/>
      <point x="354" y="122" type="curve"/>
      <point x="343" y="118"/>
      <point x="328" y="118"/>
      <point x="317" y="118" type="curve"/>
      <point x="318" y="158"/>
      <point x="318" y="197"/>
      <point x="318" y="236" type="curve"/>
      <point x="231" y="237"/>
      <point x="149" y="238"/>
      <point x="35" y="237" type="curve"/>
      <point x="32" y="246"/>
      <point x="36" y="268"/>
    </contour>
  </outline>
</glyph>
<glyph name="uni00AD" format="1">
  <advance width="0"/>
  <unicode hex="00AD"/>
  <outline>
    <contour>
      <point x="-87" y="271" type="curve"/>
      <point x="-57" y="274"/>
      <point x="61" y="293"/>
      <point x="83" y="298" type="curve"/>
      <point x="85" y="286"/>
      <point x="89" y="266"/>
      <point x="83" y="247" type="curve"/>
      <point x="59" y="246"/>
      <point x="-57" y="229"/>
      <point x="-84" y="223" type="curve"/>
      <point x="-88" y="233"/>
      <point x="-88" y="260"/>
    </contour>
  </outline>
</glyph>
<glyph name="registered" format="1">
  <advance width="697"/>
  <unicode hex="00AE"/>
  <outline>
    <contour>
      <point x="7" y="269" type="curve" smooth="yes"/>
      <point x="7" y="453"/>
      <point x="156" y="602"/>
      <point x="340" y="602" type="curve" smooth="yes"/>
      <point x="524" y="602"/>
      <point x="673" y="453"/>
      <point x="673" y="269" type="curve" smooth="yes"/>
      <point x="673" y="85"/>
      <point x="524" y="-64"/>
      <point x="340" y="-64" type="curve" smooth="yes"/>
      <point x="156" y="-64"/>
      <point x="7" y="85"/>
    </contour>
    <contour>
      <point x="46" y="268" type="curve" smooth="yes"/>
      <point x="46" y="107"/>
      <point x="179" y="-28"/>
      <point x="340" y="-28" type="curve" smooth="yes"/>
      <point x="415" y="-28"/>
      <point x="484" y="0"/>
      <point x="537" y="47" type="curve"/>
      <point x="518" y="48"/>
      <point x="481" y="49"/>
      <point x="461" y="44" type="curve"/>
      <point x="428" y="98"/>
      <point x="341" y="246"/>
      <point x="295" y="305" type="curve"/>
      <point x="298" y="310"/>
      <point x="303" y="317"/>
      <point x="307" y="318" type="curve" smooth="yes"/>
      <point x="361" y="327"/>
      <point x="403" y="364"/>
      <point x="403" y="404" type="curve" smooth="yes"/>
      <point x="403" y="462"/>
      <point x="318" y="455"/>
      <point x="257" y="455" type="curve"/>
      <point x="251" y="380"/>
      <point x="253" y="191"/>
      <point x="259" y="48" type="curve"/>
      <point x="236" y="51"/>
      <point x="214" y="53"/>
      <point x="191" y="45" type="curve"/>
      <point x="203" y="131"/>
      <point x="198" y="436"/>
      <point x="194" y="492" type="curve"/>
      <point x="213" y="489"/>
      <point x="257" y="491"/>
      <point x="283" y="491" type="curve" smooth="yes"/>
      <point x="342" y="491"/>
      <point x="469" y="500"/>
      <point x="469" y="419" type="curve" smooth="yes"/>
      <point x="469" y="383"/>
      <point x="431" y="333"/>
      <point x="368" y="307" type="curve"/>
      <point x="412" y="230"/>
      <point x="489" y="110"/>
      <point x="543" y="53" type="curve"/>
      <point x="600" y="107"/>
      <point x="636" y="184"/>
      <point x="636" y="268" type="curve" smooth="yes"/>
      <point x="636" y="431"/>
      <point x="503" y="567"/>
      <point x="340" y="567" type="curve" smooth="yes"/>
      <point x="179" y="567"/>
      <point x="46" y="431"/>
    </contour>
  </outline>
</glyph>
<glyph name="macron" format="1">
  <advance width="416"/>
  <unicode hex="00AF"/>
  <outline>
    <contour>
      <point x="125" y="503" type="curve"/>
      <point x="226" y="500"/>
      <point x="282" y="500"/>
      <point x="357" y="501" type="curve"/>
      <point x="358" y="490"/>
      <point x="356" y="474"/>
      <point x="351" y="464" type="curve"/>
      <point x="255" y="467"/>
      <point x="246" y="467"/>
      <point x="122" y="467" type="curve"/>
      <point x="118" y="475"/>
      <point x="122" y="497"/>
    </contour>
  </outline>
</glyph>
<glyph name="degree" format="1">
  <advance width="338"/>
  <unicode hex="00B0"/>
  <outline>
    <contour>
      <point x="88" y="477" type="curve" smooth="yes"/>
      <point x="88" y="540"/>
      <point x="145" y="597"/>
      <point x="208" y="597" type="curve" smooth="yes"/>
      <point x="274" y="597"/>
      <point x="327" y="553"/>
      <point x="327" y="477" type="curve" smooth="yes"/>
      <point x="327" y="414"/>
      <point x="270" y="358"/>
      <point x="207" y="358" type="curve" smooth="yes"/>
      <point x="141" y="358"/>
      <point x="88" y="403"/>
    </contour>
    <contour>
      <point x="129" y="478" type="curve" smooth="yes"/>
      <point x="129" y="433"/>
      <point x="159" y="397"/>
      <point x="207" y="397" type="curve" smooth="yes"/>
      <point x="252" y="397"/>
      <point x="286" y="433"/>
      <point x="286" y="478" type="curve" smooth="yes"/>
      <point x="286" y="525"/>
      <point x="252" y="558"/>
      <point x="207" y="558" type="curve" smooth="yes"/>
      <point x="162" y="558"/>
      <point x="129" y="523"/>
    </contour>
  </outline>
</glyph>
<glyph name="plusminus" format="1">
  <advance width="416"/>
  <unicode hex="00B1"/>
  <outline>
    <contour>
      <point x="38" y="62" type="curve"/>
      <point x="181" y="60" type="line"/>
      <point x="182" y="102"/>
      <point x="183" y="148"/>
      <point x="183" y="191" type="curve"/>
      <point x="137" y="192"/>
      <point x="90" y="192"/>
      <point x="35" y="191" type="curve"/>
      <point x="32" y="200"/>
      <point x="36" y="218"/>
      <point x="38" y="224" type="curve"/>
      <point x="82" y="222"/>
      <point x="133" y="221"/>
      <point x="183" y="221" type="curve"/>
      <point x="184" y="271"/>
      <point x="184" y="317"/>
      <point x="183" y="365" type="curve"/>
      <point x="191" y="367"/>
      <point x="209" y="367"/>
      <point x="215" y="366" type="curve"/>
      <point x="213" y="317"/>
      <point x="213" y="271"/>
      <point x="213" y="221" type="curve"/>
      <point x="266" y="221"/>
      <point x="319" y="221"/>
      <point x="354" y="222" type="curve"/>
      <point x="355" y="211"/>
      <point x="353" y="199"/>
      <point x="348" y="189" type="curve"/>
      <point x="303" y="191"/>
      <point x="260" y="191"/>
      <point x="213" y="191" type="curve"/>
      <point x="213" y="60" type="line"/>
      <point x="266" y="60"/>
      <point x="319" y="60"/>
      <point x="354" y="61" type="curve"/>
      <point x="355" y="50"/>
      <point x="353" y="37"/>
      <point x="348" y="27" type="curve"/>
      <point x="251" y="30"/>
      <point x="160" y="31"/>
      <point x="35" y="30" type="curve"/>
      <point x="32" y="38"/>
      <point x="36" y="57"/>
    </contour>
  </outline>
</glyph>
<glyph name="twosuperior" format="1">
  <advance width="327"/>
  <unicode hex="00B2"/>
  <outline>
    <contour>
      <point x="115" y="566" type="curve"/>
      <point x="151" y="580"/>
      <point x="196" y="590"/>
      <point x="227" y="590" type="curve"/>
      <point x="263" y="592"/>
      <point x="302" y="572"/>
      <point x="302" y="531" type="curve" smooth="yes"/>
      <point x="302" y="479"/>
      <point x="219" y="379"/>
      <point x="145" y="310" type="curve"/>
      <point x="184" y="296"/>
      <point x="261" y="290"/>
      <point x="300" y="299" type="curve"/>
      <point x="286" y="280"/>
      <point x="274" y="242"/>
      <point x="272" y="231" type="curve"/>
      <point x="213" y="229"/>
      <point x="139" y="241"/>
      <point x="97" y="260" type="curve"/>
      <point x="78" y="249"/>
      <point x="69" y="243"/>
      <point x="51" y="230" type="curve"/>
      <point x="48" y="230"/>
      <point x="38" y="246"/>
      <point x="36" y="250" type="curve"/>
      <point x="104" y="310"/>
      <point x="234" y="422"/>
      <point x="234" y="520" type="curve" smooth="yes"/>
      <point x="234" y="544"/>
      <point x="215" y="553"/>
      <point x="191" y="553" type="curve" smooth="yes"/>
      <point x="171" y="553"/>
      <point x="140" y="548"/>
      <point x="119" y="543" type="curve"/>
      <point x="116" y="547"/>
      <point x="115" y="561"/>
    </contour>
  </outline>
</glyph>
<glyph name="threesuperior" format="1">
  <advance width="288"/>
  <unicode hex="00B3"/>
  <outline>
    <contour>
      <point x="98" y="572" type="curve"/>
      <point x="127" y="581"/>
      <point x="171" y="590"/>
      <point x="196" y="590" type="curve" smooth="yes"/>
      <point x="234" y="590"/>
      <point x="282" y="578"/>
      <point x="282" y="538" type="curve" smooth="yes"/>
      <point x="282" y="503"/>
      <point x="246" y="476"/>
      <point x="196" y="453" type="curve"/>
      <point x="253" y="453"/>
      <point x="278" y="429"/>
      <point x="278" y="385" type="curve" smooth="yes"/>
      <point x="278" y="315"/>
      <point x="148" y="237"/>
      <point x="52" y="214" type="curve"/>
      <point x="43" y="222"/>
      <point x="38" y="230"/>
      <point x="35" y="238" type="curve"/>
      <point x="120" y="261"/>
      <point x="211" y="325"/>
      <point x="211" y="380" type="curve" smooth="yes"/>
      <point x="211" y="414"/>
      <point x="189" y="430"/>
      <point x="156" y="430" type="curve" smooth="yes"/>
      <point x="139" y="430"/>
      <point x="134" y="428"/>
      <point x="126" y="427" type="curve"/>
      <point x="123" y="430"/>
      <point x="122" y="449"/>
      <point x="122" y="453" type="curve"/>
      <point x="179" y="465"/>
      <point x="219" y="489"/>
      <point x="219" y="530" type="curve" smooth="yes"/>
      <point x="219" y="549"/>
      <point x="202" y="558"/>
      <point x="174" y="558" type="curve" smooth="yes"/>
      <point x="156" y="558"/>
      <point x="123" y="551"/>
      <point x="104" y="546" type="curve"/>
      <point x="101" y="551"/>
      <point x="99" y="565"/>
    </contour>
  </outline>
</glyph>
<glyph name="acute" format="1">
  <advance width="416"/>
  <unicode hex="00B4"/>
  <outline>
    <contour>
      <point x="330" y="569" type="curve"/>
      <point x="330" y="551"/>
      <point x="333" y="523"/>
      <point x="340" y="504" type="curve"/>
      <point x="269" y="491"/>
      <point x="219" y="477"/>
      <point x="152" y="457" type="curve"/>
      <point x="145" y="483" type="line"/>
      <point x="208" y="508"/>
      <point x="289" y="547"/>
    </contour>
  </outline>
</glyph>
<glyph name="mu" format="1">
  <advance width="403"/>
  <unicode hex="00B5"/>
  <unicode hex="03bc"/>
  <outline>
    <contour>
      <point x="311" y="-1" type="curve"/>
      <point x="295" y="2"/>
      <point x="259" y="2"/>
      <point x="227" y="-2" type="curve"/>
      <point x="239" y="31"/>
      <point x="249" y="65"/>
      <point x="264" y="141" type="curve"/>
      <point x="205" y="83"/>
      <point x="166" y="50"/>
      <point x="92" y="-17" type="curve"/>
      <point x="82" y="-10"/>
      <point x="68" y="5"/>
      <point x="59" y="27" type="curve"/>
      <point x="45" y="-94"/>
      <point x="38" y="-224"/>
      <point x="40" y="-261" type="curve"/>
      <point x="13" y="-263"/>
      <point x="-13" y="-266"/>
      <point x="-43" y="-271" type="curve"/>
      <point x="-15" y="-149"/>
      <point x="71" y="231"/>
      <point x="90" y="385" type="curve"/>
      <point x="112" y="380"/>
      <point x="139" y="382"/>
      <point x="172" y="385" type="curve"/>
      <point x="143" y="316"/>
      <point x="127" y="230"/>
      <point x="115" y="166" type="curve" smooth="yes"/>
      <point x="105" y="110"/>
      <point x="113" y="82"/>
      <point x="126" y="63" type="curve"/>
      <point x="179" y="106"/>
      <point x="216" y="138"/>
      <point x="274" y="194" type="curve"/>
      <point x="285" y="237"/>
      <point x="303" y="325"/>
      <point x="310" y="386" type="curve"/>
      <point x="329" y="382"/>
      <point x="360" y="380"/>
      <point x="390" y="385" type="curve"/>
      <point x="358" y="317"/>
      <point x="305" y="61"/>
    </contour>
  </outline>
</glyph>
<glyph name="paragraph" format="1">
  <advance width="522"/>
  <unicode hex="00B6"/>
  <outline>
    <contour>
      <point x="419" y="-1" type="curve"/>
      <point x="333" y="0" type="line"/>
      <point x="380" y="206"/>
      <point x="404" y="360"/>
      <point x="427" y="547" type="curve"/>
      <point x="421" y="548"/>
      <point x="407" y="549"/>
      <point x="393" y="549" type="curve"/>
      <point x="352" y="341"/>
      <point x="330" y="211"/>
      <point x="295" y="0" type="curve"/>
      <point x="284" y="1"/>
      <point x="266" y="2"/>
      <point x="254" y="-1" type="curve"/>
      <point x="295" y="196"/>
      <point x="320" y="342"/>
      <point x="356" y="550" type="curve"/>
      <point x="284" y="549"/>
      <point x="150" y="520"/>
      <point x="133" y="392" type="curve"/>
      <point x="124" y="339"/>
      <point x="159" y="318"/>
      <point x="192" y="318" type="curve" smooth="yes"/>
      <point x="218" y="318"/>
      <point x="243" y="325"/>
      <point x="259" y="331" type="curve"/>
      <point x="263" y="325"/>
      <point x="265" y="310"/>
      <point x="265" y="302" type="curve"/>
      <point x="236" y="290"/>
      <point x="208" y="281"/>
      <point x="173" y="281" type="curve" smooth="yes"/>
      <point x="76" y="281"/>
      <point x="51" y="332"/>
      <point x="51" y="377" type="curve" smooth="yes"/>
      <point x="51" y="475"/>
      <point x="186" y="576"/>
      <point x="368" y="584" type="curve"/>
      <point x="403" y="584"/>
      <point x="476" y="587"/>
      <point x="514" y="583" type="curve"/>
      <point x="489" y="508"/>
      <point x="419" y="81"/>
    </contour>
  </outline>
</glyph>
<glyph name="periodcentered" format="1">
  <advance width="144"/>
  <unicode hex="00B7"/>
  <outline>
    <contour>
      <point x="76" y="325" type="curve" smooth="yes"/>
      <point x="103" y="325"/>
      <point x="117" y="313"/>
      <point x="117" y="294" type="curve" smooth="yes"/>
      <point x="117" y="270"/>
      <point x="87" y="256"/>
      <point x="61" y="256" type="curve" smooth="yes"/>
      <point x="41" y="256"/>
      <point x="25" y="266"/>
      <point x="25" y="284" type="curve" smooth="yes"/>
      <point x="25" y="305"/>
      <point x="50" y="325"/>
    </contour>
  </outline>
</glyph>
<glyph name="cedilla" format="1">
  <advance width="416"/>
  <unicode hex="00B8"/>
  <outline>
    <contour>
      <point x="74" y="-64" type="curve"/>
      <point x="105" y="-37"/>
      <point x="124" y="-17"/>
      <point x="156" y="13" type="curve"/>
      <point x="156" y="13"/>
      <point x="181" y="5"/>
      <point x="184" y="-3" type="curve"/>
      <point x="174" y="-12"/>
      <point x="151" y="-30"/>
      <point x="141" y="-42" type="curve"/>
      <point x="207" y="-47"/>
      <point x="229" y="-76"/>
      <point x="229" y="-118" type="curve" smooth="yes"/>
      <point x="229" y="-152"/>
      <point x="171" y="-213"/>
      <point x="134" y="-241" type="curve"/>
      <point x="124" y="-236"/>
      <point x="117" y="-231"/>
      <point x="114" y="-224" type="curve"/>
      <point x="142" y="-197"/>
      <point x="170" y="-164"/>
      <point x="170" y="-139" type="curve" smooth="yes"/>
      <point x="170" y="-110"/>
      <point x="146" y="-82"/>
      <point x="87" y="-86" type="curve"/>
      <point x="82" y="-82"/>
      <point x="77" y="-70"/>
    </contour>
  </outline>
</glyph>
<glyph name="onesuperior" format="1">
  <advance width="257"/>
  <unicode hex="00B9"/>
  <outline>
    <contour>
      <point x="103" y="229" type="curve"/>
      <point x="134" y="322"/>
      <point x="159" y="471"/>
      <point x="167" y="530" type="curve"/>
      <point x="138" y="529"/>
      <point x="112" y="524"/>
      <point x="82" y="518" type="curve"/>
      <point x="80" y="526"/>
      <point x="78" y="535"/>
      <point x="78" y="545" type="curve"/>
      <point x="106" y="552"/>
      <point x="196" y="576"/>
      <point x="233" y="591" type="curve"/>
      <point x="239" y="589"/>
      <point x="244" y="588"/>
      <point x="249" y="584" type="curve"/>
      <point x="227" y="522"/>
      <point x="198" y="360"/>
      <point x="190" y="236" type="curve"/>
      <point x="166" y="236"/>
      <point x="127" y="234"/>
    </contour>
  </outline>
</glyph>
<glyph name="ordmasculine" format="1">
  <advance width="305"/>
  <unicode hex="00BA"/>
  <outline>
    <contour>
      <point x="135" y="218" type="curve"/>
      <point x="86" y="242"/>
      <point x="57" y="309"/>
      <point x="59" y="359" type="curve" smooth="yes"/>
      <point x="63" y="473"/>
      <point x="145" y="549"/>
      <point x="236" y="603" type="curve"/>
      <point x="287" y="572"/>
      <point x="303" y="515"/>
      <point x="302" y="464" type="curve" smooth="yes"/>
      <point x="299" y="361"/>
      <point x="219" y="272"/>
    </contour>
    <contour>
      <point x="118" y="400" type="curve" smooth="yes"/>
      <point x="117" y="365"/>
      <point x="124" y="323"/>
      <point x="161" y="288" type="curve"/>
      <point x="215" y="326"/>
      <point x="241" y="377"/>
      <point x="241" y="437" type="curve" smooth="yes"/>
      <point x="241" y="485"/>
      <point x="223" y="521"/>
      <point x="205" y="538" type="curve"/>
      <point x="160" y="511"/>
      <point x="119" y="457"/>
    </contour>
  </outline>
</glyph>
<glyph name="guillemotright" format="1">
  <advance width="336"/>
  <unicode hex="00BB"/>
  <outline>
    <contour>
      <point x="207" y="321" type="curve"/>
      <point x="213" y="326"/>
      <point x="226" y="331"/>
      <point x="236" y="334" type="curve"/>
      <point x="251" y="292"/>
      <point x="275" y="243"/>
      <point x="305" y="190" type="curve"/>
      <point x="269" y="150"/>
      <point x="216" y="87"/>
      <point x="186" y="44" type="curve"/>
      <point x="177" y="46"/>
      <point x="165" y="51"/>
      <point x="159" y="58" type="curve"/>
      <point x="189" y="107"/>
      <point x="213" y="147"/>
      <point x="229" y="189" type="curve"/>
      <point x="227" y="230"/>
      <point x="219" y="270"/>
    </contour>
    <contour>
      <point x="72" y="321" type="curve"/>
      <point x="79" y="326"/>
      <point x="91" y="331"/>
      <point x="101" y="334" type="curve"/>
      <point x="116" y="292"/>
      <point x="141" y="243"/>
      <point x="170" y="190" type="curve"/>
      <point x="135" y="150"/>
      <point x="82" y="87"/>
      <point x="51" y="44" type="curve"/>
      <point x="43" y="46"/>
      <point x="31" y="51"/>
      <point x="25" y="58" type="curve"/>
      <point x="54" y="107"/>
      <point x="79" y="147"/>
      <point x="95" y="189" type="curve"/>
      <point x="92" y="230"/>
      <point x="85" y="270"/>
    </contour>
  </outline>
</glyph>
<glyph name="onequarter" format="1">
  <advance width="697"/>
  <unicode hex="00BC"/>
  <outline>
    <contour>
      <point x="517" y="-2" type="curve"/>
      <point x="529" y="27"/>
      <point x="540" y="70"/>
      <point x="547" y="115" type="curve"/>
      <point x="499" y="117"/>
      <point x="434" y="117"/>
      <point x="398" y="116" type="curve"/>
      <point x="395" y="119"/>
      <point x="392" y="132"/>
      <point x="392" y="137" type="curve"/>
      <point x="449" y="201"/>
      <point x="547" y="320"/>
      <point x="590" y="374" type="curve"/>
      <point x="595" y="371"/>
      <point x="606" y="361"/>
      <point x="610" y="353" type="curve"/>
      <point x="556" y="289"/>
      <point x="496" y="212"/>
      <point x="448" y="146" type="curve"/>
      <point x="485" y="145"/>
      <point x="519" y="144"/>
      <point x="550" y="144" type="curve"/>
      <point x="556" y="166"/>
      <point x="561" y="199"/>
      <point x="562" y="231" type="curve"/>
      <point x="578" y="231"/>
      <point x="623" y="237"/>
      <point x="641" y="246" type="curve"/>
      <point x="631" y="222"/>
      <point x="626" y="194"/>
      <point x="615" y="145" type="curve"/>
      <point x="624" y="145"/>
      <point x="633" y="145"/>
      <point x="643" y="146" type="curve"/>
      <point x="643" y="136"/>
      <point x="640" y="122"/>
      <point x="636" y="113" type="curve"/>
      <point x="610" y="113" type="line"/>
      <point x="605" y="92"/>
      <point x="597" y="32"/>
      <point x="597" y="0" type="curve"/>
      <point x="582" y="2"/>
      <point x="537" y="4"/>
    </contour>
    <contour>
      <point x="103" y="229" type="curve"/>
      <point x="134" y="322"/>
      <point x="159" y="471"/>
      <point x="167" y="530" type="curve"/>
      <point x="138" y="529"/>
      <point x="112" y="524"/>
      <point x="82" y="518" type="curve"/>
      <point x="80" y="526"/>
      <point x="78" y="535"/>
      <point x="78" y="545" type="curve"/>
      <point x="106" y="552"/>
      <point x="196" y="576"/>
      <point x="233" y="591" type="curve"/>
      <point x="239" y="589"/>
      <point x="244" y="588"/>
      <point x="249" y="584" type="curve"/>
      <point x="227" y="522"/>
      <point x="198" y="360"/>
      <point x="190" y="236" type="curve"/>
      <point x="166" y="236"/>
      <point x="127" y="234"/>
    </contour>
    <contour>
      <point x="619" y="593" type="curve"/>
      <point x="469" y="422"/>
      <point x="234" y="151"/>
      <point x="90" y="-20" type="curve"/>
      <point x="80" y="-18"/>
      <point x="66" y="-17"/>
      <point x="58" y="-8" type="curve"/>
      <point x="206" y="163"/>
      <point x="443" y="434"/>
      <point x="586" y="605" type="curve"/>
      <point x="596" y="603"/>
      <point x="615" y="598"/>
    </contour>
  </outline>
</glyph>
<glyph name="onehalf" format="1">
  <advance width="704"/>
  <unicode hex="00BD"/>
  <outline>
    <contour>
      <point x="470" y="330" type="curve"/>
      <point x="506" y="344"/>
      <point x="551" y="354"/>
      <point x="582" y="354" type="curve"/>
      <point x="618" y="356"/>
      <point x="657" y="336"/>
      <point x="657" y="295" type="curve" smooth="yes"/>
      <point x="657" y="243"/>
      <point x="574" y="143"/>
      <point x="500" y="74" type="curve"/>
      <point x="539" y="60"/>
      <point x="616" y="54"/>
      <point x="655" y="63" type="curve"/>
      <point x="641" y="44"/>
      <point x="629" y="6"/>
      <point x="627" y="-5" type="curve"/>
      <point x="568" y="-7"/>
      <point x="494" y="5"/>
      <point x="452" y="24" type="curve"/>
      <point x="433" y="13"/>
      <point x="424" y="7"/>
      <point x="406" y="-6" type="curve"/>
      <point x="403" y="-6"/>
      <point x="393" y="10"/>
      <point x="391" y="14" type="curve"/>
      <point x="459" y="74"/>
      <point x="589" y="186"/>
      <point x="589" y="284" type="curve" smooth="yes"/>
      <point x="589" y="308"/>
      <point x="570" y="317"/>
      <point x="546" y="317" type="curve" smooth="yes"/>
      <point x="526" y="317"/>
      <point x="495" y="312"/>
      <point x="474" y="307" type="curve"/>
      <point x="471" y="311"/>
      <point x="470" y="325"/>
    </contour>
    <contour>
      <point x="103" y="229" type="curve"/>
      <point x="134" y="322"/>
      <point x="159" y="471"/>
      <point x="167" y="530" type="curve"/>
      <point x="138" y="529"/>
      <point x="112" y="524"/>
      <point x="82" y="518" type="curve"/>
      <point x="80" y="526"/>
      <point x="78" y="535"/>
      <point x="78" y="545" type="curve"/>
      <point x="106" y="552"/>
      <point x="196" y="576"/>
      <point x="233" y="591" type="curve"/>
      <point x="239" y="589"/>
      <point x="244" y="588"/>
      <point x="249" y="584" type="curve"/>
      <point x="227" y="522"/>
      <point x="198" y="360"/>
      <point x="190" y="236" type="curve"/>
      <point x="166" y="236"/>
      <point x="127" y="234"/>
    </contour>
    <contour>
      <point x="616" y="593" type="curve"/>
      <point x="466" y="422"/>
      <point x="231" y="151"/>
      <point x="87" y="-20" type="curve"/>
      <point x="77" y="-18"/>
      <point x="63" y="-17"/>
      <point x="55" y="-8" type="curve"/>
      <point x="203" y="163"/>
      <point x="440" y="434"/>
      <point x="583" y="605" type="curve"/>
      <point x="593" y="603"/>
      <point x="612" y="598"/>
    </contour>
  </outline>
</glyph>
<glyph name="threequarters" format="1">
  <advance width="686"/>
  <unicode hex="00BE"/>
  <outline>
    <contour>
      <point x="530" y="-2" type="curve"/>
      <point x="542" y="27"/>
      <point x="553" y="70"/>
      <point x="560" y="115" type="curve"/>
      <point x="512" y="117"/>
      <point x="448" y="117"/>
      <point x="411" y="116" type="curve"/>
      <point x="409" y="119"/>
      <point x="405" y="132"/>
      <point x="405" y="137" type="curve"/>
      <point x="462" y="201"/>
      <point x="561" y="320"/>
      <point x="603" y="374" type="curve"/>
      <point x="608" y="371"/>
      <point x="620" y="361"/>
      <point x="623" y="353" type="curve"/>
      <point x="570" y="289"/>
      <point x="509" y="212"/>
      <point x="461" y="146" type="curve"/>
      <point x="499" y="145"/>
      <point x="532" y="144"/>
      <point x="563" y="144" type="curve"/>
      <point x="569" y="166"/>
      <point x="574" y="199"/>
      <point x="575" y="231" type="curve"/>
      <point x="591" y="231"/>
      <point x="637" y="237"/>
      <point x="654" y="246" type="curve"/>
      <point x="644" y="222"/>
      <point x="639" y="194"/>
      <point x="628" y="145" type="curve"/>
      <point x="638" y="145"/>
      <point x="646" y="145"/>
      <point x="657" y="146" type="curve"/>
      <point x="656" y="136"/>
      <point x="653" y="122"/>
      <point x="649" y="113" type="curve"/>
      <point x="623" y="113" type="line"/>
      <point x="618" y="92"/>
      <point x="610" y="32"/>
      <point x="610" y="0" type="curve"/>
      <point x="595" y="2"/>
      <point x="550" y="4"/>
    </contour>
    <contour>
      <point x="98" y="572" type="curve"/>
      <point x="127" y="581"/>
      <point x="171" y="590"/>
      <point x="196" y="590" type="curve" smooth="yes"/>
      <point x="234" y="590"/>
      <point x="282" y="578"/>
      <point x="282" y="538" type="curve" smooth="yes"/>
      <point x="282" y="503"/>
      <point x="246" y="476"/>
      <point x="196" y="453" type="curve"/>
      <point x="253" y="453"/>
      <point x="278" y="429"/>
      <point x="278" y="385" type="curve" smooth="yes"/>
      <point x="278" y="315"/>
      <point x="148" y="237"/>
      <point x="52" y="214" type="curve"/>
      <point x="43" y="222"/>
      <point x="38" y="230"/>
      <point x="35" y="238" type="curve"/>
      <point x="120" y="261"/>
      <point x="211" y="325"/>
      <point x="211" y="380" type="curve" smooth="yes"/>
      <point x="211" y="414"/>
      <point x="189" y="430"/>
      <point x="156" y="430" type="curve" smooth="yes"/>
      <point x="139" y="430"/>
      <point x="134" y="428"/>
      <point x="126" y="427" type="curve"/>
      <point x="123" y="430"/>
      <point x="122" y="449"/>
      <point x="122" y="453" type="curve"/>
      <point x="179" y="465"/>
      <point x="219" y="489"/>
      <point x="219" y="530" type="curve" smooth="yes"/>
      <point x="219" y="549"/>
      <point x="202" y="558"/>
      <point x="174" y="558" type="curve" smooth="yes"/>
      <point x="156" y="558"/>
      <point x="123" y="551"/>
      <point x="104" y="546" type="curve"/>
      <point x="101" y="551"/>
      <point x="99" y="565"/>
    </contour>
    <contour>
      <point x="631" y="593" type="curve"/>
      <point x="481" y="422"/>
      <point x="246" y="151"/>
      <point x="102" y="-20" type="curve"/>
      <point x="92" y="-18"/>
      <point x="78" y="-17"/>
      <point x="70" y="-8" type="curve"/>
      <point x="218" y="163"/>
      <point x="455" y="434"/>
      <point x="598" y="605" type="curve"/>
      <point x="608" y="603"/>
      <point x="627" y="598"/>
    </contour>
  </outline>
</glyph>
<glyph name="questiondown" format="1">
  <advance width="240"/>
  <unicode hex="00BF"/>
  <outline>
    <contour>
      <point x="144" y="321" type="curve" smooth="yes"/>
      <point x="116" y="321"/>
      <point x="102" y="333"/>
      <point x="102" y="352" type="curve" smooth="yes"/>
      <point x="103" y="377"/>
      <point x="133" y="391"/>
      <point x="160" y="391" type="curve" smooth="yes"/>
      <point x="180" y="391"/>
      <point x="196" y="380"/>
      <point x="195" y="362" type="curve"/>
      <point x="195" y="341"/>
      <point x="170" y="321"/>
    </contour>
    <contour>
      <point x="136" y="240" type="curve"/>
      <point x="145" y="219"/>
      <point x="166" y="161"/>
      <point x="165" y="123" type="curve" smooth="yes"/>
      <point x="163" y="68"/>
      <point x="82" y="27"/>
      <point x="80" y="-34" type="curve" smooth="yes"/>
      <point x="78" y="-89"/>
      <point x="105" y="-154"/>
      <point x="123" y="-196" type="curve"/>
      <point x="115" y="-203"/>
      <point x="100" y="-210"/>
      <point x="92" y="-211" type="curve"/>
      <point x="77" y="-179"/>
      <point x="24" y="-55"/>
      <point x="26" y="-15" type="curve"/>
      <point x="28" y="78"/>
      <point x="113" y="87"/>
      <point x="116" y="181" type="curve" smooth="yes"/>
      <point x="116" y="201"/>
      <point x="111" y="215"/>
      <point x="107" y="228" type="curve"/>
      <point x="115" y="233"/>
      <point x="126" y="240"/>
    </contour>
  </outline>
</glyph>
<glyph name="Agrave" format="1">
  <advance width="526"/>
  <unicode hex="00C0"/>
  <outline>
    <contour>
      <point x="375" y="-1" type="curve"/>
      <point x="382" y="22"/>
      <point x="367" y="145"/>
      <point x="358" y="235" type="curve"/>
      <point x="299" y="229"/>
      <point x="213" y="221"/>
      <point x="167" y="211" type="curve"/>
      <point x="132" y="146"/>
      <point x="94" y="63"/>
      <point x="76" y="6" type="curve"/>
      <point x="50" y="2"/>
      <point x="-5" y="-3"/>
      <point x="-28" y="-10" type="curve"/>
      <point x="38" y="59"/>
      <point x="331" y="567"/>
      <point x="324" y="578" type="curve"/>
      <point x="340" y="588"/>
      <point x="370" y="598"/>
      <point x="382" y="603" type="curve"/>
      <point x="391" y="460"/>
      <point x="431" y="103"/>
      <point x="479" y="-1" type="curve"/>
      <point x="420" y="5"/>
      <point x="406" y="1"/>
    </contour>
    <contour>
      <point x="355" y="267" type="curve"/>
      <point x="356" y="270"/>
      <point x="337" y="426"/>
      <point x="324" y="497" type="curve"/>
      <point x="276" y="417"/>
      <point x="233" y="336"/>
      <point x="189" y="254" type="curve"/>
      <point x="248" y="257"/>
      <point x="295" y="261"/>
    </contour>
    <contour>
      <point x="280" y="748" type="curve"/>
      <point x="314" y="726"/>
      <point x="382" y="691"/>
      <point x="437" y="663" type="curve"/>
      <point x="427" y="640" type="line"/>
      <point x="366" y="660"/>
      <point x="320" y="671"/>
      <point x="253" y="685" type="curve"/>
      <point x="264" y="703"/>
      <point x="275" y="730"/>
    </contour>
  </outline>
</glyph>
<glyph name="Aacute" format="1">
  <advance width="526"/>
  <unicode hex="00C1"/>
  <outline>
    <contour>
      <point x="375" y="-1" type="curve"/>
      <point x="382" y="22"/>
      <point x="367" y="145"/>
      <point x="358" y="235" type="curve"/>
      <point x="299" y="229"/>
      <point x="213" y="221"/>
      <point x="167" y="211" type="curve"/>
      <point x="132" y="146"/>
      <point x="94" y="63"/>
      <point x="76" y="6" type="curve"/>
      <point x="50" y="2"/>
      <point x="-5" y="-3"/>
      <point x="-28" y="-10" type="curve"/>
      <point x="38" y="59"/>
      <point x="331" y="567"/>
      <point x="324" y="578" type="curve"/>
      <point x="340" y="588"/>
      <point x="370" y="598"/>
      <point x="382" y="603" type="curve"/>
      <point x="391" y="460"/>
      <point x="431" y="103"/>
      <point x="479" y="-1" type="curve"/>
      <point x="420" y="5"/>
      <point x="406" y="1"/>
    </contour>
    <contour>
      <point x="355" y="267" type="curve"/>
      <point x="356" y="270"/>
      <point x="337" y="426"/>
      <point x="324" y="497" type="curve"/>
      <point x="276" y="417"/>
      <point x="233" y="336"/>
      <point x="189" y="254" type="curve"/>
      <point x="248" y="257"/>
      <point x="295" y="261"/>
    </contour>
    <contour>
      <point x="473" y="745" type="curve"/>
      <point x="473" y="727"/>
      <point x="476" y="699"/>
      <point x="483" y="680" type="curve"/>
      <point x="412" y="667"/>
      <point x="362" y="653"/>
      <point x="295" y="633" type="curve"/>
      <point x="288" y="659" type="line"/>
      <point x="351" y="684"/>
      <point x="432" y="723"/>
    </contour>
  </outline>
</glyph>
<glyph name="Acircumflex" format="1">
  <advance width="526"/>
  <unicode hex="00C2"/>
  <outline>
    <contour>
      <point x="375" y="-1" type="curve"/>
      <point x="382" y="22"/>
      <point x="367" y="145"/>
      <point x="358" y="235" type="curve"/>
      <point x="299" y="229"/>
      <point x="213" y="221"/>
      <point x="167" y="211" type="curve"/>
      <point x="132" y="146"/>
      <point x="94" y="63"/>
      <point x="76" y="6" type="curve"/>
      <point x="50" y="2"/>
      <point x="-5" y="-3"/>
      <point x="-28" y="-10" type="curve"/>
      <point x="38" y="59"/>
      <point x="331" y="567"/>
      <point x="324" y="578" type="curve"/>
      <point x="340" y="588"/>
      <point x="370" y="598"/>
      <point x="382" y="603" type="curve"/>
      <point x="391" y="460"/>
      <point x="431" y="103"/>
      <point x="479" y="-1" type="curve"/>
      <point x="420" y="5"/>
      <point x="406" y="1"/>
    </contour>
    <contour>
      <point x="355" y="267" type="curve"/>
      <point x="356" y="270"/>
      <point x="337" y="426"/>
      <point x="324" y="497" type="curve"/>
      <point x="276" y="417"/>
      <point x="233" y="336"/>
      <point x="189" y="254" type="curve"/>
      <point x="248" y="257"/>
      <point x="295" y="261"/>
    </contour>
    <contour>
      <point x="259" y="633" type="curve"/>
      <point x="255" y="637"/>
      <point x="251" y="651"/>
      <point x="251" y="660" type="curve"/>
      <point x="287" y="681"/>
      <point x="324" y="700"/>
      <point x="378" y="734" type="curve"/>
      <point x="406" y="706"/>
      <point x="436" y="681"/>
      <point x="466" y="657" type="curve"/>
      <point x="464" y="650"/>
      <point x="457" y="639"/>
      <point x="451" y="634" type="curve"/>
      <point x="417" y="653"/>
      <point x="397" y="662"/>
      <point x="366" y="673" type="curve"/>
      <point x="331" y="665"/>
      <point x="303" y="653"/>
    </contour>
  </outline>
</glyph>
<glyph name="Atilde" format="1">
  <advance width="526"/>
  <unicode hex="00C3"/>
  <outline>
    <contour>
      <point x="375" y="-1" type="curve"/>
      <point x="382" y="22"/>
      <point x="367" y="145"/>
      <point x="358" y="235" type="curve"/>
      <point x="299" y="229"/>
      <point x="213" y="221"/>
      <point x="167" y="211" type="curve"/>
      <point x="132" y="146"/>
      <point x="94" y="63"/>
      <point x="76" y="6" type="curve"/>
      <point x="50" y="2"/>
      <point x="-5" y="-3"/>
      <point x="-28" y="-10" type="curve"/>
      <point x="38" y="59"/>
      <point x="331" y="567"/>
      <point x="324" y="578" type="curve"/>
      <point x="340" y="588"/>
      <point x="370" y="598"/>
      <point x="382" y="603" type="curve"/>
      <point x="391" y="460"/>
      <point x="431" y="103"/>
      <point x="479" y="-1" type="curve"/>
      <point x="420" y="5"/>
      <point x="406" y="1"/>
    </contour>
    <contour>
      <point x="355" y="267" type="curve"/>
      <point x="356" y="270"/>
      <point x="337" y="426"/>
      <point x="324" y="497" type="curve"/>
      <point x="276" y="417"/>
      <point x="233" y="336"/>
      <point x="189" y="254" type="curve"/>
      <point x="248" y="257"/>
      <point x="295" y="261"/>
    </contour>
    <contour>
      <point x="392" y="641" type="curve" smooth="yes"/>
      <point x="375" y="641"/>
      <point x="341" y="660"/>
      <point x="325" y="661" type="curve"/>
      <point x="301" y="661"/>
      <point x="282" y="651"/>
      <point x="259" y="636" type="curve"/>
      <point x="252" y="644"/>
      <point x="249" y="651"/>
      <point x="246" y="660" type="curve"/>
      <point x="277" y="685"/>
      <point x="330" y="711"/>
      <point x="350" y="710" type="curve" smooth="yes"/>
      <point x="370" y="710"/>
      <point x="400" y="693"/>
      <point x="420" y="692" type="curve"/>
      <point x="443" y="692"/>
      <point x="462" y="702"/>
      <point x="484" y="715" type="curve"/>
      <point x="491" y="708"/>
      <point x="494" y="700"/>
      <point x="497" y="690" type="curve"/>
      <point x="460" y="660"/>
      <point x="413" y="641"/>
    </contour>
  </outline>
</glyph>
<glyph name="Adieresis" format="1">
  <advance width="526"/>
  <unicode hex="00C4"/>
  <outline>
    <contour>
      <point x="301" y="697" type="curve" smooth="yes"/>
      <point x="325" y="697"/>
      <point x="337" y="686"/>
      <point x="337" y="669" type="curve" smooth="yes"/>
      <point x="337" y="648"/>
      <point x="311" y="636"/>
      <point x="288" y="636" type="curve" smooth="yes"/>
      <point x="270" y="636"/>
      <point x="256" y="646"/>
      <point x="256" y="661" type="curve" smooth="yes"/>
      <point x="256" y="680"/>
      <point x="278" y="697"/>
    </contour>
    <contour>
      <point x="438" y="697" type="curve" smooth="yes"/>
      <point x="462" y="697"/>
      <point x="475" y="686"/>
      <point x="475" y="669" type="curve" smooth="yes"/>
      <point x="475" y="648"/>
      <point x="449" y="636"/>
      <point x="425" y="636" type="curve" smooth="yes"/>
      <point x="407" y="636"/>
      <point x="394" y="646"/>
      <point x="394" y="661" type="curve" smooth="yes"/>
      <point x="394" y="680"/>
      <point x="415" y="697"/>
    </contour>
    <contour>
      <point x="375" y="-1" type="curve"/>
      <point x="382" y="22"/>
      <point x="367" y="145"/>
      <point x="358" y="235" type="curve"/>
      <point x="299" y="229"/>
      <point x="213" y="221"/>
      <point x="167" y="211" type="curve"/>
      <point x="132" y="146"/>
      <point x="94" y="63"/>
      <point x="76" y="6" type="curve"/>
      <point x="50" y="2"/>
      <point x="-5" y="-3"/>
      <point x="-28" y="-10" type="curve"/>
      <point x="38" y="59"/>
      <point x="331" y="567"/>
      <point x="324" y="578" type="curve"/>
      <point x="340" y="588"/>
      <point x="370" y="598"/>
      <point x="382" y="603" type="curve"/>
      <point x="391" y="460"/>
      <point x="431" y="103"/>
      <point x="479" y="-1" type="curve"/>
      <point x="420" y="5"/>
      <point x="406" y="1"/>
    </contour>
    <contour>
      <point x="355" y="267" type="curve"/>
      <point x="356" y="270"/>
      <point x="337" y="426"/>
      <point x="324" y="497" type="curve"/>
      <point x="276" y="417"/>
      <point x="233" y="336"/>
      <point x="189" y="254" type="curve"/>
      <point x="248" y="257"/>
      <point x="295" y="261"/>
    </contour>
  </outline>
</glyph>
<glyph name="Aring" format="1">
  <advance width="526"/>
  <unicode hex="00C5"/>
  <outline>
    <contour>
      <point x="375" y="-1" type="curve"/>
      <point x="382" y="22"/>
      <point x="367" y="145"/>
      <point x="358" y="235" type="curve"/>
      <point x="299" y="229"/>
      <point x="213" y="221"/>
      <point x="167" y="211" type="curve"/>
      <point x="132" y="146"/>
      <point x="94" y="63"/>
      <point x="76" y="6" type="curve"/>
      <point x="50" y="2"/>
      <point x="-5" y="-3"/>
      <point x="-28" y="-10" type="curve"/>
      <point x="38" y="59"/>
      <point x="331" y="567"/>
      <point x="324" y="578" type="curve"/>
      <point x="340" y="588"/>
      <point x="370" y="598"/>
      <point x="382" y="603" type="curve"/>
      <point x="391" y="460"/>
      <point x="431" y="103"/>
      <point x="479" y="-1" type="curve"/>
      <point x="420" y="5"/>
      <point x="406" y="1"/>
    </contour>
    <contour>
      <point x="355" y="267" type="curve"/>
      <point x="356" y="270"/>
      <point x="337" y="426"/>
      <point x="324" y="497" type="curve"/>
      <point x="276" y="417"/>
      <point x="233" y="336"/>
      <point x="189" y="254" type="curve"/>
      <point x="248" y="257"/>
      <point x="295" y="261"/>
    </contour>
    <contour>
      <point x="394" y="753" type="curve" smooth="yes"/>
      <point x="437" y="753"/>
      <point x="473" y="736"/>
      <point x="473" y="709" type="curve" smooth="yes"/>
      <point x="473" y="655"/>
      <point x="405" y="631"/>
      <point x="351" y="631" type="curve"/>
      <point x="309" y="632"/>
      <point x="281" y="651"/>
      <point x="281" y="682" type="curve" smooth="yes"/>
      <point x="281" y="722"/>
      <point x="343" y="753"/>
    </contour>
    <contour>
      <point x="386" y="725" type="curve" smooth="yes"/>
      <point x="361" y="725"/>
      <point x="330" y="713"/>
      <point x="330" y="688" type="curve" smooth="yes"/>
      <point x="330" y="670"/>
      <point x="341" y="661"/>
      <point x="365" y="661" type="curve" smooth="yes"/>
      <point x="397" y="661"/>
      <point x="422" y="675"/>
      <point x="422" y="701" type="curve" smooth="yes"/>
      <point x="422" y="718"/>
      <point x="406" y="725"/>
    </contour>
  </outline>
</glyph>
<glyph name="AE" format="1">
  <advance width="776"/>
  <unicode hex="00C6"/>
  <outline>
    <contour>
      <point x="519" y="535" type="curve"/>
      <point x="509" y="496"/>
      <point x="490" y="375"/>
      <point x="487" y="352" type="curve"/>
      <point x="563" y="352"/>
      <point x="656" y="358"/>
      <point x="736" y="365" type="curve"/>
      <point x="730" y="332" type="line"/>
      <point x="673" y="328"/>
      <point x="546" y="315"/>
      <point x="478" y="307" type="curve"/>
      <point x="467" y="248"/>
      <point x="446" y="117"/>
      <point x="451" y="53" type="curve"/>
      <point x="524" y="43"/>
      <point x="639" y="37"/>
      <point x="755" y="34" type="curve"/>
      <point x="750" y="-2" type="line"/>
      <point x="515" y="2"/>
      <point x="457" y="1"/>
      <point x="343" y="-2" type="curve"/>
      <point x="362" y="33"/>
      <point x="386" y="127"/>
      <point x="406" y="233" type="curve"/>
      <point x="343" y="228"/>
      <point x="258" y="219"/>
      <point x="209" y="210" type="curve"/>
      <point x="161" y="143"/>
      <point x="112" y="63"/>
      <point x="84" y="6" type="curve"/>
      <point x="57" y="4"/>
      <point x="-6" y="-3"/>
      <point x="-32" y="-10" type="curve"/>
      <point x="68" y="87"/>
      <point x="398" y="521"/>
      <point x="439" y="583" type="curve"/>
      <point x="564" y="580"/>
      <point x="676" y="579"/>
      <point x="774" y="581" type="curve"/>
      <point x="764" y="547" type="line"/>
      <point x="663" y="545"/>
      <point x="612" y="542"/>
    </contour>
    <contour>
      <point x="238" y="253" type="curve"/>
      <point x="290" y="255"/>
      <point x="355" y="261"/>
      <point x="410" y="267" type="curve"/>
      <point x="426" y="357"/>
      <point x="439" y="441"/>
      <point x="446" y="525" type="curve"/>
      <point x="350" y="408"/>
      <point x="299" y="335"/>
    </contour>
  </outline>
</glyph>
<glyph name="Ccedilla" format="1">
  <advance width="552"/>
  <unicode hex="00C7"/>
  <outline>
    <contour>
      <point x="183" y="-64" type="curve"/>
      <point x="205" y="-44"/>
      <point x="221" y="-28"/>
      <point x="241" y="-9" type="curve"/>
      <point x="125" y="1"/>
      <point x="50" y="107"/>
      <point x="50" y="221" type="curve" smooth="yes"/>
      <point x="50" y="429"/>
      <point x="239" y="594"/>
      <point x="392" y="594" type="curve"/>
      <point x="407" y="595"/>
      <point x="471" y="588"/>
      <point x="527" y="569" type="curve"/>
      <point x="526" y="562"/>
      <point x="520" y="542"/>
      <point x="516" y="534" type="curve"/>
      <point x="481" y="546"/>
      <point x="440" y="555"/>
      <point x="406" y="555" type="curve" smooth="yes"/>
      <point x="260" y="555"/>
      <point x="124" y="400"/>
      <point x="124" y="246" type="curve" smooth="yes"/>
      <point x="124" y="141"/>
      <point x="176" y="43"/>
      <point x="313" y="43" type="curve" smooth="yes"/>
      <point x="358" y="43"/>
      <point x="460" y="85"/>
      <point x="501" y="110" type="curve"/>
      <point x="509" y="105"/>
      <point x="515" y="86"/>
      <point x="516" y="78" type="curve"/>
      <point x="449" y="42"/>
      <point x="364" y="0"/>
      <point x="286" y="-8" type="curve"/>
      <point x="275" y="-18"/>
      <point x="258" y="-32"/>
      <point x="249" y="-42" type="curve"/>
      <point x="315" y="-47"/>
      <point x="337" y="-76"/>
      <point x="337" y="-118" type="curve" smooth="yes"/>
      <point x="337" y="-152"/>
      <point x="279" y="-213"/>
      <point x="242" y="-241" type="curve"/>
      <point x="232" y="-236"/>
      <point x="225" y="-231"/>
      <point x="222" y="-224" type="curve"/>
      <point x="250" y="-197"/>
      <point x="278" y="-164"/>
      <point x="278" y="-139" type="curve" smooth="yes"/>
      <point x="278" y="-110"/>
      <point x="254" y="-82"/>
      <point x="196" y="-86" type="curve"/>
      <point x="190" y="-82"/>
      <point x="185" y="-70"/>
    </contour>
  </outline>
</glyph>
<glyph name="Egrave" format="1">
  <advance width="449"/>
  <unicode hex="00C8"/>
  <outline>
    <contour>
      <point x="117" y="583" type="curve"/>
      <point x="201" y="579"/>
      <point x="331" y="578"/>
      <point x="447" y="581" type="curve"/>
      <point x="437" y="547" type="line"/>
      <point x="335" y="545"/>
      <point x="285" y="542"/>
      <point x="191" y="535" type="curve"/>
      <point x="181" y="496"/>
      <point x="163" y="375"/>
      <point x="160" y="352" type="curve"/>
      <point x="236" y="352"/>
      <point x="329" y="358"/>
      <point x="409" y="365" type="curve"/>
      <point x="403" y="332" type="line"/>
      <point x="346" y="328"/>
      <point x="219" y="315"/>
      <point x="151" y="307" type="curve"/>
      <point x="140" y="248"/>
      <point x="119" y="117"/>
      <point x="124" y="53" type="curve"/>
      <point x="196" y="43"/>
      <point x="312" y="37"/>
      <point x="428" y="34" type="curve"/>
      <point x="423" y="-2" type="line"/>
      <point x="188" y="2"/>
      <point x="130" y="1"/>
      <point x="16" y="-2" type="curve"/>
      <point x="62" y="82"/>
      <point x="131" y="515"/>
    </contour>
    <contour>
      <point x="237" y="748" type="curve"/>
      <point x="271" y="726"/>
      <point x="339" y="691"/>
      <point x="394" y="663" type="curve"/>
      <point x="384" y="640" type="line"/>
      <point x="323" y="660"/>
      <point x="277" y="671"/>
      <point x="210" y="685" type="curve"/>
      <point x="221" y="703"/>
      <point x="232" y="730"/>
    </contour>
  </outline>
</glyph>
<glyph name="Eacute" format="1">
  <advance width="449"/>
  <unicode hex="00C9"/>
  <outline>
    <contour>
      <point x="117" y="583" type="curve"/>
      <point x="201" y="579"/>
      <point x="331" y="578"/>
      <point x="447" y="581" type="curve"/>
      <point x="437" y="547" type="line"/>
      <point x="335" y="545"/>
      <point x="285" y="542"/>
      <point x="191" y="535" type="curve"/>
      <point x="181" y="496"/>
      <point x="163" y="375"/>
      <point x="160" y="352" type="curve"/>
      <point x="236" y="352"/>
      <point x="329" y="358"/>
      <point x="409" y="365" type="curve"/>
      <point x="403" y="332" type="line"/>
      <point x="346" y="328"/>
      <point x="219" y="315"/>
      <point x="151" y="307" type="curve"/>
      <point x="140" y="248"/>
      <point x="119" y="117"/>
      <point x="124" y="53" type="curve"/>
      <point x="196" y="43"/>
      <point x="312" y="37"/>
      <point x="428" y="34" type="curve"/>
      <point x="423" y="-2" type="line"/>
      <point x="188" y="2"/>
      <point x="130" y="1"/>
      <point x="16" y="-2" type="curve"/>
      <point x="62" y="82"/>
      <point x="131" y="515"/>
    </contour>
    <contour>
      <point x="400" y="745" type="curve"/>
      <point x="400" y="727"/>
      <point x="403" y="699"/>
      <point x="410" y="680" type="curve"/>
      <point x="339" y="667"/>
      <point x="289" y="653"/>
      <point x="222" y="633" type="curve"/>
      <point x="215" y="659" type="line"/>
      <point x="278" y="684"/>
      <point x="359" y="723"/>
    </contour>
  </outline>
</glyph>
<glyph name="Ecircumflex" format="1">
  <advance width="449"/>
  <unicode hex="00CA"/>
  <outline>
    <contour>
      <point x="117" y="583" type="curve"/>
      <point x="201" y="579"/>
      <point x="331" y="578"/>
      <point x="447" y="581" type="curve"/>
      <point x="437" y="547" type="line"/>
      <point x="335" y="545"/>
      <point x="285" y="542"/>
      <point x="191" y="535" type="curve"/>
      <point x="181" y="496"/>
      <point x="163" y="375"/>
      <point x="160" y="352" type="curve"/>
      <point x="236" y="352"/>
      <point x="329" y="358"/>
      <point x="409" y="365" type="curve"/>
      <point x="403" y="332" type="line"/>
      <point x="346" y="328"/>
      <point x="219" y="315"/>
      <point x="151" y="307" type="curve"/>
      <point x="140" y="248"/>
      <point x="119" y="117"/>
      <point x="124" y="53" type="curve"/>
      <point x="196" y="43"/>
      <point x="312" y="37"/>
      <point x="428" y="34" type="curve"/>
      <point x="423" y="-2" type="line"/>
      <point x="188" y="2"/>
      <point x="130" y="1"/>
      <point x="16" y="-2" type="curve"/>
      <point x="62" y="82"/>
      <point x="131" y="515"/>
    </contour>
    <contour>
      <point x="206" y="633" type="curve"/>
      <point x="202" y="637"/>
      <point x="198" y="651"/>
      <point x="198" y="660" type="curve"/>
      <point x="234" y="681"/>
      <point x="271" y="700"/>
      <point x="325" y="734" type="curve"/>
      <point x="353" y="706"/>
      <point x="383" y="681"/>
      <point x="413" y="657" type="curve"/>
      <point x="411" y="650"/>
      <point x="404" y="639"/>
      <point x="398" y="634" type="curve"/>
      <point x="364" y="653"/>
      <point x="344" y="662"/>
      <point x="313" y="673" type="curve"/>
      <point x="278" y="665"/>
      <point x="250" y="653"/>
    </contour>
  </outline>
</glyph>
<glyph name="Edieresis" format="1">
  <advance width="449"/>
  <unicode hex="00CB"/>
  <outline>
    <contour>
      <point x="117" y="583" type="curve"/>
      <point x="201" y="579"/>
      <point x="331" y="578"/>
      <point x="447" y="581" type="curve"/>
      <point x="437" y="547" type="line"/>
      <point x="335" y="545"/>
      <point x="285" y="542"/>
      <point x="191" y="535" type="curve"/>
      <point x="181" y="496"/>
      <point x="163" y="375"/>
      <point x="160" y="352" type="curve"/>
      <point x="236" y="352"/>
      <point x="329" y="358"/>
      <point x="409" y="365" type="curve"/>
      <point x="403" y="332" type="line"/>
      <point x="346" y="328"/>
      <point x="219" y="315"/>
      <point x="151" y="307" type="curve"/>
      <point x="140" y="248"/>
      <point x="119" y="117"/>
      <point x="124" y="53" type="curve"/>
      <point x="196" y="43"/>
      <point x="312" y="37"/>
      <point x="428" y="34" type="curve"/>
      <point x="423" y="-2" type="line"/>
      <point x="188" y="2"/>
      <point x="130" y="1"/>
      <point x="16" y="-2" type="curve"/>
      <point x="62" y="82"/>
      <point x="131" y="515"/>
    </contour>
    <contour>
      <point x="243" y="698" type="curve" smooth="yes"/>
      <point x="268" y="698"/>
      <point x="280" y="687"/>
      <point x="280" y="670" type="curve" smooth="yes"/>
      <point x="280" y="649"/>
      <point x="254" y="637"/>
      <point x="231" y="637" type="curve" smooth="yes"/>
      <point x="212" y="637"/>
      <point x="199" y="647"/>
      <point x="199" y="662" type="curve" smooth="yes"/>
      <point x="199" y="681"/>
      <point x="221" y="698"/>
    </contour>
    <contour>
      <point x="381" y="698" type="curve" smooth="yes"/>
      <point x="405" y="698"/>
      <point x="417" y="687"/>
      <point x="417" y="670" type="curve" smooth="yes"/>
      <point x="417" y="649"/>
      <point x="391" y="637"/>
      <point x="368" y="637" type="curve" smooth="yes"/>
      <point x="350" y="637"/>
      <point x="336" y="647"/>
      <point x="336" y="662" type="curve" smooth="yes"/>
      <point x="336" y="681"/>
      <point x="358" y="698"/>
    </contour>
  </outline>
</glyph>
<glyph name="Igrave" format="1">
  <advance width="215"/>
  <unicode hex="00CC"/>
  <outline>
    <contour>
      <point x="212" y="583" type="curve"/>
      <point x="171" y="465"/>
      <point x="118" y="100"/>
      <point x="117" y="-2" type="curve"/>
      <point x="99" y="-1"/>
      <point x="51" y="1"/>
      <point x="29" y="-2" type="curve"/>
      <point x="60" y="138"/>
      <point x="115" y="414"/>
      <point x="120" y="583" type="curve"/>
      <point x="146" y="580"/>
      <point x="187" y="579"/>
    </contour>
    <contour>
      <point x="103" y="748" type="curve"/>
      <point x="137" y="726"/>
      <point x="205" y="691"/>
      <point x="260" y="663" type="curve"/>
      <point x="250" y="640" type="line"/>
      <point x="189" y="660"/>
      <point x="143" y="671"/>
      <point x="76" y="685" type="curve"/>
      <point x="87" y="703"/>
      <point x="98" y="730"/>
    </contour>
  </outline>
</glyph>
<glyph name="Iacute" format="1">
  <advance width="215"/>
  <unicode hex="00CD"/>
  <outline>
    <contour>
      <point x="212" y="583" type="curve"/>
      <point x="171" y="465"/>
      <point x="118" y="100"/>
      <point x="117" y="-2" type="curve"/>
      <point x="99" y="-1"/>
      <point x="51" y="1"/>
      <point x="29" y="-2" type="curve"/>
      <point x="60" y="138"/>
      <point x="115" y="414"/>
      <point x="120" y="583" type="curve"/>
      <point x="146" y="580"/>
      <point x="187" y="579"/>
    </contour>
    <contour>
      <point x="283" y="745" type="curve"/>
      <point x="283" y="727"/>
      <point x="286" y="699"/>
      <point x="293" y="680" type="curve"/>
      <point x="222" y="667"/>
      <point x="172" y="653"/>
      <point x="105" y="633" type="curve"/>
      <point x="98" y="659" type="line"/>
      <point x="161" y="684"/>
      <point x="242" y="723"/>
    </contour>
  </outline>
</glyph>
<glyph name="Icircumflex" format="1">
  <advance width="215"/>
  <unicode hex="00CE"/>
  <outline>
    <contour>
      <point x="74" y="637" type="curve"/>
      <point x="71" y="640"/>
      <point x="67" y="648"/>
      <point x="67" y="658" type="curve"/>
      <point x="104" y="678"/>
      <point x="138" y="699"/>
      <point x="192" y="734" type="curve"/>
      <point x="221" y="706"/>
      <point x="251" y="680"/>
      <point x="281" y="656" type="curve"/>
      <point x="277" y="648"/>
      <point x="273" y="643"/>
      <point x="266" y="639" type="curve"/>
      <point x="230" y="656"/>
      <point x="212" y="667"/>
      <point x="181" y="675" type="curve"/>
      <point x="146" y="667"/>
      <point x="118" y="654"/>
    </contour>
    <contour>
      <point x="212" y="583" type="curve"/>
      <point x="171" y="465"/>
      <point x="118" y="100"/>
      <point x="117" y="-2" type="curve"/>
      <point x="99" y="-1"/>
      <point x="51" y="1"/>
      <point x="29" y="-2" type="curve"/>
      <point x="60" y="138"/>
      <point x="115" y="414"/>
      <point x="120" y="583" type="curve"/>
      <point x="146" y="580"/>
      <point x="187" y="579"/>
    </contour>
  </outline>
</glyph>
<glyph name="Idieresis" format="1">
  <advance width="215"/>
  <unicode hex="00CF"/>
  <outline>
    <contour>
      <point x="212" y="583" type="curve"/>
      <point x="171" y="465"/>
      <point x="118" y="100"/>
      <point x="117" y="-2" type="curve"/>
      <point x="99" y="-1"/>
      <point x="51" y="1"/>
      <point x="29" y="-2" type="curve"/>
      <point x="60" y="138"/>
      <point x="115" y="414"/>
      <point x="120" y="583" type="curve"/>
      <point x="146" y="580"/>
      <point x="187" y="579"/>
    </contour>
    <contour>
      <point x="118" y="697" type="curve" smooth="yes"/>
      <point x="143" y="697"/>
      <point x="155" y="686"/>
      <point x="155" y="669" type="curve" smooth="yes"/>
      <point x="155" y="648"/>
      <point x="129" y="636"/>
      <point x="106" y="636" type="curve" smooth="yes"/>
      <point x="87" y="636"/>
      <point x="74" y="646"/>
      <point x="74" y="661" type="curve" smooth="yes"/>
      <point x="74" y="680"/>
      <point x="96" y="697"/>
    </contour>
    <contour>
      <point x="256" y="697" type="curve" smooth="yes"/>
      <point x="280" y="697"/>
      <point x="292" y="686"/>
      <point x="292" y="669" type="curve" smooth="yes"/>
      <point x="292" y="648"/>
      <point x="266" y="636"/>
      <point x="243" y="636" type="curve" smooth="yes"/>
      <point x="225" y="636"/>
      <point x="211" y="646"/>
      <point x="211" y="661" type="curve" smooth="yes"/>
      <point x="211" y="680"/>
      <point x="233" y="697"/>
    </contour>
  </outline>
</glyph>
<glyph name="Eth" format="1">
  <advance width="552"/>
  <unicode hex="00D0"/>
  <outline>
    <contour>
      <point x="296" y="582" type="curve" smooth="yes"/>
      <point x="484" y="580"/>
      <point x="555" y="458"/>
      <point x="543" y="363" type="curve"/>
      <point x="509" y="122"/>
      <point x="285" y="12"/>
      <point x="127" y="2" type="curve" smooth="yes"/>
      <point x="88" y="-1"/>
      <point x="64" y="-3"/>
      <point x="34" y="-2" type="curve"/>
      <point x="45" y="30"/>
      <point x="73" y="178"/>
      <point x="94" y="318" type="curve"/>
      <point x="49" y="318" type="line"/>
      <point x="46" y="326"/>
      <point x="50" y="347"/>
      <point x="52" y="352" type="curve"/>
      <point x="98" y="352" type="line"/>
      <point x="113" y="455"/>
      <point x="122" y="549"/>
      <point x="117" y="583" type="curve"/>
      <point x="157" y="581"/>
      <point x="269" y="582"/>
    </contour>
    <contour>
      <point x="196" y="543" type="curve"/>
      <point x="187" y="491"/>
      <point x="175" y="422"/>
      <point x="164" y="351" type="curve"/>
      <point x="232" y="350"/>
      <point x="300" y="350"/>
      <point x="345" y="351" type="curve"/>
      <point x="346" y="341"/>
      <point x="344" y="325"/>
      <point x="340" y="316" type="curve"/>
      <point x="280" y="318"/>
      <point x="223" y="318"/>
      <point x="159" y="319" type="curve"/>
      <point x="140" y="195"/>
      <point x="124" y="73"/>
      <point x="129" y="38" type="curve"/>
      <point x="365" y="61"/>
      <point x="454" y="236"/>
      <point x="467" y="343" type="curve" smooth="yes"/>
      <point x="479" y="440"/>
      <point x="419" y="529"/>
      <point x="294" y="541" type="curve" smooth="yes"/>
      <point x="259" y="544"/>
      <point x="220" y="545"/>
    </contour>
  </outline>
</glyph>
<glyph name="Ntilde" format="1">
  <advance width="627"/>
  <unicode hex="00D1"/>
  <outline>
    <contour>
      <point x="491" y="-12" type="curve"/>
      <point x="403" y="140"/>
      <point x="219" y="373"/>
      <point x="159" y="456" type="curve"/>
      <point x="132" y="322"/>
      <point x="100" y="39"/>
      <point x="102" y="7" type="curve"/>
      <point x="74" y="1"/>
      <point x="49" y="0"/>
      <point x="15" y="-17" type="curve"/>
      <point x="46" y="42"/>
      <point x="97" y="309"/>
      <point x="127" y="495" type="curve" smooth="yes"/>
      <point x="132" y="526"/>
      <point x="135" y="556"/>
      <point x="133" y="582" type="curve"/>
      <point x="142" y="586"/>
      <point x="142" y="588"/>
      <point x="153" y="591" type="curve"/>
      <point x="237" y="450"/>
      <point x="388" y="267"/>
      <point x="491" y="133" type="curve"/>
      <point x="522" y="305"/>
      <point x="551" y="477"/>
      <point x="556" y="577" type="curve"/>
      <point x="578" y="581"/>
      <point x="613" y="588"/>
      <point x="635" y="598" type="curve"/>
      <point x="601" y="542"/>
      <point x="560" y="313"/>
      <point x="526" y="103" type="curve" smooth="yes"/>
      <point x="521" y="76"/>
      <point x="517" y="28"/>
      <point x="517" y="-4" type="curve"/>
      <point x="510" y="-10"/>
      <point x="498" y="-11"/>
    </contour>
    <contour>
      <point x="416" y="641" type="curve" smooth="yes"/>
      <point x="399" y="641"/>
      <point x="365" y="660"/>
      <point x="349" y="661" type="curve"/>
      <point x="325" y="661"/>
      <point x="306" y="651"/>
      <point x="283" y="636" type="curve"/>
      <point x="276" y="644"/>
      <point x="273" y="651"/>
      <point x="270" y="660" type="curve"/>
      <point x="301" y="685"/>
      <point x="354" y="711"/>
      <point x="374" y="710" type="curve" smooth="yes"/>
      <point x="394" y="710"/>
      <point x="424" y="693"/>
      <point x="444" y="692" type="curve"/>
      <point x="467" y="692"/>
      <point x="486" y="702"/>
      <point x="508" y="715" type="curve"/>
      <point x="515" y="708"/>
      <point x="518" y="700"/>
      <point x="521" y="690" type="curve"/>
      <point x="484" y="660"/>
      <point x="437" y="641"/>
    </contour>
  </outline>
</glyph>
<glyph name="Ocircumflex" format="1">
  <advance width="659"/>
  <unicode hex="00D4"/>
  <outline>
    <contour>
      <point x="411" y="593" type="curve" smooth="yes"/>
      <point x="509" y="593"/>
      <point x="633" y="509"/>
      <point x="633" y="361" type="curve" smooth="yes"/>
      <point x="633" y="256"/>
      <point x="598" y="154"/>
      <point x="540" y="93" type="curve" smooth="yes"/>
      <point x="490" y="41"/>
      <point x="380" y="-11"/>
      <point x="292" y="-11" type="curve" smooth="yes"/>
      <point x="122" y="-11"/>
      <point x="43" y="108"/>
      <point x="43" y="236" type="curve"/>
      <point x="45" y="335"/>
      <point x="92" y="454"/>
      <point x="182" y="519" type="curve" smooth="yes"/>
      <point x="223" y="548"/>
      <point x="322" y="593"/>
    </contour>
    <contour>
      <point x="315" y="34" type="curve" smooth="yes"/>
      <point x="408" y="34"/>
      <point x="561" y="100"/>
      <point x="561" y="349" type="curve" smooth="yes"/>
      <point x="561" y="455"/>
      <point x="487" y="546"/>
      <point x="371" y="546" type="curve" smooth="yes"/>
      <point x="219" y="546"/>
      <point x="116" y="402"/>
      <point x="116" y="241" type="curve" smooth="yes"/>
      <point x="116" y="132"/>
      <point x="192" y="34"/>
    </contour>
    <contour>
      <point x="292" y="633" type="curve"/>
      <point x="288" y="637"/>
      <point x="284" y="651"/>
      <point x="284" y="660" type="curve"/>
      <point x="320" y="681"/>
      <point x="357" y="700"/>
      <point x="411" y="734" type="curve"/>
      <point x="439" y="706"/>
      <point x="469" y="681"/>
      <point x="499" y="657" type="curve"/>
      <point x="497" y="650"/>
      <point x="490" y="639"/>
      <point x="484" y="634" type="curve"/>
      <point x="450" y="653"/>
      <point x="430" y="662"/>
      <point x="399" y="673" type="curve"/>
      <point x="364" y="665"/>
      <point x="336" y="653"/>
    </contour>
  </outline>
</glyph>
<glyph name="Otilde" format="1">
  <advance width="659"/>
  <unicode hex="00D5"/>
  <outline>
    <contour>
      <point x="411" y="593" type="curve" smooth="yes"/>
      <point x="509" y="593"/>
      <point x="633" y="509"/>
      <point x="633" y="361" type="curve" smooth="yes"/>
      <point x="633" y="256"/>
      <point x="598" y="154"/>
      <point x="540" y="93" type="curve" smooth="yes"/>
      <point x="490" y="41"/>
      <point x="380" y="-11"/>
      <point x="292" y="-11" type="curve" smooth="yes"/>
      <point x="122" y="-11"/>
      <point x="43" y="108"/>
      <point x="43" y="236" type="curve"/>
      <point x="45" y="335"/>
      <point x="92" y="454"/>
      <point x="182" y="519" type="curve" smooth="yes"/>
      <point x="223" y="548"/>
      <point x="322" y="593"/>
    </contour>
    <contour>
      <point x="315" y="34" type="curve" smooth="yes"/>
      <point x="408" y="34"/>
      <point x="561" y="100"/>
      <point x="561" y="349" type="curve" smooth="yes"/>
      <point x="561" y="455"/>
      <point x="487" y="546"/>
      <point x="371" y="546" type="curve" smooth="yes"/>
      <point x="219" y="546"/>
      <point x="116" y="402"/>
      <point x="116" y="241" type="curve" smooth="yes"/>
      <point x="116" y="132"/>
      <point x="192" y="34"/>
    </contour>
    <contour>
      <point x="424" y="641" type="curve" smooth="yes"/>
      <point x="407" y="641"/>
      <point x="373" y="660"/>
      <point x="357" y="661" type="curve"/>
      <point x="333" y="661"/>
      <point x="314" y="651"/>
      <point x="291" y="636" type="curve"/>
      <point x="284" y="644"/>
      <point x="281" y="651"/>
      <point x="278" y="660" type="curve"/>
      <point x="309" y="685"/>
      <point x="362" y="711"/>
      <point x="382" y="710" type="curve" smooth="yes"/>
      <point x="402" y="710"/>
      <point x="432" y="693"/>
      <point x="452" y="692" type="curve"/>
      <point x="475" y="692"/>
      <point x="494" y="702"/>
      <point x="516" y="715" type="curve"/>
      <point x="523" y="708"/>
      <point x="526" y="700"/>
      <point x="529" y="690" type="curve"/>
      <point x="492" y="660"/>
      <point x="445" y="641"/>
    </contour>
  </outline>
</glyph>
<glyph name="Odieresis" format="1">
  <advance width="659"/>
  <unicode hex="00D6"/>
  <outline>
    <contour>
      <point x="411" y="593" type="curve" smooth="yes"/>
      <point x="509" y="593"/>
      <point x="633" y="509"/>
      <point x="633" y="361" type="curve" smooth="yes"/>
      <point x="633" y="256"/>
      <point x="598" y="154"/>
      <point x="540" y="93" type="curve" smooth="yes"/>
      <point x="490" y="41"/>
      <point x="380" y="-11"/>
      <point x="292" y="-11" type="curve" smooth="yes"/>
      <point x="122" y="-11"/>
      <point x="43" y="108"/>
      <point x="43" y="236" type="curve"/>
      <point x="45" y="335"/>
      <point x="92" y="454"/>
      <point x="182" y="519" type="curve" smooth="yes"/>
      <point x="223" y="548"/>
      <point x="322" y="593"/>
    </contour>
    <contour>
      <point x="315" y="34" type="curve" smooth="yes"/>
      <point x="408" y="34"/>
      <point x="561" y="100"/>
      <point x="561" y="349" type="curve" smooth="yes"/>
      <point x="561" y="455"/>
      <point x="487" y="546"/>
      <point x="371" y="546" type="curve" smooth="yes"/>
      <point x="219" y="546"/>
      <point x="116" y="402"/>
      <point x="116" y="241" type="curve" smooth="yes"/>
      <point x="116" y="132"/>
      <point x="192" y="34"/>
    </contour>
    <contour>
      <point x="335" y="697" type="curve" smooth="yes"/>
      <point x="360" y="697"/>
      <point x="372" y="686"/>
      <point x="372" y="669" type="curve" smooth="yes"/>
      <point x="372" y="648"/>
      <point x="346" y="636"/>
      <point x="323" y="636" type="curve" smooth="yes"/>
      <point x="304" y="636"/>
      <point x="291" y="646"/>
      <point x="291" y="661" type="curve" smooth="yes"/>
      <point x="291" y="680"/>
      <point x="313" y="697"/>
    </contour>
    <contour>
      <point x="473" y="697" type="curve" smooth="yes"/>
      <point x="497" y="697"/>
      <point x="509" y="686"/>
      <point x="509" y="669" type="curve" smooth="yes"/>
      <point x="509" y="648"/>
      <point x="483" y="636"/>
      <point x="460" y="636" type="curve" smooth="yes"/>
      <point x="442" y="636"/>
      <point x="428" y="646"/>
      <point x="428" y="661" type="curve" smooth="yes"/>
      <point x="428" y="680"/>
      <point x="450" y="697"/>
    </contour>
  </outline>
</glyph>
<glyph name="multiply" format="1">
  <advance width="416"/>
  <unicode hex="00D7"/>
  <outline>
    <contour>
      <point x="82" y="363" type="curve"/>
      <point x="116" y="327"/>
      <point x="175" y="263"/>
      <point x="211" y="228" type="curve"/>
      <point x="248" y="264"/>
      <point x="318" y="336"/>
      <point x="342" y="362" type="curve"/>
      <point x="350" y="355"/>
      <point x="361" y="342"/>
      <point x="365" y="331" type="curve"/>
      <point x="332" y="300"/>
      <point x="268" y="236"/>
      <point x="235" y="203" type="curve"/>
      <point x="271" y="167"/>
      <point x="333" y="105"/>
      <point x="369" y="70" type="curve"/>
      <point x="362" y="61"/>
      <point x="352" y="48"/>
      <point x="343" y="40" type="curve"/>
      <point x="308" y="77"/>
      <point x="246" y="141"/>
      <point x="209" y="177" type="curve"/>
      <point x="176" y="146"/>
      <point x="113" y="81"/>
      <point x="74" y="41" type="curve"/>
      <point x="67" y="45"/>
      <point x="53" y="64"/>
      <point x="51" y="70" type="curve"/>
      <point x="83" y="100"/>
      <point x="149" y="166"/>
      <point x="185" y="202" type="curve"/>
      <point x="150" y="238"/>
      <point x="90" y="302"/>
      <point x="56" y="335" type="curve"/>
      <point x="60" y="342"/>
      <point x="77" y="360"/>
    </contour>
  </outline>
</glyph>
<glyph name="Oslash" format="1">
  <advance width="659"/>
  <unicode hex="00D8"/>
  <outline>
    <contour>
      <point x="411" y="593" type="curve" smooth="yes"/>
      <point x="426" y="593"/>
      <point x="442" y="591"/>
      <point x="457" y="587" type="curve"/>
      <point x="474" y="621" type="line"/>
      <point x="483" y="620"/>
      <point x="509" y="616"/>
      <point x="514" y="612" type="curve"/>
      <point x="495" y="574" type="line"/>
      <point x="568" y="541"/>
      <point x="633" y="468"/>
      <point x="633" y="361" type="curve" smooth="yes"/>
      <point x="633" y="256"/>
      <point x="598" y="154"/>
      <point x="540" y="93" type="curve" smooth="yes"/>
      <point x="490" y="41"/>
      <point x="380" y="-11"/>
      <point x="292" y="-11" type="curve" smooth="yes"/>
      <point x="264" y="-11"/>
      <point x="239" y="-7"/>
      <point x="216" y="-2" type="curve"/>
      <point x="197" y="-42" type="line"/>
      <point x="186" y="-41"/>
      <point x="166" y="-42"/>
      <point x="156" y="-34" type="curve"/>
      <point x="163" y="-19"/>
      <point x="171" y="-4"/>
      <point x="179" y="11" type="curve"/>
      <point x="86" y="51"/>
      <point x="43" y="141"/>
      <point x="43" y="236" type="curve"/>
      <point x="45" y="335"/>
      <point x="92" y="454"/>
      <point x="182" y="519" type="curve" smooth="yes"/>
      <point x="223" y="548"/>
      <point x="322" y="593"/>
    </contour>
    <contour>
      <point x="315" y="34" type="curve" smooth="yes"/>
      <point x="408" y="34"/>
      <point x="561" y="100"/>
      <point x="561" y="349" type="curve" smooth="yes"/>
      <point x="561" y="421"/>
      <point x="527" y="486"/>
      <point x="469" y="520" type="curve"/>
      <point x="394" y="368"/>
      <point x="313" y="200"/>
      <point x="240" y="47" type="curve"/>
      <point x="262" y="39"/>
      <point x="287" y="34"/>
    </contour>
    <contour>
      <point x="433" y="536" type="curve"/>
      <point x="414" y="543"/>
      <point x="393" y="546"/>
      <point x="371" y="546" type="curve" smooth="yes"/>
      <point x="219" y="546"/>
      <point x="116" y="402"/>
      <point x="116" y="241" type="curve" smooth="yes"/>
      <point x="116" y="169"/>
      <point x="148" y="103"/>
      <point x="205" y="65" type="curve"/>
      <point x="280" y="217"/>
      <point x="361" y="385"/>
    </contour>
  </outline>
</glyph>
<glyph name="Uacute" format="1">
  <advance width="571"/>
  <unicode hex="00DA"/>
  <outline>
    <contour>
      <point x="88" y="582" type="curve"/>
      <point x="124" y="580"/>
      <point x="146" y="580"/>
      <point x="176" y="584" type="curve"/>
      <point x="156" y="490"/>
      <point x="138" y="310"/>
      <point x="138" y="188" type="curve" smooth="yes"/>
      <point x="139" y="51"/>
      <point x="237" y="28"/>
      <point x="278" y="28" type="curve" smooth="yes"/>
      <point x="383" y="28"/>
      <point x="429" y="102"/>
      <point x="457" y="193" type="curve"/>
      <point x="489" y="303"/>
      <point x="527" y="499"/>
      <point x="522" y="578" type="curve"/>
      <point x="546" y="578"/>
      <point x="580" y="582"/>
      <point x="608" y="589" type="curve"/>
      <point x="568" y="478"/>
      <point x="531" y="328"/>
      <point x="502" y="215" type="curve" smooth="yes"/>
      <point x="468" y="82"/>
      <point x="406" y="-10"/>
      <point x="266" y="-12" type="curve"/>
      <point x="201" y="-14"/>
      <point x="52" y="11"/>
      <point x="70" y="216" type="curve" smooth="yes"/>
      <point x="83" y="363"/>
      <point x="91" y="494"/>
    </contour>
    <contour>
      <point x="456" y="745" type="curve"/>
      <point x="456" y="727"/>
      <point x="459" y="699"/>
      <point x="466" y="680" type="curve"/>
      <point x="395" y="667"/>
      <point x="345" y="653"/>
      <point x="278" y="633" type="curve"/>
      <point x="271" y="659" type="line"/>
      <point x="334" y="684"/>
      <point x="415" y="723"/>
    </contour>
  </outline>
</glyph>
<glyph name="Ucircumflex" format="1">
  <advance width="571"/>
  <unicode hex="00DB"/>
  <outline>
    <contour>
      <point x="88" y="582" type="curve"/>
      <point x="124" y="580"/>
      <point x="146" y="580"/>
      <point x="176" y="584" type="curve"/>
      <point x="156" y="490"/>
      <point x="138" y="310"/>
      <point x="138" y="188" type="curve" smooth="yes"/>
      <point x="139" y="51"/>
      <point x="237" y="28"/>
      <point x="278" y="28" type="curve" smooth="yes"/>
      <point x="383" y="28"/>
      <point x="429" y="102"/>
      <point x="457" y="193" type="curve"/>
      <point x="489" y="303"/>
      <point x="527" y="499"/>
      <point x="522" y="578" type="curve"/>
      <point x="546" y="578"/>
      <point x="580" y="582"/>
      <point x="608" y="589" type="curve"/>
      <point x="568" y="478"/>
      <point x="531" y="328"/>
      <point x="502" y="215" type="curve" smooth="yes"/>
      <point x="468" y="82"/>
      <point x="406" y="-10"/>
      <point x="266" y="-12" type="curve"/>
      <point x="201" y="-14"/>
      <point x="52" y="11"/>
      <point x="70" y="216" type="curve" smooth="yes"/>
      <point x="83" y="363"/>
      <point x="91" y="494"/>
    </contour>
    <contour>
      <point x="262" y="633" type="curve"/>
      <point x="258" y="637"/>
      <point x="254" y="651"/>
      <point x="254" y="660" type="curve"/>
      <point x="290" y="681"/>
      <point x="327" y="700"/>
      <point x="381" y="734" type="curve"/>
      <point x="409" y="706"/>
      <point x="439" y="681"/>
      <point x="469" y="657" type="curve"/>
      <point x="467" y="650"/>
      <point x="460" y="639"/>
      <point x="454" y="634" type="curve"/>
      <point x="420" y="653"/>
      <point x="400" y="662"/>
      <point x="369" y="673" type="curve"/>
      <point x="334" y="665"/>
      <point x="306" y="653"/>
    </contour>
  </outline>
</glyph>
<glyph name="Udieresis" format="1">
  <advance width="571"/>
  <unicode hex="00DC"/>
  <outline>
    <contour>
      <point x="88" y="582" type="curve"/>
      <point x="124" y="580"/>
      <point x="146" y="580"/>
      <point x="176" y="584" type="curve"/>
      <point x="156" y="490"/>
      <point x="138" y="310"/>
      <point x="138" y="188" type="curve" smooth="yes"/>
      <point x="139" y="51"/>
      <point x="237" y="28"/>
      <point x="278" y="28" type="curve" smooth="yes"/>
      <point x="383" y="28"/>
      <point x="429" y="102"/>
      <point x="457" y="193" type="curve"/>
      <point x="489" y="303"/>
      <point x="527" y="499"/>
      <point x="522" y="578" type="curve"/>
      <point x="546" y="578"/>
      <point x="580" y="582"/>
      <point x="608" y="589" type="curve"/>
      <point x="568" y="478"/>
      <point x="531" y="328"/>
      <point x="502" y="215" type="curve" smooth="yes"/>
      <point x="468" y="82"/>
      <point x="406" y="-10"/>
      <point x="266" y="-12" type="curve"/>
      <point x="201" y="-14"/>
      <point x="52" y="11"/>
      <point x="70" y="216" type="curve" smooth="yes"/>
      <point x="83" y="363"/>
      <point x="91" y="494"/>
    </contour>
    <contour>
      <point x="302" y="697" type="curve" smooth="yes"/>
      <point x="327" y="697"/>
      <point x="339" y="686"/>
      <point x="339" y="669" type="curve" smooth="yes"/>
      <point x="339" y="648"/>
      <point x="313" y="636"/>
      <point x="290" y="636" type="curve" smooth="yes"/>
      <point x="271" y="636"/>
      <point x="258" y="646"/>
      <point x="258" y="661" type="curve" smooth="yes"/>
      <point x="258" y="680"/>
      <point x="280" y="697"/>
    </contour>
    <contour>
      <point x="440" y="697" type="curve" smooth="yes"/>
      <point x="464" y="697"/>
      <point x="476" y="686"/>
      <point x="476" y="669" type="curve" smooth="yes"/>
      <point x="476" y="648"/>
      <point x="450" y="636"/>
      <point x="427" y="636" type="curve" smooth="yes"/>
      <point x="409" y="636"/>
      <point x="395" y="646"/>
      <point x="395" y="661" type="curve" smooth="yes"/>
      <point x="395" y="680"/>
      <point x="417" y="697"/>
    </contour>
  </outline>
</glyph>
<glyph name="Yacute" format="1">
  <advance width="454"/>
  <unicode hex="00DD"/>
  <outline>
    <contour>
      <point x="48" y="583" type="curve"/>
      <point x="97" y="579"/>
      <point x="120" y="579"/>
      <point x="161" y="583" type="curve"/>
      <point x="172" y="501"/>
      <point x="219" y="377"/>
      <point x="254" y="318" type="curve"/>
      <point x="330" y="402"/>
      <point x="391" y="497"/>
      <point x="423" y="578" type="curve"/>
      <point x="449" y="578"/>
      <point x="490" y="583"/>
      <point x="527" y="592" type="curve"/>
      <point x="423" y="482"/>
      <point x="354" y="390"/>
      <point x="266" y="275" type="curve"/>
      <point x="238" y="161"/>
      <point x="231" y="67"/>
      <point x="241" y="-1" type="curve"/>
      <point x="205" y="2"/>
      <point x="166" y="3"/>
      <point x="135" y="-1" type="curve"/>
      <point x="162" y="62"/>
      <point x="185" y="188"/>
      <point x="196" y="272" type="curve"/>
      <point x="175" y="351"/>
      <point x="92" y="533"/>
    </contour>
    <contour>
      <point x="401" y="745" type="curve"/>
      <point x="401" y="727"/>
      <point x="404" y="699"/>
      <point x="411" y="680" type="curve"/>
      <point x="340" y="667"/>
      <point x="290" y="653"/>
      <point x="223" y="633" type="curve"/>
      <point x="216" y="659" type="line"/>
      <point x="279" y="684"/>
      <point x="360" y="723"/>
    </contour>
  </outline>
</glyph>
<glyph name="Thorn" format="1">
  <advance width="489"/>
  <unicode hex="00DE"/>
  <outline>
    <contour>
      <point x="212" y="583" type="curve"/>
      <point x="203" y="556"/>
      <point x="192" y="516"/>
      <point x="182" y="471" type="curve"/>
      <point x="208" y="471"/>
      <point x="239" y="472"/>
      <point x="275" y="472" type="curve" smooth="yes"/>
      <point x="379" y="472"/>
      <point x="496" y="485"/>
      <point x="495" y="380" type="curve"/>
      <point x="493" y="282"/>
      <point x="409" y="203"/>
      <point x="218" y="150" type="curve"/>
      <point x="213" y="159"/>
      <point x="213" y="180"/>
      <point x="213" y="183" type="curve"/>
      <point x="355" y="232"/>
      <point x="416" y="280"/>
      <point x="416" y="365" type="curve" smooth="yes"/>
      <point x="416" y="415"/>
      <point x="357" y="433"/>
      <point x="287" y="435" type="curve" smooth="yes"/>
      <point x="239" y="437"/>
      <point x="193" y="430"/>
      <point x="174" y="428" type="curve"/>
      <point x="142" y="259"/>
      <point x="117" y="67"/>
      <point x="117" y="-2" type="curve"/>
      <point x="99" y="-1"/>
      <point x="51" y="1"/>
      <point x="29" y="-2" type="curve"/>
      <point x="60" y="138"/>
      <point x="115" y="414"/>
      <point x="120" y="583" type="curve"/>
      <point x="146" y="580"/>
      <point x="187" y="579"/>
    </contour>
  </outline>
</glyph>
<glyph name="germandbls" format="1">
  <advance width="414"/>
  <unicode hex="00DF"/>
  <outline>
    <contour>
      <point x="325" y="648" type="curve"/>
      <point x="276" y="628"/>
      <point x="224" y="568"/>
      <point x="201" y="498" type="curve" smooth="yes"/>
      <point x="189" y="460"/>
      <point x="177" y="411"/>
      <point x="166" y="358" type="curve" smooth="yes"/>
      <point x="149" y="276"/>
      <point x="117" y="99"/>
      <point x="107" y="58" type="curve" smooth="yes"/>
      <point x="52" y="-176"/>
      <point x="-74" y="-279"/>
      <point x="-156" y="-279" type="curve" smooth="yes"/>
      <point x="-171" y="-279"/>
      <point x="-189" y="-268"/>
      <point x="-199" y="-258" type="curve"/>
      <point x="-197" y="-252"/>
      <point x="-190" y="-238"/>
      <point x="-186" y="-229" type="curve"/>
      <point x="-128" y="-264"/>
      <point x="-67" y="-208"/>
      <point x="-44" y="-173" type="curve" smooth="yes"/>
      <point x="1" y="-102"/>
      <point x="29" y="-42"/>
      <point x="49" y="57" type="curve" smooth="yes"/>
      <point x="66" y="141"/>
      <point x="97" y="307"/>
      <point x="102" y="345" type="curve"/>
      <point x="91" y="346"/>
      <point x="65" y="346"/>
      <point x="59" y="346" type="curve"/>
      <point x="63" y="358"/>
      <point x="67" y="374"/>
      <point x="69" y="385" type="curve"/>
      <point x="78" y="385"/>
      <point x="94" y="384"/>
      <point x="108" y="384" type="curve"/>
      <point x="109" y="388" type="line"/>
      <point x="134" y="478"/>
      <point x="165" y="551"/>
      <point x="222" y="615" type="curve" smooth="yes"/>
      <point x="269" y="668"/>
      <point x="330" y="694"/>
      <point x="363" y="698" type="curve"/>
      <point x="408" y="660"/>
      <point x="422" y="604"/>
      <point x="421" y="555" type="curve" smooth="yes"/>
      <point x="420" y="489"/>
      <point x="378" y="419"/>
      <point x="326" y="372" type="curve"/>
      <point x="360" y="346"/>
      <point x="383" y="277"/>
      <point x="383" y="228" type="curve" smooth="yes"/>
      <point x="383" y="112"/>
      <point x="284" y="-12"/>
      <point x="156" y="-3" type="curve"/>
      <point x="153" y="1"/>
      <point x="159" y="27"/>
      <point x="161" y="33" type="curve"/>
      <point x="252" y="28"/>
      <point x="317" y="113"/>
      <point x="320" y="205" type="curve"/>
      <point x="320" y="274"/>
      <point x="289" y="325"/>
      <point x="255" y="351" type="curve"/>
      <point x="308" y="393"/>
      <point x="365" y="465"/>
      <point x="366" y="526" type="curve" smooth="yes"/>
      <point x="367" y="576"/>
      <point x="352" y="622"/>
    </contour>
  </outline>
</glyph>
<glyph name="atilde" format="1">
  <advance width="386"/>
  <unicode hex="00E3"/>
  <outline>
    <contour>
      <point x="378" y="383" type="curve"/>
      <point x="342" y="344"/>
      <point x="291" y="67"/>
      <point x="300" y="-1" type="curve"/>
      <point x="278" y="1"/>
      <point x="252" y="3"/>
      <point x="221" y="-2" type="curve"/>
      <point x="221" y="18"/>
      <point x="243" y="113"/>
      <point x="251" y="151" type="curve"/>
      <point x="188" y="99"/>
      <point x="132" y="53"/>
      <point x="59" y="-12" type="curve"/>
      <point x="38" y="2"/>
      <point x="22" y="47"/>
      <point x="22" y="95" type="curve" smooth="yes"/>
      <point x="22" y="214"/>
      <point x="115" y="380"/>
      <point x="266" y="385" type="curve"/>
      <point x="310" y="385"/>
      <point x="343" y="385"/>
    </contour>
    <contour>
      <point x="292" y="350" type="curve"/>
      <point x="285" y="351"/>
      <point x="278" y="352"/>
      <point x="270" y="352" type="curve" smooth="yes"/>
      <point x="150" y="350"/>
      <point x="89" y="226"/>
      <point x="89" y="147" type="curve" smooth="yes"/>
      <point x="89" y="117"/>
      <point x="91" y="101"/>
      <point x="102" y="76" type="curve"/>
      <point x="133" y="97"/>
      <point x="239" y="181"/>
      <point x="261" y="202" type="curve"/>
      <point x="270" y="228"/>
      <point x="291" y="319"/>
    </contour>
    <contour>
      <point x="307" y="474" type="curve" smooth="yes"/>
      <point x="290" y="474"/>
      <point x="256" y="493"/>
      <point x="240" y="494" type="curve"/>
      <point x="216" y="494"/>
      <point x="197" y="484"/>
      <point x="174" y="469" type="curve"/>
      <point x="167" y="477"/>
      <point x="164" y="484"/>
      <point x="161" y="493" type="curve"/>
      <point x="192" y="518"/>
      <point x="245" y="544"/>
      <point x="265" y="543" type="curve" smooth="yes"/>
      <point x="285" y="543"/>
      <point x="315" y="526"/>
      <point x="335" y="525" type="curve"/>
      <point x="358" y="525"/>
      <point x="377" y="535"/>
      <point x="399" y="548" type="curve"/>
      <point x="406" y="541"/>
      <point x="409" y="533"/>
      <point x="412" y="523" type="curve"/>
      <point x="375" y="493"/>
      <point x="328" y="474"/>
    </contour>
  </outline>
</glyph>
<glyph name="adieresis" format="1">
  <advance width="386"/>
  <unicode hex="00E4"/>
  <outline>
    <contour>
      <point x="378" y="383" type="curve"/>
      <point x="342" y="344"/>
      <point x="291" y="67"/>
      <point x="300" y="-1" type="curve"/>
      <point x="278" y="1"/>
      <point x="252" y="3"/>
      <point x="221" y="-2" type="curve"/>
      <point x="221" y="18"/>
      <point x="243" y="113"/>
      <point x="251" y="151" type="curve"/>
      <point x="188" y="99"/>
      <point x="132" y="53"/>
      <point x="59" y="-12" type="curve"/>
      <point x="38" y="2"/>
      <point x="22" y="47"/>
      <point x="22" y="95" type="curve" smooth="yes"/>
      <point x="22" y="214"/>
      <point x="115" y="380"/>
      <point x="266" y="385" type="curve"/>
      <point x="310" y="385"/>
      <point x="343" y="385"/>
    </contour>
    <contour>
      <point x="292" y="350" type="curve"/>
      <point x="285" y="351"/>
      <point x="278" y="352"/>
      <point x="270" y="352" type="curve" smooth="yes"/>
      <point x="150" y="350"/>
      <point x="89" y="226"/>
      <point x="89" y="147" type="curve" smooth="yes"/>
      <point x="89" y="117"/>
      <point x="91" y="101"/>
      <point x="102" y="76" type="curve"/>
      <point x="133" y="97"/>
      <point x="239" y="181"/>
      <point x="261" y="202" type="curve"/>
      <point x="270" y="228"/>
      <point x="291" y="319"/>
    </contour>
    <contour>
      <point x="206" y="518" type="curve" smooth="yes"/>
      <point x="231" y="518"/>
      <point x="243" y="507"/>
      <point x="243" y="490" type="curve" smooth="yes"/>
      <point x="243" y="469"/>
      <point x="217" y="457"/>
      <point x="194" y="457" type="curve" smooth="yes"/>
      <point x="175" y="457"/>
      <point x="162" y="467"/>
      <point x="162" y="482" type="curve" smooth="yes"/>
      <point x="162" y="501"/>
      <point x="184" y="518"/>
    </contour>
    <contour>
      <point x="344" y="518" type="curve" smooth="yes"/>
      <point x="368" y="518"/>
      <point x="380" y="507"/>
      <point x="380" y="490" type="curve" smooth="yes"/>
      <point x="380" y="469"/>
      <point x="354" y="457"/>
      <point x="331" y="457" type="curve" smooth="yes"/>
      <point x="313" y="457"/>
      <point x="299" y="467"/>
      <point x="299" y="482" type="curve" smooth="yes"/>
      <point x="299" y="501"/>
      <point x="321" y="518"/>
    </contour>
  </outline>
</glyph>
<glyph name="aring" format="1">
  <advance width="386"/>
  <unicode hex="00E5"/>
  <outline>
    <contour>
      <point x="378" y="383" type="curve"/>
      <point x="342" y="344"/>
      <point x="291" y="67"/>
      <point x="300" y="-1" type="curve"/>
      <point x="278" y="1"/>
      <point x="252" y="3"/>
      <point x="221" y="-2" type="curve"/>
      <point x="221" y="18"/>
      <point x="243" y="113"/>
      <point x="251" y="151" type="curve"/>
      <point x="188" y="99"/>
      <point x="132" y="53"/>
      <point x="59" y="-12" type="curve"/>
      <point x="38" y="2"/>
      <point x="22" y="47"/>
      <point x="22" y="95" type="curve" smooth="yes"/>
      <point x="22" y="214"/>
      <point x="115" y="380"/>
      <point x="266" y="385" type="curve"/>
      <point x="310" y="385"/>
      <point x="343" y="385"/>
    </contour>
    <contour>
      <point x="292" y="350" type="curve"/>
      <point x="285" y="351"/>
      <point x="278" y="352"/>
      <point x="270" y="352" type="curve" smooth="yes"/>
      <point x="150" y="350"/>
      <point x="89" y="226"/>
      <point x="89" y="147" type="curve" smooth="yes"/>
      <point x="89" y="117"/>
      <point x="91" y="101"/>
      <point x="102" y="76" type="curve"/>
      <point x="133" y="97"/>
      <point x="239" y="181"/>
      <point x="261" y="202" type="curve"/>
      <point x="270" y="228"/>
      <point x="291" y="319"/>
    </contour>
    <contour>
      <point x="303" y="563" type="curve" smooth="yes"/>
      <point x="346" y="563"/>
      <point x="382" y="546"/>
      <point x="382" y="519" type="curve" smooth="yes"/>
      <point x="382" y="465"/>
      <point x="314" y="441"/>
      <point x="260" y="441" type="curve"/>
      <point x="218" y="442"/>
      <point x="190" y="461"/>
      <point x="190" y="492" type="curve" smooth="yes"/>
      <point x="190" y="532"/>
      <point x="252" y="563"/>
    </contour>
    <contour>
      <point x="295" y="535" type="curve" smooth="yes"/>
      <point x="270" y="535"/>
      <point x="239" y="523"/>
      <point x="239" y="498" type="curve" smooth="yes"/>
      <point x="239" y="480"/>
      <point x="250" y="471"/>
      <point x="274" y="471" type="curve" smooth="yes"/>
      <point x="306" y="471"/>
      <point x="331" y="485"/>
      <point x="331" y="511" type="curve" smooth="yes"/>
      <point x="331" y="528"/>
      <point x="315" y="535"/>
    </contour>
  </outline>
</glyph>
